<?xml version="1.0" encoding="utf-8"?>
<!-- Generator: Adobe Illustrator 16.0.0, SVG Export Plug-In . SVG Version: 6.00 Build 0)  -->
<!DOCTYPE svg PUBLIC "-//W3C//DTD SVG 1.1//EN" "http://www.w3.org/Graphics/SVG/1.1/DTD/svg11.dtd">
<svg version="1.1" id="Layer_1" xmlns="http://www.w3.org/2000/svg" xmlns:xlink="http://www.w3.org/1999/xlink" x="0px" y="0px"
	 width="80.518px" height="22.823px" viewBox="0 0 80.518 22.823" enable-background="new 0 0 80.518 22.823" xml:space="preserve">
<g>
	<defs>
		<rect id="SVGID_1_" width="80.518" height="22.823"/>
	</defs>
	<clipPath id="SVGID_2_">
		<use xlink:href="#SVGID_1_"  overflow="visible"/>
	</clipPath>
	<path clip-path="url(#SVGID_2_)" d="M9.827,5.266c0,0,0.262-0.247,0.576-0.277c0.674-0.252,1.16-0.139,1.721,0.094
		c0.096,0.023,0.269,0.164,0.269,0.164s-0.12,0.076-0.218,0.053c-0.171-0.143-0.583-0.136-0.777-0.181
		c-0.097-0.023-0.097-0.023-0.12,0.074l0.097,0.022c0.172,0.143,0.463,0.211,0.755,0.279c0,0,0.097,0.022,0.075,0.119l-0.098-0.021
		c-0.216,0.052-0.411,0.006-0.703-0.062l-0.12,0.075c0,0,0.075,0.119,0.172,0.142l1.069,0.249l0.195,0.045
		c0,0-0.022,0.097-0.217,0.052c-0.748,0.133-1.428-0.025-2.086-0.28C9.954,5.602,9.804,5.361,9.827,5.266 M12.202,6.944
		c0.382-0.321,0.817-0.425,1.13-0.454l0.292,0.068c0,0-0.023,0.097-0.12,0.074c-0.217,0.052-0.315,0.03-0.434,0.104
		c-0.097-0.023-0.119,0.075-0.022,0.097l0.097,0.023l0.726-0.036c0.119-0.074,0.216-0.052,0.216-0.052
		c-0.023,0.097-0.023,0.097-0.142,0.172l-0.457,0.201l-0.119,0.075l0.291,0.067c0.433-0.103,0.845-0.11,1.28-0.214
		c0.12-0.074,0.239-0.149,0.314-0.029c0,0-0.12,0.075-0.24,0.149c-0.817,0.424-1.564,0.558-2.267,0.496
		c-0.292-0.067-0.777-0.18-0.755-0.278C11.895,7.385,12.06,7.116,12.202,6.944 M15.296,8.176c0.023-0.097,0.091-0.388,0.353-0.634
		c0.382-0.321,0.913-0.402,1.444-0.484l0.194,0.045l-0.119,0.075c-0.217,0.052-0.457,0.201-0.457,0.201l-0.119,0.075l0.194,0.044
		c0.194,0.046,0.531-0.081,0.748-0.132c0.098,0.023,0.217-0.052,0.195,0.045c0,0-0.023,0.098-0.12,0.075l-0.48,0.298
		c-0.12,0.074-0.142,0.171-0.142,0.171s0.157-0.014,0.217-0.052l1.399-0.289c0.12-0.074,0.217-0.051,0.217-0.051
		s-0.023,0.097-0.142,0.172c-0.623,0.469-1.318,0.82-2.41,0.668C15.662,8.364,15.393,8.201,15.296,8.176 M18.661,8.243
		c0.405-0.417,0.959-0.595,1.587-0.655l0.097,0.024c0.075,0.119-0.022,0.096-0.142,0.171c-0.097-0.022-0.457,0.201-0.576,0.276
		c-0.023,0.097-0.12,0.074-0.12,0.074c0.074,0.12,0.074,0.12,0.194,0.046c0.218-0.053,0.434-0.105,0.748-0.134l0.195,0.045
		l-0.12,0.075c-0.217,0.052-0.457,0.201-0.576,0.276l-0.12,0.074C19.903,8.634,20,8.656,20.12,8.583l1.159-0.14
		c0.12-0.074,0.217-0.051,0.314-0.029c0,0-0.12,0.075-0.142,0.172c-0.577,0.275-1.565,0.558-2.364,0.474
		c-0.389-0.09-0.778-0.182-0.756-0.279C18.234,8.758,18.4,8.489,18.661,8.243 M21.503,8.802c0.404-0.418,1.175-0.648,1.707-0.73
		c0.194,0.045,0.313-0.029,0.388,0.09c0,0-0.119,0.075-0.217,0.053c-0.217,0.051-0.337,0.125-0.457,0.201
		c-0.022,0.097-0.142,0.171-0.142,0.171l0.194,0.045l0.554-0.178l0.098,0.022c0,0-0.023,0.098-0.143,0.173
		c-0.098-0.023-0.12,0.074-0.24,0.149c-0.119,0.074-0.119,0.074-0.142,0.171l0.195,0.045l0.673-0.253l0.195,0.046
		c0,0-0.023,0.097-0.143,0.172c-0.502,0.395-1.198,0.745-2.096,0.638c-0.508-0.015-0.8-0.083-0.777-0.181
		C21.075,9.317,21.218,9.146,21.503,8.802 M23.91,9.464c0.502-0.394,1.152-0.551,1.781-0.61l0.195,0.045
		c0.097,0.023-0.023,0.098-0.023,0.098c-0.097-0.023-0.434,0.104-0.554,0.178c-0.12,0.075-0.12,0.075-0.143,0.172
		c0,0,0.098,0.023,0.218-0.052c0.194,0.046,0.434-0.104,0.65-0.156l0.195,0.046c0,0-0.023,0.097-0.12,0.074
		c-0.12,0.074-0.359,0.224-0.381,0.321c-0.121,0.074-0.121,0.074-0.023,0.097c-0.023,0.097,0.097,0.022,0.097,0.022l0.89-0.304
		c0.217-0.052,0.217-0.052,0.314-0.029c-0.022,0.097-0.12,0.074-0.239,0.149c-0.622,0.469-1.512,0.775-2.432,0.765
		c-0.412,0.007-0.801-0.083-0.778-0.181C23.46,10.078,23.647,9.711,23.91,9.464 M26.683,10.315c0,0,0.045-0.194,0.45-0.613
		c0.359-0.223,0.913-0.402,1.228-0.431c0.194,0.045,0.313-0.029,0.313-0.029c-0.022,0.097-0.022,0.097-0.142,0.171
		c-0.097-0.023-0.457,0.202-0.554,0.179l-0.022,0.097l0.097,0.023c0.434-0.105,0.965-0.186,1.062-0.163l0.195,0.045
		c0,0-0.12,0.074-0.217,0.051c-0.24,0.15-0.457,0.203-0.697,0.351l-0.022,0.098c0,0,0.097,0.022,0.119-0.075l1.063-0.162
		c0.022-0.098,0.119-0.075,0.097,0.022l-0.143,0.172c-0.456,0.201-1.249,0.529-1.758,0.513
		C27.124,10.624,26.758,10.436,26.683,10.315 M29.831,10.434c0.36-0.224,0.697-0.35,1.034-0.477l0.194,0.045
		c0,0-0.022,0.097-0.12,0.075c-0.12,0.075-0.143,0.172-0.262,0.247c-0.023,0.097-0.023,0.097,0.097,0.022
		c0.218-0.051,0.531-0.081,0.628-0.059c0.023-0.097,0.12-0.074,0.12-0.074l-0.045,0.195c-0.097-0.023-0.217,0.051-0.24,0.148
		c-0.097-0.022-0.119,0.075-0.119,0.075l0.097,0.023l0.823-0.014l0.194,0.045c0,0-0.023,0.098-0.24,0.149
		c-0.554,0.179-1.085,0.26-1.593,0.244c-0.509-0.016-0.8-0.084-0.778-0.18C29.547,10.776,29.69,10.604,29.831,10.434 M30.909,9.762
		c-0.366-0.188-0.612-0.45-0.566-0.644c0.022-0.097,0.479-0.299,0.891-0.305c0.605,0.037,1.382,0.219,2.018,0.572
		c0.194,0.045,0.171,0.142,0.171,0.142s-0.003,0.067-0.194-0.045c-0.249-0.096-0.557-0.177-0.711-0.175L32.319,9.28
		c0,0,0.11,0.118,0.207,0.141l0.658,0.256c0.097,0.022,0.171,0.142,0.171,0.142s-0.023,0.097-0.217,0.052
		c-0.194-0.046-0.486-0.114-0.702-0.061c-0.097-0.023-0.195-0.046-0.218,0.051l0.292,0.068l0.68,0.159l0.194,0.045
		c-0.022,0.097-0.022,0.097-0.239,0.149C32.54,10.244,31.739,10.161,30.909,9.762 M33.319,9.093l-0.172-0.143
		c-0.171-0.141-0.589-0.546-0.783-0.592l-0.075-0.119c-0.12,0.074-0.022,0.097-0.022,0.097l0.417,0.404l-0.022,0.097
		c-0.023,0.098-0.098-0.022-0.098-0.022c-0.194-0.045-0.441-0.308-0.634-0.353l-0.158-0.037c0.03,0.033,0.049,0.064,0.038,0.112
		c0.097,0.022,0.171,0.142,0.366,0.188l0.075,0.119l-0.292-0.067c-0.561-0.234-0.927-0.421-1.076-0.661
		c-0.223-0.359-0.276-0.576-0.156-0.65c0.023-0.098,0.337-0.127,0.801,0.083c0.776,0.181,1.195,0.586,1.739,1.327
		C33.342,8.997,33.342,8.997,33.319,9.093 M30.439,7.729l-0.054,0.034c-0.017-0.034-0.091-0.09-0.211-0.118
		c-0.075-0.12-0.247-0.262-0.344-0.285c0.023-0.097-0.075-0.12-0.097-0.023l0.074,0.12l0.419,0.405
		c0.096,0.022,0.096,0.022,0.074,0.12c0,0-0.098-0.023-0.172-0.143c-0.097-0.023-0.366-0.188-0.366-0.188l-0.097-0.022l-0.022,0.097
		c0.171,0.143,0.268,0.165,0.343,0.285c0.098,0.023,0.171,0.142,0.171,0.142l-0.194-0.045c-0.583-0.135-1.024-0.443-1.344-0.825
		c-0.224-0.359-0.254-0.674-0.156-0.651c0.022-0.098,0.336-0.127,0.8,0.084c0.486,0.113,0.829,0.398,1.052,0.757
		C30.369,7.559,30.411,7.695,30.439,7.729 M29.176,8.847l0.681,0.159l0.195,0.045c0,0-0.121,0.074-0.218,0.051
		c-1.04,0.066-1.623-0.07-2.258-0.422c-0.366-0.188-0.612-0.451-0.589-0.547c0.022-0.098,0.382-0.322,0.696-0.351
		c0.725-0.035,1.502,0.145,2.235,0.52l0.269,0.165c-0.023,0.097-0.119,0.075-0.314,0.03c-0.195-0.046-0.367-0.188-0.561-0.234
		c-0.097-0.022-0.12,0.076-0.12,0.076s-0.022,0.096,0.075,0.12l0.658,0.255l0.194,0.045C30.097,8.855,30,8.833,29.902,8.811
		c-0.195-0.045-0.389-0.091-0.703-0.061l-0.098-0.022C29.079,8.824,29.079,8.824,29.176,8.847 M28.281,7.41
		c-0.022,0.097-0.096-0.024-0.194-0.046c-0.246-0.262-0.515-0.427-0.806-0.495c-0.075-0.12-0.173-0.142-0.195-0.046l0.123,0.132
		l0.392,0.296c0.074,0.12,0.149,0.24,0.149,0.24l-0.291-0.069c-0.172-0.142-0.344-0.284-0.635-0.352l-0.098-0.023l-0.022,0.098
		c0.172,0.142,0.343,0.284,0.537,0.329c-0.022,0.098,0.076,0.12,0.076,0.12c-0.023,0.098-0.023,0.098-0.218,0.053
		c-0.463-0.211-1.001-0.541-1.419-0.945c-0.149-0.241-0.179-0.554-0.156-0.652c0.097,0.023,0.411-0.006,0.8,0.084
		c0.875,0.203,1.316,0.511,1.808,1.036C28.304,7.312,28.281,7.41,28.281,7.41 M25.73,8.25l0.874,0.203
		c0.097,0.023,0.172,0.143,0.172,0.143s-0.023,0.096-0.217,0.052c-0.726,0.036-1.623-0.071-2.355-0.446
		c-0.463-0.21-0.504-0.476-0.47-0.622c0.057-0.243,0.274-0.295,0.696-0.349c0.845-0.112,1.503,0.144,2.161,0.4
		c0.123,0.063,0.152,0.127,0.163,0.147c-0.022,0.014-0.122,0.067-0.209,0.047l-0.68-0.158c-0.048-0.011-0.108,0.025-0.168,0.063
		c-0.011,0.049,0.025,0.108,0.074,0.12l0.632,0.147c0.097,0.022,0.172,0.142,0.172,0.142s-0.12,0.075-0.217,0.052
		c-0.097-0.022-0.292-0.068-0.605-0.038l-0.098-0.023C25.632,8.227,25.73,8.25,25.73,8.25 M25.172,6.686
		c0,0-0.097-0.023-0.269-0.166c-0.172-0.142-0.442-0.307-0.635-0.352l-0.195-0.046c0,0-0.022,0.098,0.075,0.12l0.44,0.308
		c-0.022,0.097,0.075,0.119,0.075,0.119c-0.023,0.097-0.12,0.075-0.194-0.045c-0.097-0.022-0.366-0.187-0.561-0.233l-0.097-0.022
		l-0.023,0.097c0.172,0.142,0.344,0.284,0.538,0.33c0.097,0.023,0.194,0.045,0.172,0.143L24.206,6.87
		c-0.874-0.203-1.338-0.413-1.561-0.773c-0.321-0.382-0.373-0.598-0.253-0.674c0.023-0.097,0.24-0.149,0.725-0.035
		c0.68,0.158,1.316,0.511,1.928,0.961C25.194,6.588,25.194,6.588,25.172,6.686 M22.111,7.509c0.269,0.165,0.583,0.135,0.777,0.181
		c0.195,0.045,0.292,0.068,0.27,0.165c0,0-0.098-0.022-0.218,0.052c-0.628,0.059-1.526-0.048-2.28-0.326
		c-0.464-0.211-0.664-0.667-0.642-0.764s0.48-0.299,0.891-0.305c0.628-0.059,1.405,0.122,1.966,0.355
		c0.172,0.142,0.269,0.165,0.269,0.165c-0.022,0.098-0.12,0.075-0.315,0.029L22.15,6.903l-0.12,0.074c0,0-0.023,0.098,0.074,0.121
		l0.68,0.158c0.097,0.023,0.172,0.142,0.172,0.142s-0.022,0.097-0.217,0.052c-0.194-0.045-0.388-0.09-0.606-0.038L22.036,7.39
		C22.014,7.486,22.014,7.486,22.111,7.509 M21.935,5.625c-0.023,0.097-0.12,0.074-0.217,0.052c-0.172-0.142-0.538-0.33-0.635-0.353
		c-0.097-0.023-0.195-0.045-0.217,0.052l0.075,0.12l0.463,0.21c0.086,0.072,0.172,0.143,0.149,0.239l-0.195-0.045l-0.485-0.112
		l-0.195-0.046c0,0-0.022,0.097,0.075,0.12c0.075,0.12,0.366,0.187,0.658,0.256l0.074,0.119c0,0-0.119,0.075-0.217,0.052
		c-0.485-0.113-1.338-0.414-1.755-0.818c-0.247-0.262-0.299-0.479-0.277-0.576c0,0,0.143-0.173,0.554-0.179
		c0.509,0.015,1.458,0.339,1.973,0.767C21.861,5.504,21.935,5.625,21.935,5.625 M18.373,6.844c0.172,0.142,0.68,0.157,0.875,0.203
		l0.194,0.046c0,0-0.022,0.096-0.24,0.149c-0.726,0.035-1.6-0.168-2.16-0.401c-0.538-0.33-0.665-0.666-0.643-0.764
		c0.023-0.097,0.285-0.343,0.817-0.425c0.628-0.059,1.406,0.122,2.04,0.476c0.098,0.022,0.367,0.187,0.27,0.164
		c-0.023,0.097-0.12,0.075-0.218,0.052c-0.194-0.046-0.485-0.113-0.897-0.106c-0.097-0.023-0.097-0.023-0.119,0.074
		c0,0,0.097,0.023,0.171,0.143l0.584,0.136c0.096,0.022,0.096,0.022,0.073,0.12l-0.096-0.023c-0.12,0.075-0.411,0.006-0.606-0.039
		c-0.023,0.098-0.12,0.075-0.12,0.075C18.276,6.821,18.276,6.821,18.373,6.844 M18.779,5.095c0,0-0.097-0.023-0.171-0.143
		c-0.194-0.046-0.426-0.151-0.524-0.173l-0.302-0.02l0.209,0.203l0.28,0.116c0.086,0.071,0.075,0.12,0.075,0.12l-0.12,0.075
		c-0.097-0.023-0.463-0.21-0.561-0.233c0,0-0.097-0.022-0.12,0.075c0,0,0.098,0.022,0.173,0.142c0.097,0.022,0.366,0.187,0.56,0.232
		l0.097,0.024c-0.022,0.096-0.12,0.074-0.217,0.051c-0.606-0.039-1.046-0.346-1.39-0.631c-0.246-0.262-0.275-0.576-0.253-0.673
		c0,0,0.337-0.126,0.726-0.036c0.485,0.113,0.972,0.226,1.39,0.631C18.705,4.975,18.802,4.998,18.779,5.095 M16.185,4.798
		c0,0-0.097-0.023-0.172-0.143c-0.291-0.067-0.463-0.21-0.755-0.278l-0.097-0.023c-0.097-0.022-0.011,0.049,0.075,0.12l0.478,0.367
		c0.086,0.072,0.232,0.106,0.209,0.203L15.729,5c-0.195-0.046-0.561-0.233-0.756-0.279l-0.119,0.075
		c-0.097-0.023-0.023,0.097,0.075,0.12c0.074,0.12,0.269,0.165,0.538,0.33l0.096,0.022c-0.022,0.098-0.119,0.075-0.216,0.053
		c-0.464-0.21-1.047-0.346-1.271-0.706c-0.223-0.359-0.178-0.553-0.156-0.651c0.034-0.145,0.263-0.246,0.652-0.156
		c0.583,0.136,1.121,0.466,1.561,0.774C16.208,4.701,16.208,4.701,16.185,4.798 M13.701,5.347c0.725-0.036,1.114,0.055,1.869,0.333
		c0.269,0.165,0.344,0.285,0.344,0.285s-0.12,0.074-0.292-0.068l-0.681-0.158c-0.096-0.023-0.096-0.023-0.119,0.074l0.075,0.12
		l0.777,0.181c0.097,0.023,0.171,0.142,0.171,0.142c-0.022,0.098-0.119,0.075-0.216,0.053c-0.194-0.046-0.486-0.114-0.8-0.084
		c-0.098-0.023-0.195-0.045-0.218,0.052c0,0,0.075,0.119,0.172,0.142l0.875,0.204c0.218-0.053,0.315-0.03,0.292,0.067
		c0,0-0.12,0.075-0.314,0.03c-0.748,0.133-1.332-0.002-2.064-0.378c-0.366-0.188-0.567-0.645-0.545-0.742
		C13.027,5.6,13.29,5.354,13.701,5.347 M12.865,4.538c0,0,0.075,0.12,0.172,0.143l0.366,0.187l0.194,0.045
		c-0.022,0.097-0.119,0.075-0.337,0.127c-0.314,0.029-0.897-0.106-1.166-0.271c-0.343-0.285-0.493-0.525-0.47-0.622
		c0,0,0.24-0.149,0.554-0.179c0.411-0.006,0.897,0.107,1.24,0.392l0.172,0.142c-0.022,0.097-0.119,0.074-0.216,0.051l-0.292-0.067
		C12.985,4.462,12.865,4.538,12.865,4.538 M34.23,10.022c0.068-0.291,0.33-0.537,0.667-0.664c0.052,0.217,0.156,0.651,0.162,1.063
		c4.181,1.72,7.905,3.76,12.538,7.697c-0.03,0.032-0.064,0.064-0.104,0.099c-0.05,0.037-0.194,0.141-0.335,0.219
		c-2.974-2.476-7.373-5.211-12.285-7.648c-0.217,0.051-0.479,0.298-0.816,0.424C34.026,10.897,34.042,10.389,34.23,10.022
		 M47.187,18.73c0.212-0.099,0.448-0.277,0.477-0.298c0.159-0.131,0.251-0.259,0.296-0.334c0.279-0.027,0.448,0.201,0.533,0.364
		l-0.002,0.001c-0.157,0.068-0.264,0.153-0.4,0.264l-0.041,0.033c-0.148,0.119-0.26,0.315-0.318,0.436
		C47.367,19.162,47.234,18.903,47.187,18.73 M47.991,19.29c0.052-0.102,0.136-0.238,0.23-0.315l0.04-0.033
		c0.124-0.1,0.215-0.172,0.339-0.226c0.009-0.004,0.02-0.008,0.029-0.011c0.167,0.087,1.21,0.643,1.69,1.048
		c0.235,0.198,0.903,1.008,1.426,1.668c-0.517-0.399-1.309-1-1.461-1.046c-0.113-0.032-0.404-0.129-0.47-0.072
		c-0.034,0.028,1.352,0.794,1.992,1.811c0.009,0.016,0.025,0.026,0.041,0.039c-0.655-0.304-1.189-0.443-1.57-0.542
		c-0.177-0.046-0.317-0.082-0.414-0.121c-0.294-0.117-0.581-0.444-0.833-0.732l-0.141-0.16c-0.214-0.238-0.451-0.716-0.543-0.91
		c-0.042-0.089-0.125-0.198-0.196-0.259L47.991,19.29z M0.736,3.354l7.827,1.618c0.778,0.18,1.069,0.248,1.122,0.466
		C9.662,5.533,9.52,5.706,8.719,5.623L2.013,4.47C1.601,4.478,1.384,4.529,1.362,4.626c0.074,0.119,0.344,0.285,0.657,0.255
		l7.313,1.19c1.601,0.167,2.475,0.371,2.43,0.565c0.052,0.218-0.502,0.396-1.714,0.319l-7.552-1.04
		c-0.314,0.029-0.434,0.103-0.456,0.2C2.017,6.212,2.286,6.378,2.697,6.372l7.455,1.018c0.92,0.009,1.361,0.316,3.401,0.792
		l-0.022,0.097L9.103,8.375C8.692,8.381,8.355,8.508,8.429,8.627C8.407,8.725,8.601,8.771,9.11,8.787l4.981-0.275
		c0.92,0.01,2.326,0.132,4.756,0.697l-0.023,0.097l-7.068-0.006c-0.411,0.007-0.553,0.179-0.576,0.276
		c-0.023,0.097,0.269,0.165,0.583,0.136l7.599-0.076c0.823-0.013,2.497,0.275,3.47,0.5l-0.023,0.098l-6.507,0.227
		c-0.532,0.081-0.771,0.23-0.696,0.349c0,0,0.268,0.166,0.799,0.085l7.061-0.406c1.04-0.064,3.321,0.261,4.779,0.6l-0.023,0.097
		l-6.387,0.152c-0.411,0.008-0.652,0.156-0.577,0.277c-0.023,0.096,0.486,0.112,1.091,0.151c0.532-0.081,8.273-0.328,9.096-0.342
		c0.726-0.036,1.668-0.124,2.267-0.496c0.029,0.313,0.059,0.628,0.23,0.77c0.263-0.245,0.6-0.372,1.034-0.476
		c4.076,2.142,7.497,3.868,11.922,7.481c0.045,0.271,0.26,0.705,0.802,0.762l0.242,0.208c0.037,0.03,0.092,0.104,0.114,0.151
		c0.121,0.257,0.361,0.728,0.595,0.988l0.138,0.155c0.276,0.316,0.59,0.675,0.956,0.82c0.116,0.046,0.265,0.085,0.452,0.134
		c0.47,0.121,1.18,0.307,2.054,0.8c0.074,0.046,0.206,0.13,0.313,0.093c0.026-0.01,0.052-0.027,0.075-0.053
		c0.022-0.028,0.034-0.058,0.04-0.086c0.02-0.003,0.042-0.011,0.062-0.023c0.039-0.022,0.124-0.095,0.067-0.263
		c-0.028-0.086-0.063-0.165-0.104-0.232c-0.118-0.205-1.754-2.292-2.179-2.65c-0.516-0.435-1.586-1.002-1.753-1.09
		c-0.116-0.271-0.403-0.649-0.866-0.589c-4.699-3.871-8.771-6.111-12.467-7.729c-0.126-0.336-0.185-0.965-0.191-1.376
		c-0.337,0.127-0.816,0.425-1.101,0.768c-0.134-0.748-1.216-1.82-2.165-2.143c-0.852-0.301-2.265-0.835-3.071-1.329l-4.005-2.163
		l-0.486-0.113c-0.023,0.098,0.052,0.218,0.223,0.36l3.725,2.045l-0.023,0.097c-0.594-0.087-1.349-0.365-2.104-0.643L19.929,2.8
		c-0.658-0.255-0.95-0.323-0.972-0.226c-0.12,0.075,0.149,0.24,0.613,0.45l6.239,2.682l-0.023,0.097
		c-1.359-0.317-3.864-1.002-4.836-1.228l-6.846-2.721c-0.463-0.21-0.778-0.18-0.897-0.106c-0.023,0.097,0.246,0.262,0.709,0.473
		l5.639,2.183l-0.022,0.097c-1.589-0.216-4.408-0.873-5.432-1.315L3.853,0.084C3.465-0.006,3.054,0,3.054,0
		C3.031,0.097,3.3,0.261,3.568,0.426l9.105,2.734c0.389,0.091,0.635,0.353,0.59,0.548c-0.143,0.171-0.651,0.155-1.6-0.168
		L2.124,0.912C1.638,0.797,1.421,0.85,1.398,0.946c-0.022,0.097,0.15,0.24,0.539,0.33l8.469,2.381
		c0.486,0.114,0.755,0.278,0.732,0.375c-0.045,0.195-0.36,0.225-1.04,0.066L0.88,1.851C0.589,1.782,0.372,1.835,0.327,2.029
		C0.304,2.126,0.499,2.171,0.888,2.261l8.148,2C9.619,4.396,9.791,4.54,9.769,4.636C9.746,4.733,9.528,4.786,9.14,4.694L0.631,2.919
		C0.145,2.807,0.026,2.88,0.003,2.979C-0.041,3.172,0.348,3.262,0.736,3.354"/>
	<path clip-path="url(#SVGID_2_)" d="M32.788,19.196c-0.059-0.12-0.171-0.316-0.319-0.437l-0.042-0.033
		c-0.135-0.108-0.242-0.194-0.4-0.263l-0.001-0.001c0.085-0.164,0.254-0.393,0.533-0.364c0.045,0.074,0.137,0.203,0.296,0.334
		c0.028,0.021,0.265,0.199,0.477,0.297C33.283,18.902,33.151,19.163,32.788,19.196 M32.367,19.428
		c-0.072,0.061-0.154,0.17-0.196,0.259c-0.092,0.194-0.33,0.671-0.544,0.91l-0.14,0.159c-0.253,0.289-0.539,0.616-0.834,0.732
		c-0.097,0.039-0.236,0.076-0.414,0.122c-0.381,0.1-0.914,0.238-1.569,0.542c0.015-0.013,0.032-0.023,0.041-0.039
		c0.64-1.017,2.025-1.782,1.992-1.812c-0.066-0.055-0.357,0.04-0.47,0.073c-0.152,0.045-0.944,0.646-1.461,1.046
		c0.522-0.66,1.19-1.47,1.425-1.668c0.48-0.406,1.523-0.961,1.691-1.048c0.009,0.004,0.021,0.007,0.03,0.011
		c0.124,0.054,0.213,0.125,0.337,0.225l0.042,0.034c0.094,0.076,0.177,0.213,0.229,0.315L32.367,19.428z M39.604,14.091
		c-2.427,1.464-4.563,2.946-6.244,4.344c-0.14-0.077-0.284-0.181-0.334-0.218c-0.041-0.034-0.075-0.066-0.105-0.098
		c2.153-1.83,4.109-3.249,6.006-4.417c-0.113-0.064-0.228-0.127-0.345-0.19c-1.88,1.172-3.863,2.579-5.973,4.317
		c-0.463-0.062-0.75,0.316-0.865,0.589c-0.167,0.087-1.239,0.653-1.754,1.089c-0.424,0.357-2.06,2.445-2.179,2.65
		c-0.039,0.067-0.074,0.146-0.103,0.231c-0.056,0.168,0.029,0.241,0.067,0.264c0.022,0.013,0.043,0.021,0.064,0.022
		c0.004,0.03,0.017,0.058,0.04,0.086c0.023,0.027,0.048,0.044,0.074,0.053c0.108,0.037,0.24-0.046,0.314-0.092
		c0.874-0.493,1.583-0.678,2.053-0.8c0.188-0.049,0.337-0.088,0.453-0.133c0.366-0.146,0.68-0.505,0.956-0.821l0.138-0.156
		c0.233-0.26,0.472-0.729,0.595-0.986c0.022-0.048,0.076-0.122,0.113-0.152l0.243-0.208c0.541-0.057,0.757-0.49,0.801-0.762
		c2.296-1.874,4.32-3.239,6.306-4.42C39.824,14.223,39.717,14.158,39.604,14.091"/>
	<path clip-path="url(#SVGID_2_)" d="M70.102,5.812c-0.658,0.255-1.339,0.413-2.087,0.28c-0.194,0.045-0.218-0.052-0.218-0.052
		l0.195-0.045l1.07-0.249c0.096-0.023,0.171-0.142,0.171-0.142l-0.12-0.075c-0.292,0.068-0.486,0.114-0.703,0.062l-0.097,0.021
		c-0.023-0.097,0.074-0.119,0.074-0.119c0.292-0.068,0.583-0.136,0.755-0.279l0.098-0.022c-0.022-0.096-0.022-0.096-0.121-0.074
		c-0.193,0.045-0.605,0.038-0.776,0.181c-0.099,0.023-0.218-0.053-0.218-0.053s0.172-0.141,0.27-0.164
		c0.561-0.233,1.046-0.346,1.72-0.094c0.314,0.03,0.576,0.277,0.576,0.277C70.713,5.361,70.563,5.602,70.102,5.812 M68.525,7.407
		c0.022,0.098-0.463,0.211-0.754,0.278c-0.703,0.062-1.451-0.071-2.269-0.496c-0.12-0.074-0.238-0.149-0.238-0.149
		c0.073-0.12,0.193-0.045,0.313,0.029c0.435,0.104,0.846,0.111,1.279,0.214l0.291-0.067l-0.119-0.075L66.572,6.94
		c-0.119-0.075-0.119-0.075-0.142-0.172c0,0,0.097-0.022,0.217,0.052l0.725,0.036l0.098-0.023c0.097-0.022,0.074-0.12-0.022-0.097
		c-0.119-0.074-0.217-0.052-0.434-0.104c-0.098,0.023-0.12-0.074-0.12-0.074l0.292-0.068c0.313,0.029,0.748,0.133,1.13,0.454
		C68.457,7.116,68.622,7.385,68.525,7.407 M64.249,8.403c-1.092,0.152-1.787-0.199-2.41-0.668c-0.118-0.075-0.142-0.172-0.142-0.172
		s0.097-0.023,0.217,0.051l1.399,0.289c0.061,0.038,0.218,0.052,0.218,0.052s-0.023-0.097-0.143-0.171l-0.479-0.298
		c-0.098,0.023-0.121-0.075-0.121-0.075c-0.021-0.097,0.099-0.022,0.195-0.045c0.217,0.051,0.554,0.178,0.749,0.132l0.193-0.044
		l-0.119-0.075c0,0-0.239-0.149-0.457-0.201L63.23,7.104l0.195-0.045c0.529,0.081,1.061,0.162,1.442,0.483
		c0.263,0.246,0.33,0.537,0.354,0.635C65.124,8.2,64.855,8.364,64.249,8.403 M62.187,8.78c0.021,0.097-0.366,0.189-0.755,0.279
		c-0.801,0.084-1.788-0.199-2.365-0.474c-0.022-0.097-0.143-0.172-0.143-0.172c0.098-0.022,0.195-0.045,0.314,0.029l1.16,0.14
		c0.119,0.074,0.216,0.052,0.291-0.068L60.57,8.44c-0.12-0.075-0.36-0.224-0.577-0.276l-0.12-0.075l0.195-0.045
		c0.313,0.029,0.53,0.082,0.748,0.134c0.12,0.074,0.12,0.074,0.195-0.046c0,0-0.099,0.023-0.121-0.074
		c-0.119-0.075-0.479-0.298-0.576-0.276c-0.12-0.074-0.217-0.052-0.143-0.171l0.098-0.024c0.628,0.06,1.182,0.238,1.587,0.655
		C62.118,8.489,62.283,8.758,62.187,8.78 M59.367,9.437c0.023,0.098-0.269,0.166-0.777,0.181c-0.897,0.107-1.594-0.243-2.095-0.638
		c-0.121-0.075-0.143-0.172-0.143-0.172l0.193-0.046l0.674,0.253l0.195-0.045c-0.023-0.097-0.023-0.097-0.143-0.171
		c-0.12-0.075-0.144-0.172-0.239-0.149c-0.121-0.075-0.144-0.173-0.144-0.173l0.098-0.022l0.554,0.178l0.194-0.045
		c0,0-0.12-0.074-0.142-0.171c-0.12-0.076-0.24-0.15-0.457-0.201c-0.098,0.022-0.218-0.053-0.218-0.053
		c0.075-0.119,0.194-0.045,0.389-0.09c0.531,0.082,1.303,0.312,1.708,0.73C59.301,9.146,59.442,9.317,59.367,9.437 M56.96,10.099
		c0.023,0.098-0.365,0.188-0.776,0.181c-0.92,0.01-1.812-0.296-2.433-0.765c-0.12-0.075-0.218-0.052-0.239-0.149
		c0.097-0.023,0.097-0.023,0.313,0.029l0.89,0.304c0,0,0.12,0.075,0.099-0.022c0.097-0.023,0.097-0.023-0.023-0.096
		c-0.022-0.098-0.262-0.248-0.381-0.322c-0.098,0.023-0.12-0.074-0.12-0.074l0.194-0.046c0.217,0.052,0.456,0.202,0.651,0.156
		c0.119,0.075,0.217,0.052,0.217,0.052c-0.023-0.097-0.023-0.097-0.144-0.172c-0.12-0.074-0.457-0.201-0.554-0.178
		c0,0-0.119-0.075-0.022-0.098l0.194-0.045c0.629,0.059,1.279,0.216,1.782,0.61C56.87,9.711,57.058,10.077,56.96,10.099
		 M52.766,10.564c-0.51,0.016-1.303-0.312-1.759-0.513l-0.143-0.172c-0.023-0.097,0.075-0.12,0.097-0.022l1.063,0.162
		c0.021,0.097,0.119,0.075,0.119,0.075l-0.022-0.097c-0.24-0.149-0.456-0.202-0.695-0.351c-0.099,0.022-0.219-0.052-0.219-0.052
		l0.195-0.045c0.098-0.023,0.628,0.058,1.062,0.163l0.097-0.023l-0.022-0.097c-0.097,0.023-0.457-0.201-0.554-0.179
		c-0.12-0.074-0.12-0.074-0.142-0.171c0,0,0.118,0.074,0.313,0.029c0.314,0.029,0.868,0.208,1.228,0.431
		c0.404,0.419,0.449,0.613,0.449,0.613C53.76,10.436,53.394,10.624,52.766,10.564 M50.896,10.897c0.021,0.096-0.27,0.164-0.778,0.18
		c-0.508,0.016-1.039-0.065-1.593-0.244c-0.217-0.051-0.24-0.149-0.24-0.149l0.195-0.045l0.823,0.014l0.096-0.023
		c0,0-0.022-0.097-0.119-0.075c-0.023-0.097-0.142-0.171-0.239-0.148l-0.046-0.195c0,0,0.098-0.023,0.12,0.074
		c0.097-0.022,0.411,0.008,0.628,0.059c0.12,0.075,0.12,0.075,0.097-0.022c-0.118-0.075-0.142-0.172-0.262-0.247
		c-0.097,0.023-0.12-0.075-0.12-0.075l0.195-0.045c0.336,0.127,0.673,0.253,1.033,0.477C50.828,10.604,50.972,10.776,50.896,10.897
		 M47.133,10.133l0.194-0.045l0.68-0.159l0.292-0.068c-0.022-0.097-0.119-0.074-0.218-0.051c-0.216-0.053-0.507,0.015-0.702,0.061
		c-0.193,0.045-0.217-0.052-0.217-0.052s0.075-0.12,0.172-0.142l0.657-0.256c0.098-0.023,0.207-0.141,0.207-0.141l-0.199,0.027
		c-0.153-0.002-0.462,0.079-0.711,0.175c-0.19,0.112-0.193,0.045-0.193,0.045s-0.022-0.097,0.171-0.142
		c0.636-0.353,1.413-0.535,2.019-0.572c0.411,0.007,0.868,0.208,0.89,0.305c0.047,0.194-0.199,0.456-0.565,0.644
		c-0.83,0.398-1.63,0.482-2.236,0.521C47.155,10.23,47.155,10.23,47.133,10.133 M47.25,8.877c0.545-0.742,0.963-1.147,1.74-1.328
		c0.463-0.21,0.778-0.181,0.8-0.083c0.12,0.074,0.068,0.291-0.155,0.65c-0.149,0.24-0.516,0.427-1.076,0.661l-0.291,0.067
		l0.073-0.119c0.195-0.046,0.27-0.166,0.367-0.188c-0.012-0.048,0.007-0.079,0.037-0.111l-0.157,0.036
		c-0.193,0.045-0.44,0.308-0.635,0.353c0,0-0.075,0.12-0.097,0.022L47.833,8.74l0.418-0.404c0,0,0.098-0.023-0.022-0.097
		l-0.074,0.119C47.96,8.404,47.541,8.81,47.37,8.95l-0.172,0.143C47.176,8.997,47.176,8.997,47.25,8.877 M50.202,7.472
		c0.224-0.359,0.566-0.644,1.053-0.757c0.464-0.211,0.777-0.182,0.8-0.084c0.098-0.023,0.067,0.292-0.155,0.651
		c-0.321,0.382-0.762,0.69-1.345,0.825L50.36,8.152c0,0,0.074-0.119,0.172-0.142c0.074-0.12,0.171-0.142,0.343-0.285l-0.022-0.097
		l-0.098,0.023c0,0-0.269,0.164-0.365,0.187c-0.074,0.12-0.172,0.143-0.172,0.143c-0.022-0.098-0.022-0.098,0.074-0.12l0.418-0.405
		l0.074-0.12c-0.022-0.097-0.119-0.074-0.097,0.023c-0.098,0.023-0.27,0.165-0.343,0.285c-0.12,0.028-0.195,0.084-0.212,0.118
		l-0.055-0.034C50.106,7.695,50.148,7.56,50.202,7.472 M52.834,7.781c0.315,0.029,0.674,0.253,0.697,0.351
		c0.022,0.096-0.224,0.359-0.59,0.547c-0.635,0.352-1.218,0.488-2.258,0.422c-0.098,0.023-0.218-0.051-0.218-0.051l0.194-0.045
		l0.683-0.159c0.096-0.022,0.096-0.022,0.073-0.119L51.318,8.75c-0.314-0.029-0.508,0.016-0.703,0.061
		c-0.098,0.023-0.194,0.045-0.217-0.052l0.195-0.045l0.656-0.255c0.099-0.024,0.075-0.12,0.075-0.12s-0.022-0.098-0.12-0.075
		c-0.194,0.045-0.366,0.187-0.561,0.233c-0.194,0.045-0.291,0.067-0.314-0.03l0.271-0.165C51.332,7.926,52.109,7.747,52.834,7.781
		 M52.386,7.169c0.491-0.524,0.933-0.833,1.808-1.036c0.389-0.09,0.703-0.061,0.8-0.084c0.022,0.098-0.006,0.412-0.156,0.652
		c-0.417,0.404-0.956,0.734-1.419,0.945c-0.193,0.045-0.193,0.045-0.218-0.053c0,0,0.098-0.022,0.076-0.12
		c0.194-0.045,0.365-0.187,0.537-0.329l-0.022-0.098l-0.098,0.023c-0.291,0.068-0.463,0.21-0.634,0.353L52.768,7.49
		c0,0,0.075-0.12,0.148-0.24l0.393-0.296l0.123-0.132c-0.022-0.096-0.119-0.074-0.194,0.046c-0.292,0.068-0.561,0.233-0.807,0.495
		c-0.099,0.022-0.173,0.143-0.194,0.046C52.236,7.409,52.213,7.312,52.386,7.169 M54.862,8.129l-0.098,0.023
		c-0.313-0.03-0.509,0.016-0.605,0.038c-0.097,0.023-0.217-0.052-0.217-0.052s0.075-0.12,0.172-0.142l0.632-0.147
		c0.049-0.012,0.086-0.071,0.074-0.12c-0.059-0.038-0.119-0.074-0.168-0.063l-0.68,0.158c-0.087,0.02-0.188-0.033-0.209-0.047
		c0.011-0.02,0.04-0.084,0.163-0.147c0.657-0.256,1.315-0.512,2.16-0.4c0.423,0.054,0.641,0.106,0.697,0.349
		c0.033,0.146-0.007,0.412-0.471,0.622c-0.732,0.376-1.629,0.482-2.355,0.446c-0.193,0.044-0.217-0.052-0.217-0.052
		s0.075-0.12,0.172-0.143l0.875-0.203C54.788,8.25,54.886,8.227,54.862,8.129 M55.473,6.348c0.612-0.45,1.248-0.803,1.928-0.961
		c0.486-0.114,0.703-0.062,0.725,0.035c0.12,0.076,0.069,0.292-0.253,0.674c-0.223,0.36-0.687,0.57-1.561,0.773L56.02,6.938
		c-0.022-0.098,0.075-0.12,0.172-0.143c0.195-0.046,0.366-0.188,0.538-0.33l-0.023-0.097L56.609,6.39
		c-0.195,0.046-0.463,0.211-0.561,0.233c-0.074,0.12-0.172,0.142-0.194,0.045c0,0,0.097-0.022,0.075-0.119l0.439-0.308
		c0.097-0.022,0.075-0.12,0.075-0.12L56.25,6.167c-0.193,0.045-0.464,0.21-0.635,0.352c-0.173,0.143-0.269,0.166-0.269,0.166
		C55.323,6.588,55.323,6.588,55.473,6.348 M58.481,7.389l-0.097,0.023c-0.219-0.052-0.412-0.007-0.606,0.038
		c-0.195,0.045-0.217-0.052-0.217-0.052s0.075-0.119,0.172-0.142l0.68-0.158c0.098-0.023,0.074-0.121,0.074-0.121l-0.12-0.074
		l-0.679,0.158c-0.195,0.046-0.293,0.069-0.315-0.029c0,0,0.099-0.022,0.27-0.165c0.561-0.233,1.338-0.414,1.966-0.355
		c0.411,0.006,0.869,0.208,0.891,0.305c0.022,0.097-0.177,0.553-0.642,0.764c-0.754,0.278-1.652,0.385-2.28,0.326
		c-0.12-0.074-0.217-0.052-0.217-0.052c-0.023-0.097,0.074-0.12,0.269-0.165c0.194-0.046,0.509-0.016,0.777-0.181
		C58.503,7.486,58.503,7.486,58.481,7.389 M58.754,5.482c0.516-0.428,1.465-0.752,1.974-0.767c0.411,0.006,0.554,0.179,0.554,0.179
		c0.023,0.097-0.03,0.314-0.276,0.576c-0.417,0.404-1.27,0.705-1.756,0.818c-0.098,0.023-0.217-0.052-0.217-0.052l0.074-0.119
		c0.292-0.068,0.584-0.136,0.658-0.256c0.097-0.023,0.074-0.12,0.074-0.12l-0.193,0.046l-0.487,0.112l-0.194,0.045
		c-0.022-0.096,0.063-0.167,0.149-0.239l0.463-0.21l0.075-0.12c-0.022-0.097-0.12-0.075-0.217-0.052
		c-0.098,0.023-0.463,0.211-0.636,0.353c-0.097,0.022-0.193,0.045-0.217-0.052C58.582,5.625,58.656,5.504,58.754,5.482
		 M61.887,4.855c0.418-0.405,0.904-0.518,1.39-0.631c0.39-0.09,0.726,0.036,0.726,0.036c0.022,0.097-0.007,0.411-0.253,0.673
		c-0.344,0.285-0.784,0.592-1.39,0.631c-0.097,0.023-0.195,0.045-0.217-0.051l0.097-0.023c0.195-0.045,0.463-0.211,0.562-0.233
		c0.074-0.12,0.172-0.142,0.172-0.142c-0.023-0.097-0.12-0.075-0.12-0.075c-0.099,0.023-0.464,0.21-0.562,0.233l-0.12-0.075
		c0,0-0.011-0.049,0.075-0.12l0.28-0.116l0.209-0.203l-0.302,0.02c-0.099,0.022-0.329,0.127-0.524,0.173
		c-0.074,0.12-0.171,0.143-0.171,0.143C61.715,4.998,61.812,4.974,61.887,4.855 M64.118,6.077c0.022,0.098-0.104,0.434-0.642,0.764
		c-0.562,0.233-1.437,0.436-2.161,0.401c-0.217-0.053-0.24-0.149-0.24-0.149l0.195-0.046c0.193-0.045,0.702-0.061,0.875-0.203
		c0.096-0.023,0.096-0.023,0.074-0.12c0,0-0.098,0.023-0.12-0.075c-0.194,0.045-0.485,0.114-0.605,0.039l-0.097,0.023
		c-0.023-0.098-0.023-0.098,0.073-0.12l0.584-0.136c0.073-0.12,0.172-0.143,0.172-0.143c-0.023-0.097-0.023-0.097-0.119-0.074
		c-0.413-0.007-0.704,0.06-0.899,0.106c-0.097,0.023-0.193,0.045-0.217-0.052c-0.097,0.023,0.172-0.141,0.271-0.164
		c0.634-0.354,1.411-0.535,2.041-0.476C63.833,5.734,64.096,5.98,64.118,6.077 M64.385,4.582c0.44-0.308,0.979-0.638,1.562-0.774
		c0.388-0.09,0.617,0.011,0.651,0.156c0.021,0.098,0.066,0.292-0.156,0.651c-0.224,0.36-0.807,0.496-1.271,0.706
		c-0.098,0.022-0.194,0.045-0.217-0.053l0.097-0.022c0.269-0.165,0.464-0.21,0.537-0.33c0.099-0.023,0.174-0.143,0.075-0.12
		L65.544,4.72C65.351,4.766,64.983,4.953,64.789,5l-0.194,0.045c-0.023-0.097,0.123-0.131,0.209-0.203l0.478-0.367
		c0.086-0.071,0.173-0.142,0.075-0.12L65.26,4.377c-0.292,0.068-0.465,0.211-0.756,0.278c-0.073,0.12-0.172,0.143-0.172,0.143
		C64.311,4.7,64.311,4.7,64.385,4.582 M67.49,5.599c0.022,0.097-0.179,0.554-0.545,0.742c-0.732,0.376-1.315,0.512-2.063,0.378
		c-0.194,0.046-0.314-0.03-0.314-0.03c-0.023-0.097,0.074-0.12,0.292-0.067l0.875-0.204c0.097-0.022,0.172-0.142,0.172-0.142
		c-0.023-0.097-0.12-0.075-0.217-0.052c-0.315-0.03-0.607,0.038-0.801,0.084c-0.098,0.022-0.194,0.045-0.218-0.053
		c0,0,0.075-0.119,0.173-0.142l0.776-0.181l0.076-0.12c-0.024-0.097-0.024-0.097-0.12-0.074l-0.681,0.158
		c-0.172,0.143-0.291,0.068-0.291,0.068s0.074-0.12,0.343-0.285c0.755-0.278,1.144-0.369,1.869-0.333
		C67.228,5.354,67.49,5.599,67.49,5.599 M67.436,4.485l-0.291,0.067c-0.099,0.023-0.194,0.046-0.217-0.051L67.1,4.359
		c0.343-0.285,0.828-0.398,1.24-0.392c0.313,0.03,0.554,0.179,0.554,0.179c0.022,0.097-0.127,0.337-0.471,0.622
		c-0.269,0.165-0.852,0.3-1.166,0.271c-0.217-0.052-0.314-0.03-0.336-0.127l0.193-0.045L67.48,4.68
		c0.097-0.023,0.172-0.143,0.172-0.143S67.532,4.462,67.436,4.485 M80.515,2.979c-0.023-0.098-0.143-0.172-0.628-0.059l-8.51,1.775
		c-0.388,0.092-0.605,0.039-0.628-0.058c-0.021-0.097,0.149-0.24,0.732-0.375l8.147-2c0.39-0.09,0.584-0.135,0.562-0.232
		c-0.045-0.194-0.262-0.247-0.553-0.179l-9.219,2.248c-0.68,0.159-0.993,0.129-1.04-0.065c-0.021-0.098,0.246-0.262,0.732-0.376
		l8.469-2.381c0.391-0.09,0.562-0.233,0.539-0.33s-0.24-0.149-0.726-0.035l-9.539,2.629c-0.949,0.323-1.457,0.339-1.6,0.168
		c-0.046-0.195,0.201-0.457,0.59-0.548l9.104-2.734c0.27-0.165,0.537-0.329,0.515-0.426c0,0-0.411-0.007-0.8,0.084L66.416,3.187
		c-1.023,0.443-3.843,1.099-5.432,1.315l-0.022-0.097l5.64-2.183c0.463-0.21,0.731-0.376,0.709-0.473
		c-0.119-0.074-0.434-0.104-0.897,0.106l-6.845,2.721c-0.972,0.226-3.478,0.911-4.837,1.228l-0.023-0.097l6.24-2.682
		c0.463-0.21,0.732-0.375,0.612-0.45c-0.022-0.097-0.314-0.029-0.973,0.226l-6.313,2.802c-0.754,0.278-1.51,0.556-2.104,0.643
		l-0.021-0.097l3.724-2.045c0.171-0.142,0.246-0.262,0.225-0.36l-0.487,0.113L51.605,6.02c-0.808,0.494-2.22,1.028-3.072,1.329
		c-0.949,0.323-2.031,1.395-2.164,2.143c-0.285-0.343-0.765-0.641-1.102-0.768c-0.006,0.411-0.065,1.04-0.191,1.376
		c-1.435,0.628-2.927,1.353-4.49,2.227c0.114,0.061,0.241,0.127,0.375,0.202c1.483-0.798,2.959-1.474,4.497-2.107
		c0.006-0.412,0.111-0.846,0.162-1.063c0.337,0.127,0.6,0.373,0.667,0.664c0.188,0.367,0.204,0.875,0.175,1.189
		c-0.337-0.126-0.6-0.373-0.816-0.424c-1.393,0.691-2.741,1.406-4.03,2.133c0.106,0.068,0.214,0.14,0.324,0.216
		c1.171-0.644,2.355-1.261,3.603-1.915c0.434,0.104,0.771,0.231,1.033,0.476c0.171-0.142,0.201-0.457,0.23-0.77
		c0.599,0.372,1.541,0.46,2.267,0.496c0.823,0.014,8.564,0.261,9.096,0.342c0.606-0.039,1.114-0.054,1.092-0.151
		c0.074-0.121-0.165-0.269-0.577-0.277l-6.388-0.152l-0.022-0.097c1.458-0.339,3.739-0.664,4.779-0.6l7.061,0.406
		c0.531,0.081,0.799-0.085,0.799-0.085c0.075-0.119-0.164-0.268-0.695-0.349l-6.507-0.227l-0.023-0.097
		c0.973-0.226,2.647-0.514,3.47-0.5l7.599,0.075c0.314,0.029,0.606-0.039,0.583-0.136c-0.021-0.097-0.165-0.269-0.575-0.276
		l-7.068,0.006l-0.022-0.097c2.43-0.565,3.835-0.687,4.756-0.697l4.981,0.275c0.508-0.016,0.703-0.062,0.68-0.159
		c0.074-0.119-0.263-0.246-0.674-0.253l-4.428-0.096l-0.022-0.097c2.04-0.475,2.481-0.783,3.401-0.792l7.455-1.018
		c0.411,0.007,0.68-0.159,0.658-0.256c-0.023-0.097-0.144-0.171-0.457-0.2l-7.552,1.04c-1.213,0.077-1.766-0.101-1.714-0.319
		c-0.045-0.194,0.828-0.398,2.43-0.565l7.312-1.19c0.313,0.03,0.583-0.136,0.657-0.255c-0.022-0.097-0.238-0.149-0.651-0.156
		l-6.706,1.152c-0.801,0.083-0.942-0.089-0.966-0.185c0.054-0.218,0.345-0.286,1.122-0.466l7.828-1.618
		C80.169,3.262,80.56,3.172,80.515,2.979"/>
</g>
</svg>
