<?xml version="1.0" encoding="utf-8"?>
<!-- Generator: Adobe Illustrator 16.0.0, SVG Export Plug-In . SVG Version: 6.00 Build 0)  -->
<!DOCTYPE svg PUBLIC "-//W3C//DTD SVG 1.1//EN" "http://www.w3.org/Graphics/SVG/1.1/DTD/svg11.dtd">
<svg version="1.1" id="Layer_1" xmlns="http://www.w3.org/2000/svg" xmlns:xlink="http://www.w3.org/1999/xlink" x="0px" y="0px"
	 width="100px" height="100px" viewBox="0 0 100 100" enable-background="new 0 0 100 100" xml:space="preserve">
<g>
	<defs>
		<rect id="SVGID_1_" width="100" height="100"/>
	</defs>
	<clipPath id="SVGID_2_">
		<use xlink:href="#SVGID_1_"  overflow="visible"/>
	</clipPath>
	<path clip-path="url(#SVGID_2_)" d="M38.172,49.005c-1.824,0.864-3.31,1.804-4.464,2.812c-2.64,2.267-3.963,5.135-3.963,8.604
		c0,2.695,0.857,4.879,2.564,6.537c1.697,1.659,3.918,2.488,6.659,2.488c4.074,0,7.367-1.651,9.858-4.982
		c-3.213-4.146-5.732-7.609-7.561-10.408C40.121,52.28,39.088,50.588,38.172,49.005"/>
	<path clip-path="url(#SVGID_2_)" d="M48.183,33.735c0-1.534-0.474-2.768-1.41-3.701c-0.926-0.95-2.19-1.417-3.776-1.417
		c-1.486,0-2.688,0.432-3.597,1.268c-0.913,0.833-1.365,1.953-1.365,3.355c0,1.811,1.054,4.817,3.166,8.995
		C45.854,40.028,48.183,37.194,48.183,33.735"/>
	<path clip-path="url(#SVGID_2_)" d="M76.842,52.709c-1.68,1.756-3.767,2.626-6.262,2.626c-1.831,0-3.323-0.456-4.471-1.368
		s-1.728-2.114-1.728-3.601c0-2.298,1.016-3.452,3.026-3.452c1.734,0,2.599,0.792,2.599,2.377c0,0.19-0.131,0.574-0.366,1.154
		c0.678,0.094,1.058,0.143,1.147,0.143c0.912,0,1.707-0.384,2.377-1.155c0.678-0.764,1.016-1.7,1.016-2.809
		c0-1.396-0.449-2.512-1.34-3.348c-0.885-0.836-2.102-1.258-3.629-1.258c-2.502,0-4.533,1.372-6.13,4.115
		c-1.285,2.208-2.875,5.899-4.747,11.041c-1.003,2.799-1.949,4.962-2.807,6.503c2.066,2.308,3.787,3.85,5.184,4.623
		c1.389,0.774,3.145,1.147,5.259,1.147c0.429,0,1.071-0.056,1.9-0.18c0.844-0.11,1.479-0.173,1.922-0.173
		c1.962,0,2.943,0.892,2.943,2.668c0,1.672-1.016,2.515-3.02,2.515h-1.154h-2.018h-3.815c-3.31,0-6.842-1.969-10.587-5.908
		c-1.293,1.485-2.398,2.55-3.317,3.172c-2.975,2.066-6.399,3.089-10.291,3.089c-4.367,0-7.947-1.312-10.729-3.952
		c-2.789-2.641-4.181-6.055-4.181-10.229c0-5.618,2.357-9.91,7.063-12.885c1.583-1.013,3.041-1.845,4.392-2.519l0.864-0.432
		c-2.547-4.613-3.822-8.313-3.822-11.088c0-2.889,0.999-5.214,2.989-6.994c1.994-1.769,4.627-2.661,7.889-2.661
		c3.403,0,6.092,0.843,8.058,2.522c1.97,1.683,2.95,3.96,2.95,6.842c0,5.328-3.441,9.765-10.366,13.317l0.794,1.296
		c1.296,2.16,3.601,5.601,6.911,10.293l0.795,1.017l0.436-1.224l2.806-7.415c3.352-8.843,8.134-13.252,14.333-13.252
		c2.875,0,5.204,0.823,6.979,2.484c1.776,1.655,2.661,3.822,2.661,6.51C79.357,48.812,78.528,50.954,76.842,52.709 M50,0.003
		C22.384,0.003,0,22.384,0,50c0,27.608,22.384,50,50,50c27.608,0,49.993-22.392,49.993-50C99.993,22.384,77.608,0.003,50,0.003"/>
</g>
</svg>
