<?xml version="1.0" encoding="utf-8"?>
<!-- Generator: Adobe Illustrator 16.0.0, SVG Export Plug-In . SVG Version: 6.00 Build 0)  -->
<!DOCTYPE svg PUBLIC "-//W3C//DTD SVG 1.1//EN" "http://www.w3.org/Graphics/SVG/1.1/DTD/svg11.dtd">
<svg version="1.1" id="Layer_1" xmlns="http://www.w3.org/2000/svg" xmlns:xlink="http://www.w3.org/1999/xlink" x="0px" y="0px"
	 width="82px" height="82px" viewBox="0 0 82 82" enable-background="new 0 0 82 82" xml:space="preserve">
<circle fill="#393B3D" cx="41" cy="41" r="40"/>
<g>
	<path fill="#FFFFFF" d="M41,67c-0.438-0.445-0.883-0.888-1.338-1.332"/>
	<path fill="#FFFFFF" d="M42.34,65.668C41.886,66.112,41.44,66.555,41,67"/>
	<path fill="#FFFFFF" d="M42.34,15h-2.678v50.668C40.117,66.112,40.562,66.555,41,67c0.44-0.445,0.886-0.888,1.34-1.332V15z"/>
	<path fill="#FFFFFF" d="M46.292,58.377c-1.442,1.244-2.76,2.434-3.946,3.554V15H42.34h-2.678h-0.004v46.931
		c-1.186-1.12-2.508-2.31-3.945-3.554l-1.494,2.233c1.927,1.683,3.717,3.371,5.443,5.058C40.117,66.112,40.562,66.555,41,67
		c0.44-0.445,0.886-0.888,1.34-1.332c1.725-1.687,3.516-3.375,5.441-5.058L46.292,58.377z"/>
</g>
</svg>
