<?xml version="1.0" encoding="utf-8"?>
<!-- Generator: Adobe Illustrator 16.0.0, SVG Export Plug-In . SVG Version: 6.00 Build 0)  -->
<!DOCTYPE svg PUBLIC "-//W3C//DTD SVG 1.1//EN" "http://www.w3.org/Graphics/SVG/1.1/DTD/svg11.dtd">
<svg version="1.1" id="Layer_1" xmlns="http://www.w3.org/2000/svg" xmlns:xlink="http://www.w3.org/1999/xlink" x="0px" y="0px"
	 width="53.395px" height="35.894px" viewBox="0 0 53.395 35.894" enable-background="new 0 0 53.395 35.894" xml:space="preserve">
<g>
	<defs>
		<rect id="SVGID_1_" width="53.395" height="35.894"/>
	</defs>
	<clipPath id="SVGID_2_">
		<use xlink:href="#SVGID_1_"  overflow="visible"/>
	</clipPath>
	<path clip-path="url(#SVGID_2_)" d="M1.307,33.337V12.734h11.458v-5.65h-1.307v4.343H0v21.91c0,1.96,1.186,2.7,2.412,2.534
		c0.919-0.124,1.563-0.913,1.518-1.796c-0.035-0.67-0.544-1.214-1.214-1.214c-0.537,0-0.972,0.434-0.972,0.97
		c0,0.221,0.093,0.419,0.241,0.561l-0.003-0.001C1.495,34.391,1.307,33.818,1.307,33.337 M5.074,26.225
		c7.836-8.174,21.008-16.709,34.98-20.921l-3.762-0.014H6.869v1.307h26.208C21.77,10.681,11.514,18.262,6.382,23.103v-9.881H5.074
		V26.225z M0,0v6.597h4.587V5.291h-3.28V1.308h3.767v9.633h1.308V0H0z M53.372,2.413c-0.124,0.918-0.913,1.563-1.797,1.517
		c-0.669-0.035-1.214-0.543-1.214-1.214c0-0.536,0.435-0.971,0.971-0.971c0.222,0,0.419,0.093,0.562,0.241l-0.002-0.003
		c0-0.677-0.814-0.672-1.054-0.675H12.765v3.496h-1.307V0h39.379C52.798,0,53.538,1.186,53.372,2.413"/>
</g>
</svg>
