<?xml version="1.0" encoding="utf-8"?>
<!-- Generator: Adobe Illustrator 16.0.0, SVG Export Plug-In . SVG Version: 6.00 Build 0)  -->
<!DOCTYPE svg PUBLIC "-//W3C//DTD SVG 1.1//EN" "http://www.w3.org/Graphics/SVG/1.1/DTD/svg11.dtd">
<svg version="1.1" id="Layer_1" xmlns="http://www.w3.org/2000/svg" xmlns:xlink="http://www.w3.org/1999/xlink" x="0px" y="0px"
	 width="53.395px" height="35.894px" viewBox="0 0 53.395 35.894" enable-background="new 0 0 53.395 35.894" xml:space="preserve">
<g>
	<defs>
		<rect id="SVGID_1_" width="53.395" height="35.894"/>
	</defs>
	<clipPath id="SVGID_2_">
		<use xlink:href="#SVGID_1_"  overflow="visible"/>
	</clipPath>
	<path clip-path="url(#SVGID_2_)" d="M52.088,33.337c0,0.48-0.188,1.054-0.676,1.054l-0.003,0.001
		c0.147-0.142,0.241-0.34,0.241-0.561c0-0.536-0.436-0.97-0.973-0.97c-0.67,0-1.179,0.544-1.213,1.214
		c-0.045,0.883,0.599,1.672,1.518,1.796c1.226,0.166,2.412-0.574,2.412-2.534v-21.91H41.936V7.084h-1.307v5.65h11.459V33.337
		 M48.32,13.222h-1.309v9.881c-5.131-4.841-15.387-12.422-26.694-16.505h26.208V5.291H17.102L13.34,5.304
		c13.973,4.211,27.145,12.747,34.98,20.921V13.222z M47.012,0v10.94h1.309V1.308h3.768v3.983h-3.281v1.307h4.588V0H47.012z
		 M0.022,2.413C-0.144,1.186,0.597,0,2.557,0h39.379v4.803h-1.307V1.308H2.557C2.317,1.311,1.503,1.306,1.503,1.982L1.501,1.985
		c0.143-0.148,0.34-0.241,0.562-0.241c0.536,0,0.971,0.435,0.971,0.971c0,0.671-0.545,1.179-1.214,1.214
		C0.936,3.976,0.146,3.331,0.022,2.413"/>
</g>
</svg>
