<?xml version="1.0" encoding="utf-8"?>
<!-- Generator: Adobe Illustrator 16.0.0, SVG Export Plug-In . SVG Version: 6.00 Build 0)  -->
<!DOCTYPE svg PUBLIC "-//W3C//DTD SVG 1.1//EN" "http://www.w3.org/Graphics/SVG/1.1/DTD/svg11.dtd">
<svg version="1.1" id="Layer_1" xmlns="http://www.w3.org/2000/svg" xmlns:xlink="http://www.w3.org/1999/xlink" x="0px" y="0px"
	 width="173.334px" height="160.862px" viewBox="0 0 173.334 160.862" enable-background="new 0 0 173.334 160.862"
	 xml:space="preserve">
<g id="Logo">
	<g>
		<path fill="#393B3D" d="M120.518,151.107l-0.592-0.593c0.021,0.357,0.049,0.671,0.082,0.946l0.592,0.591
			C120.568,151.775,120.541,151.463,120.518,151.107z"/>
		<path fill="#393B3D" d="M120.482,150.347c-0.011-0.271-0.018-0.57-0.024-0.885l-0.596-0.595c0.007,0.314,0.015,0.614,0.024,0.885
			L120.482,150.347z"/>
		<polygon fill="#393B3D" points="78.329,140.604 77.794,140.604 77.794,140.932 78.104,141.242 78.967,141.242 		"/>
		<path fill="#393B3D" d="M120.503,145.616c0.014-0.295,0.032-0.564,0.054-0.808l-0.599-0.599c-0.02,0.245-0.038,0.515-0.053,0.81
			L120.503,145.616z"/>
		<path fill="#393B3D" d="M120.626,144.157c0.039-0.282,0.081-0.525,0.131-0.733l-0.603-0.601c-0.046,0.208-0.089,0.453-0.127,0.736
			L120.626,144.157z"/>
		<polygon fill="#393B3D" points="107.643,137.51 108.25,138.116 108.25,137.253 107.643,136.646 		"/>
		<polygon fill="#393B3D" points="108.25,144.453 108.25,143.59 107.643,142.983 107.643,143.846 		"/>
		<polygon fill="#393B3D" points="108.25,146.037 108.25,145.175 107.643,144.568 107.643,145.431 		"/>
		<polygon fill="#393B3D" points="108.25,147.622 108.25,146.758 107.643,146.152 107.643,147.015 		"/>
		<polygon fill="#393B3D" points="108.25,139.7 108.25,138.837 107.643,138.23 107.643,139.093 		"/>
		<polygon fill="#393B3D" points="108.25,141.284 108.25,140.422 107.643,139.815 107.643,140.678 		"/>
		<polygon fill="#393B3D" points="108.25,142.868 108.25,142.005 107.643,141.398 107.643,142.262 		"/>
		<path fill="#393B3D" d="M123.843,141.036c0.386,0.004,0.729,0.078,1.048,0.184l-0.644-0.643c-0.317-0.099-0.655-0.171-1.035-0.172
			L123.843,141.036z"/>
		<path fill="#393B3D" d="M133.259,148.223c0-0.073,0-0.145,0-0.217l-0.596-0.596c0,0.062,0,0.124,0,0.187
			c0,0.227,0,0.452,0.001,0.676l0.596,0.596C133.259,148.654,133.259,148.439,133.259,148.223z"/>
		<path fill="#393B3D" d="M133.135,143.992c-0.032-0.337-0.077-0.669-0.133-0.997l-0.59-0.59c0.055,0.327,0.1,0.659,0.132,0.995
			L133.135,143.992z"/>
		<path fill="#393B3D" d="M121.553,141.914c0.137-0.141,0.295-0.267,0.479-0.382l-0.614-0.614c-0.183,0.117-0.342,0.245-0.477,0.386
			L121.553,141.914z"/>
		<path fill="#393B3D" d="M131.79,140.198c0.177,0.419,0.319,0.851,0.432,1.295l0.585,0.583c-0.116-0.447-0.263-0.884-0.445-1.307
			L131.79,140.198z"/>
		<path fill="#393B3D" d="M120.446,148.223c0-0.124,0.001-0.235,0.003-0.354l-0.596-0.596c-0.002,0.109-0.002,0.21-0.002,0.325
			c0,0.189,0.002,0.362,0.003,0.539l0.596,0.596C120.449,148.564,120.446,148.402,120.446,148.223z"/>
		<path fill="#393B3D" d="M120.924,142.87c0.089-0.228,0.188-0.408,0.295-0.567l-0.606-0.608c-0.107,0.161-0.205,0.342-0.293,0.571
			L120.924,142.87z"/>
		<polygon fill="#393B3D" points="96.124,137.082 96.124,136.219 95.701,135.795 95.517,135.795 95.517,136.475 		"/>
		<path fill="#393B3D" d="M121.236,154.135c-0.2-0.291-0.368-0.634-0.499-1.225l-0.588-0.587c0.154,0.679,0.361,1.021,0.611,1.348
			C120.886,153.835,121.051,153.991,121.236,154.135z"/>
		<path fill="#393B3D" d="M122.51,141.287c0.207-0.084,0.432-0.147,0.674-0.189l-0.624-0.625c-0.241,0.044-0.463,0.11-0.669,0.195
			L122.51,141.287z"/>
		<path fill="#393B3D" d="M133.241,145.68c-0.009-0.303-0.021-0.604-0.038-0.901l-0.595-0.594c0.019,0.297,0.029,0.598,0.038,0.9
			L133.241,145.68z"/>
		<path fill="#393B3D" d="M133.259,147.283c0-0.291-0.001-0.58-0.005-0.867l-0.594-0.596c0.002,0.288,0.003,0.577,0.003,0.868
			L133.259,147.283z"/>
		<path fill="#393B3D" d="M133.259,149.589l-0.596-0.596c-0.001,0.286-0.006,0.569-0.012,0.851l0.596,0.597
			C133.254,150.159,133.258,149.875,133.259,149.589z"/>
		<path fill="#393B3D" d="M120.455,147.153c0.004-0.3,0.013-0.581,0.021-0.843l-0.598-0.597c-0.009,0.263-0.015,0.543-0.019,0.843
			L120.455,147.153z"/>
		<polygon fill="#393B3D" points="108.25,148.343 107.643,147.736 107.643,148.599 108.25,149.206 		"/>
		<path fill="#393B3D" d="M133.119,152.617l-0.599-0.599c-0.03,0.255-0.064,0.508-0.104,0.758l0.599,0.599
			C133.056,153.125,133.09,152.873,133.119,152.617z"/>
		<polygon fill="#393B3D" points="144.827,149.345 145.431,149.949 145.431,149.086 144.827,148.482 		"/>
		<polygon fill="#393B3D" points="90.014,147.536 89.406,146.928 89.406,147.79 90.014,148.398 		"/>
		<polygon fill="#393B3D" points="90.014,143.646 90.014,142.783 89.406,142.175 89.406,143.038 		"/>
		<polygon fill="#393B3D" points="90.014,145.229 90.014,144.368 89.406,143.759 89.406,144.621 		"/>
		<polygon fill="#393B3D" points="90.014,146.813 90.014,145.952 89.406,145.344 89.406,146.206 		"/>
		<polygon fill="#393B3D" points="145.431,150.671 144.827,150.066 144.827,150.929 145.431,151.534 		"/>
		<polygon fill="#393B3D" points="144.827,147.76 145.237,148.169 144.827,147.527 		"/>
		<polygon fill="#393B3D" points="95.517,137.195 95.517,138.059 96.124,138.666 96.124,137.802 		"/>
		<polygon fill="#393B3D" points="90.779,141.242 91.641,141.242 91.003,140.604 90.142,140.604 		"/>
		<polygon fill="#393B3D" points="81.498,140.604 80.635,140.604 81.272,141.242 82.136,141.242 		"/>
		<polygon fill="#393B3D" points="83.082,140.604 82.219,140.604 82.856,141.242 83.298,141.242 83.298,140.82 		"/>
		<polygon fill="#393B3D" points="19.17,160.661 18.535,160.025 17.673,160.025 18.309,160.661 		"/>
		<polygon fill="#393B3D" points="90.014,142.062 90.014,141.242 90.056,141.242 89.419,140.604 89.406,140.604 89.406,141.453 		
			"/>
		<path fill="#393B3D" d="M130.616,138.257c0.054,0.063,0.099,0.13,0.15,0.195l0.488,0.489c-0.158-0.191-0.325-0.38-0.508-0.563
			C130.705,138.334,130.659,138.299,130.616,138.257z"/>
		<polygon fill="#393B3D" points="79.688,141.242 80.551,141.242 79.914,140.604 79.051,140.604 		"/>
		<polygon fill="#393B3D" points="93.947,141.242 94.809,141.242 94.172,140.604 93.309,140.604 		"/>
		<polygon fill="#393B3D" points="92.363,141.242 93.226,141.242 92.588,140.604 91.726,140.604 		"/>
		<path fill="#393B3D" d="M133.227,151.142l-0.596-0.598c-0.013,0.274-0.028,0.545-0.049,0.814l0.599,0.598
			C133.2,151.688,133.216,151.416,133.227,151.142z"/>
		<polygon fill="#393B3D" points="95.532,141.242 96.124,141.242 96.124,140.971 95.517,140.364 95.517,140.604 94.894,140.604 		
			"/>
		<polygon fill="#393B3D" points="96.124,140.25 96.124,139.387 95.517,138.78 95.517,139.642 		"/>
		<polygon fill="#393B3D" points="107.643,135.925 108.25,136.532 108.25,135.793 107.643,135.793 		"/>
		<polygon fill="#393B3D" points="32.561,145.533 32.561,146.395 33.167,147.001 33.167,146.14 		"/>
		<polygon fill="#393B3D" points="33.167,145.417 33.167,145.119 32.869,145.119 		"/>
		<polygon fill="#393B3D" points="33.167,147.724 32.561,147.118 32.561,147.979 33.167,148.586 		"/>
		<polygon fill="#393B3D" points="31.64,142.306 32.502,142.306 31.867,141.67 31.004,141.67 		"/>
		<polygon fill="#393B3D" points="34.696,142.193 34.696,141.332 34.091,140.726 34.091,141.588 		"/>
		<polygon fill="#393B3D" points="33.167,151.64 33.167,150.893 32.561,150.286 32.561,151.003 32.416,151.003 33.052,151.64 		"/>
		<polygon fill="#393B3D" points="33.224,142.306 34.086,142.306 33.45,141.669 32.588,141.67 		"/>
		<polygon fill="#393B3D" points="34.696,135.857 34.696,135.786 34.626,135.786 		"/>
		<polygon fill="#393B3D" points="33.167,149.309 32.561,148.702 32.561,149.563 33.167,150.17 		"/>
		<polygon fill="#393B3D" points="25.302,142.306 26.165,142.306 25.529,141.67 24.667,141.67 		"/>
		<polygon fill="#393B3D" points="28.471,142.306 29.333,142.306 28.698,141.67 27.835,141.67 		"/>
		<polygon fill="#393B3D" points="26.887,142.306 27.749,142.306 27.114,141.67 26.252,141.67 		"/>
		<path fill="#393B3D" d="M67.15,143.684l-0.385-0.385c0.043,0.127,0.086,0.254,0.122,0.385H67.15z"/>
		<polygon fill="#393B3D" points="89.406,159.603 89.406,160.016 88.958,160.016 89.595,160.652 90.014,160.652 90.014,160.211 		
			"/>
		<path fill="#393B3D" d="M123.305,160.229c-0.035,0-0.068,0.005-0.102,0.005c-0.273,0-0.531-0.018-0.791-0.033l0.63,0.628
			c0.248,0.015,0.495,0.032,0.757,0.032c0.045,0,0.086-0.005,0.131-0.006L123.305,160.229z"/>
		<polygon fill="#393B3D" points="34.091,135.973 34.091,136.835 34.696,137.441 34.696,136.579 		"/>
		<polygon fill="#393B3D" points="144.827,159.572 144.827,160.025 144.418,160.025 145.044,160.652 145.431,160.652 
			145.431,160.177 		"/>
		<polygon fill="#393B3D" points="158.734,136.318 158.734,135.793 158.209,135.793 		"/>
		<path fill="#393B3D" d="M64.455,160.862h0.125c-0.043,0-0.087-0.004-0.13-0.005L64.455,160.862z"/>
		<path fill="#393B3D" d="M69.87,157.495c-0.14,0.148-0.286,0.29-0.435,0.425l0.68,0.68c0.15-0.135,0.298-0.274,0.439-0.421
			L69.87,157.495z"/>
		<polygon fill="#393B3D" points="34.696,139.025 34.696,138.163 34.091,137.558 34.091,138.42 		"/>
		<polygon fill="#393B3D" points="24.396,142.983 24.396,142.306 24.581,142.306 23.945,141.67 23.79,141.67 23.79,142.376 		"/>
		<polygon fill="#393B3D" points="23.79,143.099 23.79,143.961 24.31,144.482 24.396,144.482 24.396,143.706 		"/>
		<polygon fill="#393B3D" points="46.792,159.765 46.792,160.016 46.182,160.016 46.818,160.652 47.398,160.652 47.398,160.371 		
			"/>
		<polygon fill="#393B3D" points="23.79,151.021 23.79,151.882 24.396,152.488 24.396,151.64 24.408,151.64 		"/>
		<polygon fill="#393B3D" points="34.696,140.61 34.696,139.747 34.091,139.141 34.091,140.004 		"/>
		<polygon fill="#393B3D" points="47.398,147.697 46.792,147.09 46.792,147.952 47.398,148.558 		"/>
		<polygon fill="#393B3D" points="47.398,135.885 47.398,135.793 47.308,135.793 		"/>
		<path fill="#393B3D" d="M60.725,141.29l1.167,1.166c0.118-0.138,0.226-0.26,0.316-0.377c0.026-0.035,0.046-0.067,0.069-0.1
			l-1.08-1.08C61.015,141.016,60.858,141.145,60.725,141.29z"/>
		<path fill="#393B3D" d="M71.99,143.049l0.635,0.635h0.478c-0.027-0.167-0.066-0.323-0.099-0.484l-0.753-0.753
			c0.042,0.199,0.089,0.395,0.124,0.602H71.99z"/>
		<path fill="#393B3D" d="M60.358,148.223c0-0.083,0.003-0.156,0.004-0.237l-0.731-0.731c0,0.112-0.001,0.215-0.001,0.332
			c0,0.187,0.001,0.357,0.003,0.532l0.729,0.729C60.36,148.646,60.358,148.442,60.358,148.223z"/>
		<path fill="#393B3D" d="M61.264,154.317c-0.223-0.301-0.417-0.638-0.566-1.243l-0.756-0.756c0.162,0.717,0.378,1.082,0.631,1.413
			C60.745,153.957,60.987,154.149,61.264,154.317z"/>
		<path fill="#393B3D" d="M60.113,142.262l1.126,1.126c0.109-0.205,0.222-0.377,0.332-0.53l-1.171-1.171
			C60.297,141.849,60.2,142.031,60.113,142.262z"/>
		<path fill="#393B3D" d="M69.699,137.493c0.241,0.239,0.465,0.502,0.68,0.776l1.013,1.012
			C70.904,138.585,70.335,137.99,69.699,137.493z"/>
		<polygon fill="#393B3D" points="68.734,143.684 68.1,143.049 67.238,143.049 67.872,143.684 		"/>
		<path fill="#393B3D" d="M71.49,140.103c0.197,0.429,0.367,0.889,0.513,1.375l0.767,0.767c-0.134-0.465-0.284-0.912-0.463-1.327
			L71.49,140.103z"/>
		<polygon fill="#393B3D" points="71.041,143.684 71.903,143.684 71.268,143.049 70.406,143.049 		"/>
		<polygon fill="#393B3D" points="69.457,143.684 70.318,143.684 69.684,143.049 68.822,143.049 		"/>
		<polygon fill="#393B3D" points="47.398,146.975 47.398,146.113 46.792,145.506 46.792,146.368 		"/>
		<path fill="#393B3D" d="M60.401,150.47c-0.012-0.273-0.021-0.572-0.028-0.89l-0.73-0.73c0.006,0.316,0.014,0.615,0.025,0.888
			L60.401,150.47z"/>
		<path fill="#393B3D" d="M60.445,151.237l-0.736-0.735c0.024,0.357,0.053,0.672,0.088,0.949l0.742,0.742
			C60.502,151.915,60.471,151.598,60.445,151.237z"/>
		<path fill="#393B3D" d="M60.38,147.282c0.014-0.286,0.033-0.553,0.056-0.807l-0.778-0.776c-0.009,0.263-0.015,0.542-0.02,0.841
			L60.38,147.282z"/>
		<path fill="#393B3D" d="M60.512,145.83c0.037-0.264,0.08-0.508,0.129-0.733l-0.895-0.896c-0.022,0.243-0.042,0.512-0.058,0.806
			L60.512,145.83z"/>
		<polygon fill="#393B3D" points="47.398,145.39 47.398,144.528 46.792,143.921 46.792,144.784 		"/>
		<path fill="#393B3D" d="M59.949,142.82c-0.049,0.209-0.092,0.453-0.13,0.732l0.966,0.966c0.07-0.238,0.146-0.447,0.226-0.638
			L59.949,142.82z"/>
		<polygon fill="#393B3D" points="47.398,143.806 47.398,142.943 46.792,142.337 46.792,143.199 		"/>
		<polygon fill="#393B3D" points="47.398,142.221 47.398,141.359 46.792,140.753 46.792,141.615 		"/>
		<polygon fill="#393B3D" points="47.398,140.637 47.398,139.775 46.792,139.168 46.792,140.03 		"/>
		<polygon fill="#393B3D" points="47.398,139.052 47.398,138.19 46.792,137.584 46.792,138.446 		"/>
		<polygon fill="#393B3D" points="46.792,136.862 47.398,137.468 47.398,136.606 46.792,136 		"/>
		<polygon fill="#393B3D" points="30.056,142.306 30.917,142.306 30.282,141.67 29.42,141.67 		"/>
		<polygon fill="#393B3D" points="143.695,160.025 142.833,160.025 143.461,160.652 144.323,160.652 		"/>
		<path fill="#393B3D" d="M131.451,155.701c-0.101,0.183-0.208,0.362-0.325,0.539l0.608,0.608c0.116-0.177,0.223-0.357,0.321-0.541
			L131.451,155.701z"/>
		<path fill="#393B3D" d="M126.108,159.865c-0.227,0.062-0.458,0.118-0.696,0.165l0.621,0.621c0.237-0.046,0.471-0.102,0.695-0.165
			L126.108,159.865z"/>
		<path fill="#393B3D" d="M130.083,157.504c-0.147,0.144-0.297,0.28-0.448,0.413l0.612,0.613c0.15-0.134,0.302-0.269,0.447-0.414
			L130.083,157.504z"/>
		<path fill="#393B3D" d="M127.277,159.45c-0.201,0.088-0.412,0.165-0.623,0.238l0.618,0.619c0.213-0.074,0.422-0.151,0.622-0.24
			L127.277,159.45z"/>
		<path fill="#393B3D" d="M128.313,158.901c-0.179,0.111-0.36,0.217-0.548,0.314l0.616,0.617c0.187-0.097,0.369-0.205,0.547-0.316
			L128.313,158.901z"/>
		<path fill="#393B3D" d="M130.826,156.662c-0.123,0.16-0.252,0.316-0.392,0.471l0.611,0.61c0.139-0.155,0.269-0.313,0.39-0.473
			L130.826,156.662z"/>
		<polygon fill="#393B3D" points="142.111,160.025 141.249,160.025 141.876,160.652 142.739,160.652 		"/>
		<path fill="#393B3D" d="M131.942,154.61c-0.074,0.207-0.157,0.411-0.249,0.612l0.604,0.604c0.091-0.201,0.174-0.406,0.249-0.613
			L131.942,154.61z"/>
		<polygon fill="#393B3D" points="140.527,160.025 139.664,160.025 140.292,160.652 141.154,160.652 		"/>
		<path fill="#393B3D" d="M132.297,153.379c-0.051,0.232-0.108,0.462-0.176,0.688l0.604,0.602c0.066-0.227,0.122-0.456,0.174-0.688
			L132.297,153.379z"/>
		<polygon fill="#393B3D" points="139.323,160.405 139.323,160.652 139.57,160.652 		"/>
		<path fill="#393B3D" d="M129.242,158.247c-0.159,0.128-0.319,0.258-0.485,0.375l0.613,0.613c0.166-0.117,0.327-0.246,0.486-0.374
			L129.242,158.247z"/>
		<polygon fill="#393B3D" points="107.643,157.243 107.643,158.104 108.25,158.711 108.25,157.85 		"/>
		<polygon fill="#393B3D" points="107.643,158.828 107.643,159.688 108.25,160.295 108.25,159.434 		"/>
		<polygon fill="#393B3D" points="107.643,155.659 107.643,156.52 108.25,157.127 108.25,156.265 		"/>
		<polygon fill="#393B3D" points="107.643,154.074 107.643,154.936 108.25,155.542 108.25,154.681 		"/>
		<polygon fill="#393B3D" points="107.247,160.016 106.385,160.016 107.022,160.652 107.883,160.652 		"/>
		<polygon fill="#393B3D" points="105.663,160.016 104.8,160.016 105.437,160.652 106.3,160.652 		"/>
		<polygon fill="#393B3D" points="107.643,152.49 107.643,153.352 108.25,153.958 108.25,153.096 		"/>
		<path fill="#393B3D" d="M121.612,160.123c-0.367-0.048-0.72-0.114-1.06-0.198l0.638,0.638c0.336,0.081,0.689,0.145,1.055,0.192
			L121.612,160.123z"/>
		<path fill="#393B3D" d="M119.507,159.602c-0.646-0.247-1.247-0.559-1.81-0.947l0.683,0.682c0.55,0.372,1.139,0.673,1.771,0.91
			L119.507,159.602z"/>
		<path fill="#393B3D" d="M124.782,160.124c-0.254,0.034-0.515,0.061-0.784,0.077l0.626,0.626c0.27-0.017,0.528-0.046,0.782-0.079
			L124.782,160.124z"/>
		<polygon fill="#393B3D" points="107.643,150.905 107.643,151.767 108.25,152.375 108.25,151.512 		"/>
		<polygon fill="#393B3D" points="107.643,149.321 107.643,150.184 108.25,150.791 108.25,149.927 		"/>
		<polygon fill="#393B3D" points="17.407,160.481 17.407,160.661 17.586,160.661 		"/>
		<polygon fill="#393B3D" points="158.127,145.939 158.127,146.802 158.734,147.408 158.734,146.546 		"/>
		<polygon fill="#393B3D" points="158.127,147.524 158.127,148.386 158.734,148.993 158.734,148.13 		"/>
		<polygon fill="#393B3D" points="158.127,144.355 158.127,145.217 158.734,145.824 158.734,144.962 		"/>
		<polygon fill="#393B3D" points="20.12,160.025 19.258,160.025 19.894,160.661 20.755,160.661 		"/>
		<polygon fill="#393B3D" points="158.127,149.108 158.127,149.97 158.734,150.577 158.734,149.715 		"/>
		<polygon fill="#393B3D" points="158.127,150.692 158.127,151.555 158.734,152.161 158.734,151.298 		"/>
		<polygon fill="#393B3D" points="158.127,142.77 158.127,143.633 158.734,144.24 158.734,143.377 		"/>
		<polygon fill="#393B3D" points="104.078,160.016 103.216,160.016 103.853,160.652 104.715,160.652 		"/>
		<polygon fill="#393B3D" points="144.827,157.988 144.827,158.85 145.431,159.455 145.431,158.592 		"/>
		<polygon fill="#393B3D" points="158.127,141.186 158.127,142.049 158.734,142.655 158.734,141.792 		"/>
		<polygon fill="#393B3D" points="158.127,139.602 158.127,140.464 158.734,141.071 158.734,140.208 		"/>
		<polygon fill="#393B3D" points="158.127,138.018 158.127,138.881 158.734,139.487 158.734,138.624 		"/>
		<polygon fill="#393B3D" points="158.127,136.433 158.127,137.296 158.734,137.903 158.734,137.04 		"/>
		<polygon fill="#393B3D" points="144.827,153.235 144.827,154.097 145.431,154.702 145.431,153.84 		"/>
		<polygon fill="#393B3D" points="158.127,153.861 158.127,154.723 158.734,155.33 158.734,154.467 		"/>
		<polygon fill="#393B3D" points="153.201,160.025 152.994,160.025 153.393,160.652 153.829,160.652 		"/>
		<polygon fill="#393B3D" points="144.827,156.404 144.827,157.266 145.431,157.871 145.431,157.009 		"/>
		<polygon fill="#393B3D" points="144.827,154.819 144.827,155.681 145.431,156.286 145.431,155.424 		"/>
		<polygon fill="#393B3D" points="154.785,160.025 153.923,160.025 154.55,160.652 155.414,160.652 		"/>
		<polygon fill="#393B3D" points="144.827,151.651 144.827,152.514 145.431,153.118 145.431,152.255 		"/>
		<polygon fill="#393B3D" points="158.127,155.445 158.127,156.307 158.734,156.914 158.734,156.052 		"/>
		<polygon fill="#393B3D" points="158.127,157.03 158.127,157.892 158.734,158.498 158.734,157.636 		"/>
		<polygon fill="#393B3D" points="158.127,158.614 158.127,159.476 158.734,160.082 158.734,159.22 		"/>
		<polygon fill="#393B3D" points="157.954,160.025 157.092,160.025 157.72,160.652 158.582,160.652 		"/>
		<polygon fill="#393B3D" points="156.37,160.025 155.508,160.025 156.135,160.652 156.997,160.652 		"/>
		<polygon fill="#393B3D" points="158.127,152.276 158.127,153.139 158.734,153.746 158.734,152.883 		"/>
		<polygon fill="#393B3D" points="45.458,160.016 44.597,160.016 45.234,160.652 46.096,160.652 		"/>
		<polygon fill="#393B3D" points="46.792,158.18 46.792,159.042 47.398,159.648 47.398,158.787 		"/>
		<polygon fill="#393B3D" points="46.792,156.596 46.792,157.458 47.398,158.064 47.398,157.203 		"/>
		<path fill="#393B3D" d="M61.398,160.113c-0.367-0.05-0.722-0.117-1.064-0.204l0.365,0.366c0.38,0.115,0.765,0.214,1.156,0.295
			L61.398,160.113z"/>
		<polygon fill="#393B3D" points="43.874,160.016 43.013,160.016 43.649,160.652 44.512,160.652 		"/>
		<polygon fill="#393B3D" points="46.792,155.012 46.792,155.874 47.398,156.479 47.398,155.618 		"/>
		<polygon fill="#393B3D" points="46.792,151.843 46.792,152.705 47.398,153.311 47.398,152.45 		"/>
		<polygon fill="#393B3D" points="46.792,148.674 46.792,149.536 47.398,150.143 47.398,149.281 		"/>
		<path fill="#393B3D" d="M59.281,159.579c-0.64-0.247-1.242-0.558-1.804-0.942l0.172,0.172c0.575,0.417,1.226,0.77,1.924,1.062
			L59.281,159.579z"/>
		<polygon fill="#393B3D" points="41.288,160.598 41.288,160.652 41.343,160.652 		"/>
		<polygon fill="#393B3D" points="46.792,153.427 46.792,154.289 47.398,154.896 47.398,154.034 		"/>
		<polygon fill="#393B3D" points="46.792,150.259 46.792,151.121 47.398,151.728 47.398,150.865 		"/>
		<polygon fill="#393B3D" points="42.29,160.016 41.429,160.016 42.065,160.652 42.927,160.652 		"/>
		<polygon fill="#393B3D" points="23.79,154.189 23.79,155.05 24.396,155.657 24.396,154.795 		"/>
		<polygon fill="#393B3D" points="23.79,157.358 23.79,158.219 24.396,158.826 24.396,157.964 		"/>
		<polygon fill="#393B3D" points="23.79,155.773 23.79,156.635 24.396,157.241 24.396,156.38 		"/>
		<polygon fill="#393B3D" points="23.79,158.942 23.79,159.804 24.396,160.41 24.396,159.549 		"/>
		<polygon fill="#393B3D" points="21.704,160.025 20.842,160.025 21.477,160.661 22.339,160.661 		"/>
		<polygon fill="#393B3D" points="23.288,160.025 22.427,160.025 23.062,160.661 23.924,160.661 		"/>
		<polygon fill="#393B3D" points="31.693,151.003 30.831,151.003 31.468,151.64 32.33,151.64 		"/>
		<polygon fill="#393B3D" points="23.79,152.604 23.79,153.466 24.396,154.073 24.396,153.211 		"/>
		<polygon fill="#393B3D" points="28.524,151.003 27.663,151.003 28.299,151.64 29.161,151.64 		"/>
		<polygon fill="#393B3D" points="30.108,151.003 29.247,151.003 29.883,151.64 30.745,151.64 		"/>
		<polygon fill="#393B3D" points="25.355,151.003 24.494,151.003 25.131,151.64 25.993,151.64 		"/>
		<polygon fill="#393B3D" points="26.94,151.003 26.078,151.003 26.715,151.64 27.576,151.64 		"/>
		<path fill="#393B3D" d="M69.051,158.258c-0.161,0.128-0.328,0.249-0.498,0.364l0.675,0.675c0.17-0.114,0.336-0.237,0.498-0.364
			L69.051,158.258z"/>
		<polygon fill="#393B3D" points="88.236,160.016 87.374,160.016 88.01,160.652 88.873,160.652 		"/>
		<polygon fill="#393B3D" points="86.65,160.016 85.79,160.016 86.426,160.652 87.289,160.652 		"/>
		<polygon fill="#393B3D" points="89.406,158.019 89.406,158.88 90.014,159.488 90.014,158.626 		"/>
		<polygon fill="#393B3D" points="85.066,160.016 84.205,160.016 84.842,160.652 85.704,160.652 		"/>
		<polygon fill="#393B3D" points="89.406,156.434 89.406,157.296 90.014,157.904 90.014,157.042 		"/>
		<polygon fill="#393B3D" points="83.905,160.439 83.905,160.652 84.118,160.652 		"/>
		<polygon fill="#393B3D" points="89.406,151.681 89.406,152.543 90.014,153.151 90.014,152.29 		"/>
		<polygon fill="#393B3D" points="89.406,148.513 89.406,149.375 90.014,149.983 90.014,149.121 		"/>
		<polygon fill="#393B3D" points="89.406,150.096 89.406,150.958 90.014,151.566 90.014,150.705 		"/>
		<polygon fill="#393B3D" points="89.406,154.849 89.406,155.711 90.014,156.32 90.014,155.458 		"/>
		<path fill="#393B3D" d="M63.092,160.221c-0.048,0.001-0.096,0.005-0.144,0.005c-0.257,0-0.5-0.017-0.746-0.033l0.529,0.53
			c0.321,0.044,0.643,0.081,0.964,0.103L63.092,160.221z"/>
		<path fill="#393B3D" d="M64.607,141.141l-0.603-0.603c-0.297-0.083-0.623-0.141-1.004-0.143l0.639,0.639
			c0.026,0,0.044-0.004,0.071-0.004C64.046,141.031,64.335,141.076,64.607,141.141z"/>
		<polygon fill="#393B3D" points="89.406,153.266 89.406,154.127 90.014,154.735 90.014,153.874 		"/>
		<path fill="#393B3D" d="M65.88,159.841c-0.229,0.062-0.46,0.118-0.697,0.165l0.651,0.65c0.238-0.045,0.471-0.098,0.702-0.159
			L65.88,159.841z"/>
		<polygon fill="#393B3D" points="102.493,160.016 102.138,160.016 102.138,160.521 102.269,160.652 103.13,160.652 		"/>
		<path fill="#393B3D" d="M68.109,158.902c-0.182,0.108-0.367,0.21-0.556,0.305l0.667,0.666c0.19-0.094,0.377-0.194,0.561-0.301
			L68.109,158.902z"/>
		<path fill="#393B3D" d="M62.343,140.46c-0.244,0.042-0.467,0.105-0.673,0.189l0.887,0.887c0.112-0.175,0.238-0.314,0.461-0.401
			L62.343,140.46z"/>
		<path fill="#393B3D" d="M63.73,160.86c-0.018,0-0.037,0.002-0.055,0.002h0.057L63.73,160.86z"/>
		<path fill="#393B3D" d="M64.568,160.114c-0.257,0.036-0.516,0.064-0.779,0.083l0.64,0.639c0.265-0.016,0.527-0.043,0.785-0.077
			L64.568,160.114z"/>
		<path fill="#393B3D" d="M67.063,159.44c-0.205,0.087-0.415,0.162-0.628,0.234l0.662,0.661c0.213-0.071,0.423-0.147,0.63-0.232
			L67.063,159.44z"/>
		<path fill="#393B3D" d="M73.061,152.763h-0.817c-0.003,0.013-0.005,0.025-0.007,0.037l0.712,0.713
			c0.053-0.235,0.106-0.47,0.146-0.716L73.061,152.763z"/>
		<path fill="#393B3D" d="M70.588,156.628c-0.121,0.167-0.242,0.334-0.372,0.489l0.685,0.686c0.131-0.155,0.255-0.319,0.375-0.486
			L70.588,156.628z"/>
		<path fill="#393B3D" d="M72.094,153.382c-0.061,0.226-0.122,0.453-0.193,0.668l0.703,0.703c0.073-0.214,0.136-0.438,0.199-0.664
			L72.094,153.382z"/>
		<path fill="#393B3D" d="M71.701,154.571c-0.082,0.206-0.168,0.407-0.26,0.602l0.698,0.699c0.094-0.194,0.183-0.392,0.264-0.598
			L71.701,154.571z"/>
		<path fill="#393B3D" d="M71.203,155.659c-0.101,0.186-0.212,0.362-0.324,0.538l0.694,0.694c0.112-0.174,0.224-0.349,0.327-0.535
			L71.203,155.659z"/>
	</g>
	<g id="FICTION">
		<polygon fill="#393B3D" points="16.182,159.407 23.171,159.407 23.171,150.386 31.943,150.386 31.943,143.865 23.171,143.865 
			23.171,141.052 33.472,141.052 33.472,134.532 16.182,134.532 		"/>
		<rect x="40.063" y="134.54" fill="#393B3D" width="6.11" height="24.858"/>
		<rect x="100.913" y="134.54" fill="#393B3D" width="6.111" height="24.858"/>
		<polygon fill="#393B3D" points="88.791,139.987 88.791,159.398 82.681,159.398 82.681,139.987 76.57,139.987 76.57,134.541 
			94.9,134.541 94.9,139.987 		"/>
		<polygon fill="#393B3D" points="152.169,159.398 144.207,146.899 144.207,159.398 138.098,159.398 138.098,134.54 143.44,134.54 
			151.401,147.039 151.401,134.54 157.509,134.54 157.509,159.398 		"/>
		<path fill="#393B3D" d="M125.019,140.858c-0.455-0.593-1.328-1.082-2.444-1.082c-1.117,0-1.991,0.489-2.444,1.082
			c-0.56,0.733-0.908,1.571-0.908,6.111c0,4.54,0.349,5.343,0.908,6.075c0.453,0.594,1.327,1.116,2.444,1.116
			c1.116,0,1.989-0.522,2.444-1.116c0.559-0.732,0.906-1.535,0.906-6.075C125.925,142.43,125.578,141.592,125.019,140.858
			 M129.521,156.815c-1.814,1.815-3.908,2.792-6.946,2.792c-3.037,0-5.133-0.978-6.949-2.792c-2.617-2.619-2.512-6.111-2.512-9.846
			c0-3.735-0.105-7.229,2.512-9.846c1.816-1.814,3.912-2.792,6.949-2.792c3.038,0,5.132,0.978,6.946,2.792
			c2.618,2.618,2.515,6.111,2.515,9.846C132.036,150.704,132.139,154.196,129.521,156.815"/>
		<path fill="#393B3D" d="M62.451,159.608c-2.897,0-5.098-0.978-6.913-2.793c-2.617-2.619-2.514-6.111-2.514-9.846
			c0-3.735-0.104-7.229,2.514-9.846c1.815-1.815,4.016-2.792,6.913-2.792c4.713,0,8.519,2.618,9.427,8.099h-6.215
			c-0.383-1.395-1.152-2.653-3.177-2.653c-1.117,0-1.956,0.454-2.409,1.048c-0.559,0.734-0.943,1.605-0.943,6.145
			c0,4.54,0.384,5.411,0.943,6.145c0.453,0.593,1.292,1.047,2.409,1.047c2.024,0,2.793-1.257,3.177-2.651h6.215
			C70.97,156.99,67.164,159.608,62.451,159.608"/>
	</g>
	<g id="_x26_">
		<rect y="126.555" fill="#393B3D" width="81.578" height="0.571"/>
		<rect x="92.483" y="126.555" fill="#393B3D" width="80.852" height="0.571"/>
		<path fill="#393B3D" d="M85.659,125.027c0,0.2,0.117,0.529,0.349,0.988c0.51-0.243,0.767-0.553,0.767-0.933
			c0-0.168-0.053-0.304-0.154-0.406c-0.103-0.104-0.242-0.155-0.415-0.155c-0.163,0-0.295,0.047-0.395,0.139
			C85.71,124.751,85.659,124.874,85.659,125.027 M86.016,127.313c-0.127-0.195-0.24-0.381-0.341-0.555
			c-0.2,0.094-0.364,0.198-0.49,0.309c-0.289,0.25-0.435,0.562-0.435,0.944c0,0.296,0.093,0.537,0.28,0.719
			c0.188,0.182,0.43,0.273,0.731,0.273c0.448,0,0.809-0.183,1.083-0.547C86.493,128,86.215,127.62,86.016,127.313 M87.414,125.027
			c0,0.585-0.379,1.071-1.138,1.462l0.088,0.142c0.142,0.237,0.396,0.614,0.758,1.13l0.087,0.111l0.048-0.133l0.308-0.815
			c0.369-0.97,0.894-1.455,1.573-1.455c0.316,0,0.573,0.091,0.767,0.273c0.195,0.181,0.293,0.42,0.293,0.715
			c0,0.279-0.092,0.516-0.277,0.708c-0.183,0.191-0.413,0.289-0.688,0.289c-0.2,0-0.363-0.05-0.49-0.151
			c-0.125-0.099-0.189-0.231-0.189-0.394c0-0.253,0.111-0.38,0.333-0.38c0.19,0,0.284,0.086,0.284,0.26
			c0,0.021-0.015,0.063-0.04,0.127c0.074,0.01,0.115,0.016,0.126,0.016c0.101,0,0.188-0.043,0.262-0.127
			c0.074-0.083,0.11-0.186,0.11-0.309c0-0.153-0.048-0.274-0.146-0.367c-0.098-0.092-0.231-0.138-0.399-0.138
			c-0.273,0-0.499,0.151-0.673,0.452c-0.143,0.242-0.316,0.646-0.521,1.212c-0.11,0.306-0.214,0.544-0.31,0.713
			c0.229,0.253,0.418,0.423,0.57,0.508c0.152,0.083,0.343,0.126,0.576,0.126c0.047,0,0.118-0.007,0.21-0.02
			c0.092-0.012,0.162-0.02,0.208-0.02c0.218,0,0.326,0.098,0.326,0.293c0,0.184-0.112,0.276-0.333,0.276H89.01h-0.22h-0.42
			c-0.362,0-0.75-0.215-1.162-0.648c-0.143,0.163-0.264,0.279-0.363,0.347c-0.327,0.229-0.703,0.34-1.131,0.34
			c-0.478,0-0.872-0.145-1.177-0.434c-0.305-0.29-0.459-0.664-0.459-1.123c0-0.616,0.259-1.088,0.775-1.415
			c0.175-0.111,0.335-0.203,0.483-0.276l0.094-0.047c-0.279-0.506-0.418-0.913-0.418-1.217c0-0.317,0.108-0.573,0.327-0.768
			c0.219-0.194,0.508-0.292,0.866-0.292c0.373,0,0.669,0.092,0.885,0.277C87.306,124.46,87.414,124.711,87.414,125.027"/>
	</g>
	<path id="BOTTLE" fill="#393B3D" d="M104.143,60.842c0,0,1.348-8.829-0.846-13.717c-0.848-2.273-2.396-4.558-4.49-6.826
		c0,0-2.229-0.851-2.759-11.992c0,0-1.754-16.34-2.391-18.039c-0.637-1.697-0.849-4.349-0.531-5.199
		c0.319-0.849-0.53-2.547-0.53-3.288c0-0.252,0.115-0.469,0.115-0.67c0-0.754-4.468-1.11-4.468-1.11
		c-0.485,0-0.878,0.395-0.878,0.877v49.698c1.032,0.31,1.782,1.261,1.782,2.395c0,1.379-1.119,2.498-2.499,2.498
		s-2.5-1.118-2.5-2.498c0-1.028,0.62-1.91,1.506-2.294V0.877C85.656,0.395,85.263,0,84.778,0c0,0-4.467,0.378-4.467,1.11
		c0,0.202,0.113,0.418,0.113,0.67c0,0.741-0.849,2.439-0.531,3.288c0.319,0.85,0.107,3.502-0.532,5.199
		c-0.635,1.699-2.387,18.039-2.387,18.039c-0.531,11.141-2.76,11.992-2.76,11.992c-2.038,2.208-3.367,4.53-4.218,6.749
		c-1.911,4.879-1.066,13.795-1.066,13.795c0.089,0.7,0.175,1.388,0.258,2.063c0.752,12.074,1.256,20.676,1.594,26.698
		c-0.167,7.323-0.95,11.587-1.409,13.646c-0.155,0.689-0.2,1.143-0.248,1.395c-0.042,0.722-0.1,1.437-0.039,2.046
		c1.014,9.892,4.404,11.021,4.404,11.021c2.839,1.682,12.857,1.491,13.046,1.484c0.189,0.006,10.208,0.198,13.045-1.484
		c0,0,3.409-1.133,4.412-11.098c0.059-0.583-0.001-1.267-0.044-1.954c-0.047-0.26-0.094-0.7-0.241-1.345
		c-0.476-2.089-1.304-6.554-1.435-14.364c0.328-5.821,0.807-13.946,1.499-25.102C103.891,62.866,104.012,61.868,104.143,60.842"/>
	<g id="BEER">
		<polygon fill="#393B3D" points="130.915,112.393 126.849,112.393 126.849,114.262 130.452,114.262 130.452,115.392 
			126.849,115.392 126.849,117.323 130.966,117.323 130.966,118.452 125.585,118.452 125.585,111.265 130.915,111.265 		"/>
		<polygon fill="#393B3D" points="142.924,112.393 138.858,112.393 138.858,114.262 142.462,114.262 142.462,115.392 
			138.858,115.392 138.858,117.323 142.976,117.323 142.976,118.452 137.595,118.452 137.595,111.265 142.924,111.265 		"/>
		<path fill="#393B3D" d="M152.707,112.416h-1.839v2.412h1.847c0.905,0,1.48-0.473,1.48-1.212
			C154.195,112.825,153.64,112.416,152.707,112.416 M154.215,118.452l-1.766-2.505h-1.582v2.505h-1.262v-7.188h3.201
			c1.653,0,2.669,0.873,2.669,2.28c0,1.191-0.707,1.91-1.713,2.187l1.941,2.721H154.215z"/>
		<path fill="#393B3D" d="M117.765,116.336c0-0.616-0.481-0.975-1.478-0.975h-2.003v1.971h2.095
			C117.243,117.332,117.765,116.993,117.765,116.336 M117.366,113.308c0-0.585-0.451-0.925-1.263-0.925h-1.818v1.91h1.726
			C116.82,114.293,117.366,113.975,117.366,113.308 M118.628,113.103c0,0.883-0.492,1.334-1.027,1.612
			c0.842,0.287,1.427,0.771,1.427,1.755c0,1.295-1.056,1.983-2.659,1.983h-3.325v-7.188h3.223
			C117.715,111.265,118.628,111.972,118.628,113.103"/>
	</g>
	<g id="FREE">
		<polygon fill="#393B3D" points="23.345,112.415 19.258,112.415 19.258,114.375 22.883,114.375 22.883,115.526 19.258,115.526 
			19.258,118.452 17.997,118.452 17.997,111.264 23.345,111.264 		"/>
		<polygon fill="#393B3D" points="47.743,112.393 43.677,112.393 43.677,114.262 47.28,114.262 47.28,115.392 43.677,115.392 
			43.677,117.323 47.795,117.323 47.795,118.452 42.415,118.452 42.415,111.265 47.743,111.265 		"/>
		<polygon fill="#393B3D" points="59.753,112.393 55.688,112.393 55.688,114.262 59.291,114.262 59.291,115.392 55.688,115.392 
			55.688,117.323 59.804,117.323 59.804,118.452 54.424,118.452 54.424,111.265 59.753,111.265 		"/>
		<path fill="#393B3D" d="M32.963,112.416h-1.839v2.412h1.848c0.904,0,1.479-0.473,1.479-1.212
			C34.451,112.825,33.896,112.416,32.963,112.416 M34.472,118.452l-1.766-2.505h-1.582v2.505h-1.263v-7.188h3.203
			c1.654,0,2.67,0.873,2.67,2.28c0,1.191-0.708,1.91-1.714,2.187l1.94,2.721H34.472z"/>
	</g>
</g>
</svg>
