<?xml version="1.0" encoding="utf-8"?>
<!-- Generator: Adobe Illustrator 16.0.4, SVG Export Plug-In . SVG Version: 6.00 Build 0)  -->
<!DOCTYPE svg PUBLIC "-//W3C//DTD SVG 1.1//EN" "http://www.w3.org/Graphics/SVG/1.1/DTD/svg11.dtd">
<svg version="1.1" id="Layer_1" xmlns="http://www.w3.org/2000/svg" xmlns:xlink="http://www.w3.org/1999/xlink" x="0px" y="0px"
	 width="466px" height="644px" viewBox="0 0 466 644" enable-background="new 0 0 466 644" xml:space="preserve">
<g>
	<g>
		<path d="M162.357,23.628c0.62,0,1.24,0,1.859,0c5.166,0.936,10.31,2.027,15.504,2.764c5.09,0.722,10.429,0.383,15.305,1.76
			c8.374,2.365,16.566,5.47,24.661,8.699c7.823,3.12,16.233,5.66,22.958,10.456c13.184,9.403,27.909,16.559,39.454,28.5
			c7.734,7.999,17.796,13.699,26.01,21.299c7.881,7.292,14.795,15.642,22.004,23.645c11.283,12.53,22.62,25.021,33.57,37.837
			c2.974,3.48,4.483,8.172,6.944,12.135c4.706,7.578,10.225,14.722,14.21,22.648c2.519,5.01,3.623,11.08,3.844,16.733
			c0.097,2.458-3.623,5.065-5.608,7.604c0.001,0,0.1,0.116,0.1,0.116c-0.155,1.301-0.311,2.602-0.466,3.902l-0.185-0.123
			c0.366,1.311,0.733,2.622,1.1,3.934c0.628,0.505,1.256,1.011,1.885,1.516c3.651,7.006,7.587,13.885,10.847,21.069
			c1.825,4.021,1.788,8.991,3.99,12.701c1.62,2.729,5.353,4.411,8.423,6.03c8.179,4.313,15.502,8.946,21.234,16.972
			c7.909,11.074,13.012,22.852,15.758,35.939c1.524,7.264,3.161,14.504,4.747,21.755c0,10.225,0,20.449,0,30.674
			c-0.366,1.372-0.913,2.724-1.067,4.117c-0.858,7.759-0.926,15.68-2.59,23.254c-2.261,10.293-5.396,20.432-8.738,30.442
			c-4.798,14.369-11.133,27.922-23.616,37.524c-0.485-0.2-0.97-0.4-1.454-0.601c0.112,0.637,0.226,1.271,0.338,1.908
			c-0.607,0.564-1.215,1.128-1.822,1.692c-0.238-0.725-0.477-1.449-0.715-2.175c-0.74,1.754-1.481,3.507-2.222,5.26
			c-3.886-0.771-7.43-0.694-10.384,2.671c-3.449,3.93-6.731,8.274-10.946,11.198c-5.484,3.803-11.981,6.107-17.742,9.56
			c-8.393,5.029-16.616,4.055-25.175,0.668c-1.408-0.558-4.088,0.032-5.177,1.107c-3.492,3.449-6.262,7.636-9.797,11.029
			c-2.607,2.502-5.965,4.226-9.016,6.255c-0.753,0.501-2.349,1.006-2.3,1.231c0.252,1.141,0.695,2.4,1.478,3.237
			c3.861,4.126,7.457,8.647,11.9,12.04c4.975,3.798,10.758,6.536,16.19,9.734c-0.442,0.401-0.885,0.804-1.326,1.206
			c0.64,0.214,1.28,0.428,1.92,0.643c2.626,0.917,5.194,2.343,7.891,2.654c8.019,0.926,16.137,1.054,24.127,2.15
			c13.922,1.909,27.938,3.617,41.591,6.8c6.793,1.584,12.867,6.252,19.266,9.525c0.959,1.616,1.92,3.233,2.879,4.85
			c0.521,0.336,1.041,0.671,1.561,1.007c0.344,1.265,1.335,2.806,0.93,3.747c-3.137,7.299-5.492,15.122-12.21,20.273
			c-3.111,2.387-6.234,4.761-9.353,7.14l0.094,0.093c-1.329,0.163-2.745,0.083-3.972,0.527c-12.342,4.46-25.214,2.94-37.876,3.168
			c-8.523,0.154-17.1-1.694-25.598-1.336c-10.563,0.445-21.133,1.865-31.58,3.587c-7.249,1.194-13.572,4.665-18.297,10.769
			c-0.963,1.243-3.622,1.173-5.5,1.707c-0.024-2.258-5.278-3.28-1.445-6.511c2.111-1.781,3.771-4.124,5.961-5.78
			c12.933-9.786,28.104-11.94,43.678-12.152c8.438-0.114,16.893,0.928,25.324,0.744c12.143-0.265,24.316-0.724,36.389-1.958
			c8.174-0.836,15.956-3.559,21.05-10.941c2.793-4.046,2.907-8.457-0.965-11.435c-3.913-3.009-8.34-6.101-13.006-7.224
			c-10.582-2.545-21.438-3.968-32.202-5.723c-10.149-1.655-20.408-2.756-30.468-4.832c-9.146-1.888-18.291-4.216-27.037-7.436
			c-4.131-1.521-7.425-4.826-12.342-2.633c-0.824,0.367-2.435-0.409-3.391-1.075c-3.031-2.106-6.627-3.896-8.715-6.751
			c-3.749-5.126-9.384-2.297-13.926-4.048c-3.25-1.253-7.913,0.916-11.883,1.833c-5.796,1.338-11.594,3.635-16.714-1.688
			c-0.345-0.358-1.184-0.342-1.79-0.335c-6.411,0.082-12.895-0.357-19.212,0.462c-5.915,0.768-11.358,0.29-16.56-2.389
			c-7.395-3.807-14.396-8.549-22.083-11.578c-13.669-5.388-22.91-16.922-35.348-24.051c-11.009-6.31-18.484-17.1-28.954-24.721
			c-23.188-16.88-38.184-40.404-43.333-69.012c-2.158-11.989-1.35-24.438,3.499-35.959c1.177-2.797,0.831-4.369-0.563-6.414
			c-9.948-14.599-16.834-30.668-22.845-47.182c-0.483-1.327-2.286-3.013-3.556-3.084c-11.994-0.672-18.853-8.436-23.051-18.136
			c-4.239-9.792-7.26-20.236-9.681-30.658c-2.88-12.399-4.807-25.041-6.665-37.649c-1.323-8.978-2.872-18.117-2.479-27.104
			c0.529-12.096,3.621-24.078,4.168-36.175c0.684-15.087,5.329-29.267,8.064-43.874c2.195-11.725,9.222-21.048,15.386-30.781
			c18.246-28.808,43.379-48.395,76.825-56.393c7.51-1.796,15.361-2.155,23.042-3.267C159.06,24.705,160.696,24.079,162.357,23.628z
			 M428.585,312.307c0.099,1.137,0.196,2.273,0.295,3.41c0.852,7.194,1.889,14.373,2.518,21.585
			c1.298,14.896,1.646,29.837-1.326,44.562c-2.546,12.615-6.556,24.969-8.545,37.652c-2.046,13.046-8.977,23.897-13.646,35.755
			c-0.322,0.817-0.947,1.526-1.484,2.246c-6.917,9.277-15.235,16.835-24.957,23.33c-7.182,4.799-14.529,8.628-22.75,10.506
			c-3.195,0.73-6.921-0.699-10.364-1.358c-0.751-0.144-1.326-1.196-1.982-1.831c-0.592,1.231-1.389,2.424-1.645,3.722
			c-0.073,0.367,1.44,1.515,2.218,1.507c5.306-0.056,10.946,0.76,15.843-0.759c9.136-2.831,17.758-6.738,25.578-12.975
			c10.467-8.349,19.794-17.365,24.941-29.721c7.471-17.938,14.844-35.916,17.279-55.536c2.251-18.131,6.284-36.14,4.117-54.512
			c-0.978-8.296-3.479-16.412-5.288-24.609c-0.283-0.977-0.566-1.953-0.851-2.93c-0.415-0.819-0.83-1.637-1.243-2.456
			c-1.395-4.646-2.218-9.566-4.287-13.889c-6.409-13.387-16.775-23.517-28.909-31.602c-6.043-4.027-12.9-7.914-19.884-9.225
			c-15.343-2.879-30.861-1.559-46.04,2.39c-2.636,0.686-5.363,1.424-7.709,2.743c-6.583,3.702-12.981,7.731-19.472,11.6
			c-0.771,0.459-1.656,0.727-2.488,1.083c-0.408,0.205-0.816,0.41-1.226,0.615c-1.378,1.818-2.757,3.635-4.136,5.453l0.157-0.176
			c-1.318,0.868-2.638,1.735-3.956,2.603c4.604-8.809,12.883-13.903,20.341-19.731c3.813-2.98,8.13-5.647,12.638-7.34
			c10.247-3.848,20.907-6.098,31.978-5.786c0.686,0.02,1.888-0.549,1.999-1.038c0.475-2.082-3.9-6.37-6.209-6.825
			c-7.065-1.391-13.64-3.863-17.797-10.271c-16.8-25.894-34.932-50.835-54.929-74.33c-25.25-29.667-53.278-56.105-90.215-70.894
			c-13.269-5.312-26.764-8.837-41.611-5.184c-15.746,3.874-29.246,11.252-40.64,22.333c-3.98,3.871-9.394,7.179-9.708,14.193
			c-0.524,11.732-2.268,23.421-2.541,35.15c-0.398,17.098,1.928,33.946,6.853,50.396c1.847,6.168,4.177,12.349,4.85,18.677
			c1.312,12.342,5.626,23.768,9.221,35.44c3.028,9.831,2.096,18.761-5.771,26.244c-0.627,0.597-0.815,2.187-0.535,3.111
			c1.068,3.525,2.44,6.956,3.648,10.44c2.936,8.47,5.828,16.956,8.769,25.425c0.888,2.556,1.442,2.051,3.105,0.164
			c4.646-5.274,9.184-10.927,14.804-14.99c7.425-5.365,15.758-9.512,23.857-13.892c5.504-2.977,11.036-6.312,16.979-7.993
			c17.491-4.947,35.017-7.929,53.512-3.833c16.027,3.55,30.897,9.692,45.801,16.038c1.857,0.792,2.153,1.006,3.168-0.968
			c2.578-5.019,5.656-9.779,8.553-14.663c1.02-0.115,2.039-0.231,3.058-0.346c-2.309,5.547-4.646,11.083-6.886,16.659
			c-0.257,0.642,0.031,1.504,0.066,2.265c0.454-0.529,0.981-1.011,1.35-1.594c2.666-4.234,4.949-8.764,8.02-12.679
			c6.007-7.661,12.721-14.535,21.706-19.017c8.64-4.309,16.674-10.039,27.1-8.712c1.174,0.149,2.487-0.121,3.632-0.505
			c9.456-3.176,18.812,0.133,27.816,1.554c17.368,2.741,28.176,16.204,38.717,28.75c5.465,6.505,8.879,14.732,13.221,22.181
			C427.711,310.708,428.161,311.496,428.585,312.307z M421.284,596.631c0.756-0.451,1.511-0.902,2.266-1.354
			c1.293-0.562,2.585-1.126,3.878-1.689c1.436-0.773,2.876-1.539,4.289-2.351c0.066-0.038-0.114-0.506-0.18-0.773
			c-1.475,0.925-2.95,1.849-4.425,2.773c-1.191,0.677-2.382,1.352-3.571,2.029c-0.752,0.456-1.503,0.913-2.255,1.369
			c-0.821-0.067-1.643-0.137-2.465-0.205c0.021,0.144,0.051,0.414,0.06,0.413C419.684,596.786,420.483,596.708,421.284,596.631z
			 M375.169,401.884c0.436-1.134,0.87-2.266,1.305-3.398c4.991-12.995,7.735-26.396,7.223-40.372
			c-0.083-2.28-0.298-4.557-0.451-6.834c-0.24,2.155-0.471,4.312-0.724,6.464c-0.124,1.068-0.262,2.136-0.436,3.197
			c-2.022,12.389-4.052,24.777-6.08,37.166c-0.247,1.285-0.496,2.571-0.745,3.858c-0.312,0.493-0.642,0.979-0.912,1.494
			c-0.023,0.046,0.33,0.29,0.508,0.442C374.961,403.229,375.065,402.556,375.169,401.884z M353.339,376.431
			c0.212-0.376,0.504-0.73,0.612-1.134c0.098-0.359-0.008-0.772-0.024-1.162c-0.196,0.773-0.393,1.548-0.59,2.319
			c-0.499-0.123-0.998-0.247-1.497-0.372c-0.044,0.229-0.09,0.46-0.135,0.688C352.249,376.657,352.794,376.543,353.339,376.431z
			 M362.645,394.871c0.452-0.911,0.904-1.822,1.356-2.734c-0.273-0.004-0.771-0.062-0.784-0.007
			c-0.217,0.92-0.372,1.853-0.547,2.776c-0.735,0.118-1.471,0.235-2.202,0.372c-0.006,0.001,0.037,0.264,0.058,0.403
			C361.231,395.411,361.938,395.141,362.645,394.871z M98.825,49.332c-0.853,0.693-1.705,1.386-2.557,2.079
			c-0.92,0.63-1.84,1.259-2.761,1.888c-0.97,0.889-1.939,1.777-2.909,2.666c-1.029,0.628-2.191,1.11-3.068,1.906
			C76.889,67.542,67.272,78.084,60.1,90.659c-3.727,6.534-8.5,12.723-10.86,19.722c-3.264,9.686-5.024,19.93-6.808,30.044
			c-1.356,7.686-1.738,15.542-2.563,23.322c-1.347,12.69-3.913,25.398-3.722,38.064c0.197,13.114,2.226,26.367,4.981,39.233
			c3.235,15.102,7.816,29.944,12.406,44.714c2.473,7.96,6.979,14.794,16.141,16.562c0.761,0.146,1.743-0.855,2.622-1.324
			c-0.666-1.065-1.384-3.085-1.991-3.052c-8.201,0.444-11.413-5.636-13.593-11.462c-3.246-8.674-5.499-17.768-7.578-26.819
			c-3.051-13.278-5.655-26.661-8.289-40.031c-1.174-5.962-2.718-11.999-2.739-18.006c-0.031-8.985,0.491-18.079,1.937-26.937
			c2.343-14.349,1.294-29.149,6.466-43.156c2.797-7.573,3.097-16.159,6.413-23.425c4.454-9.763,10.646-18.747,16.291-27.942
			c1.426-2.324,3.557-4.23,5.448-6.25c5.449-5.818,10.94-11.597,16.414-17.39c0.91-0.95,1.819-1.9,2.729-2.851
			c0.899-0.668,1.799-1.336,2.699-2.004c0.942-0.604,1.885-1.207,2.828-1.811c0.978-0.576,1.955-1.152,2.933-1.729
			c1.113-0.749,2.226-1.498,3.339-2.247c0.745-0.342,1.49-0.684,2.235-1.026c-0.148-0.164-0.296-0.329-0.444-0.493
			c-0.567,0.538-1.134,1.076-1.701,1.613c-1.348,0.482-2.695,0.963-4.043,1.444C100.708,48.059,99.766,48.695,98.825,49.332z
			 M75.336,293.484c0.819-0.869,1.639-1.739,2.458-2.608c-0.333-0.188-0.915-0.589-0.96-0.535c-0.723,0.85-1.376,1.76-2.045,2.655
			c-0.424,0.608-0.848,1.215-1.272,1.823C74.123,294.375,74.729,293.93,75.336,293.484z M333.024,541.663
			c0.952,0.64,1.903,1.277,2.856,1.917c2.171,1.06,4.271,2.328,6.537,3.114c1.787,0.619,3.779,0.646,5.681,0.937
			c-1.627-0.802-3.205-1.729-4.892-2.375c-2.237-0.857-4.559-1.496-6.844-2.229c-0.889-0.671-1.778-1.343-2.667-2.014
			c-0.508-0.324-0.98-0.75-1.534-0.951c-0.997-0.364-2.043-0.594-3.069-0.88c0.853,0.777,1.663,1.609,2.58,2.301
			C331.988,541.723,332.566,541.613,333.024,541.663z M357.18,343.802c0.322-1.049,0.644-2.097,0.965-3.146
			c-0.407,0.115-1.166,0.232-1.165,0.346c0.007,0.914,0.154,1.827,0.259,2.741c1.402,0.013,2.806,0.024,4.209,0.037
			c-0.045-0.609-0.089-1.219-0.134-1.827c-1.106,0.502-2.211,1.007-3.317,1.507C357.722,343.583,357.444,343.697,357.18,343.802z
			 M414.051,597.83c-2.233,0.47-4.467,0.939-6.701,1.408c0.062,0.205,0.161,0.593,0.179,0.589c2.324-0.478,4.642-0.982,6.959-1.487
			c0.758-0.346,1.516-0.692,2.273-1.038C415.858,597.478,414.955,597.654,414.051,597.83z M362.227,347.148
			c-1.052,0.637-2.104,1.272-3.155,1.909c0.668,0.577,1.692,1.77,1.944,1.625c1.142-0.659,2.066-1.696,3.07-2.598
			c0.891-0.779,1.782-1.56,2.673-2.339c-0.887-0.494-2.135-1.609-2.583-1.349C363.292,344.911,362.852,346.188,362.227,347.148z
			 M128.767,458.772c2.357,2.384,4.714,4.77,7.071,7.154c0.145-0.223,0.451-0.607,0.412-0.646c-2.352-2.334-4.731-4.64-7.109-6.947
			c-2.507-3.424-4.993-6.865-7.545-10.257c-0.401-0.532-1.103-0.839-1.667-1.249c0.108,0.671-0.012,1.529,0.361,1.982
			C123.061,452.177,125.93,455.462,128.767,458.772z M330.731,601.688c5.775-0.252,11.551-0.495,17.324-0.783
			c0.351-0.018,0.682-0.403,1.021-0.618c-0.417-0.154-0.854-0.48-1.248-0.437c-5.668,0.622-11.33,1.296-16.999,1.958
			c-0.615-0.021-1.24-0.123-1.842-0.042c-0.773,0.103-1.527,0.352-2.289,0.537c0.851,0.121,1.713,0.384,2.548,0.311
			C329.765,602.568,330.238,602.014,330.731,601.688z M102.857,410.313c0.084,0.896,0.168,1.792,0.252,2.687
			c0.201-0.114,0.59-0.285,0.575-0.335c-0.239-0.798-0.53-1.58-0.809-2.365c0.04-0.611,0.183-1.236,0.103-1.831
			c-1.652-12.301-2.457-24.52,2.373-36.434c0.314-0.776-1.149-2.273-1.786-3.436c-0.562,0.758-1.191,1.478-1.667,2.286
			c-0.515,0.877-0.885,1.838-1.318,2.762c0.098-0.698,0.196-1.397,0.294-2.097c-0.219,0.002-0.438,0.005-0.656,0.007
			c0.122,0.695,0.244,1.391,0.366,2.086c-0.509,7.736-1.237,15.466-1.445,23.211C99.012,401.6,98.751,406.628,102.857,410.313z
			 M107.316,69.919c-0.736,0.77-1.614,1.448-2.186,2.325c-6.876,10.558-14.64,20.43-15.525,34.064
			c-0.752,11.566-4.216,22.94-5.279,34.509c-0.926,10.088-0.229,20.332-0.144,30.506c0.037,4.464-0.138,9.006,0.607,13.373
			c1.574,9.229,3.716,18.361,5.575,27.543c1.035,5.113,1.569,10.363,3.028,15.348c3.928,13.421,8.294,26.713,12.336,40.103
			c0.871,2.887,1.798,6.271-3.071,6.84c-0.177,0.021-0.503,0.893-0.363,1.154c0.704,1.308,1.497,2.577,2.375,3.774
			c0.137,0.187,1.153,0.097,1.288-0.138c3.005-5.238,4.604-10.78,3.029-16.822c-5.564-21.351-11.368-42.641-16.657-64.06
			c-1.752-7.095-2.85-14.48-3.147-21.778c-0.538-13.229-0.456-26.495-0.232-39.739c0.136-8.09,0.641-16.216,1.647-24.242
			c1.951-15.568,8.368-29.438,17.239-42.248c4.791-5.965,9.592-11.921,14.351-17.913c0.386-0.486,0.475-1.21,0.702-1.823
			c-0.512,0.188-1.228,0.22-1.506,0.585C116.662,57.47,111.995,63.699,107.316,69.919z M412.628,462.555
			c4.558-6.164,10.158-11.817,13.479-18.589c9.931-20.254,16.873-41.612,18.838-64.22c1.671-19.228,1.843-38.407-2.552-57.501
			c-3.017-13.108-7.194-25.423-15.895-35.874c-0.433-0.52-1.121-0.826-1.69-1.231c0.157,0.675,0.137,1.469,0.499,2.005
			c5.628,8.331,10.393,16.971,11.676,27.216c1.153,9.195,3.369,18.304,3.875,27.519c0.41,7.454-0.995,15.014-1.649,22.521
			c-1.283,14.718-1.207,29.604-7.658,43.515c-2.051,4.422-1.737,9.882-3.342,14.581c-3.085,9.038-6.685,17.905-10.237,26.777
			c-1.744,4.36-3.858,8.572-5.806,12.85c-0.618,0.919-1.236,1.837-1.854,2.755C411.083,464.104,411.855,463.329,412.628,462.555z
			 M193.963,318.278c-0.38-0.25-0.761-0.5-1.142-0.75c-0.046,0.251-0.092,0.503-0.138,0.754c0.416,0.016,0.832,0.033,1.247,0.05
			c-7.24,1.18-14.494,2.281-21.713,3.58c-2.85,0.512-5.787,1.101-8.395,2.287c-10.161,4.623-19.069,11.134-26.818,19.132
			c-0.924,0.954-1.288,3.828-0.56,4.8c11.267,15.023,22.521,30.07,34.287,44.7c6.852,8.521,14.423,16.493,22.051,24.343
			c3.136,3.229,3.471,6.344-0.366,8.761c-8.027,5.057-16.2,9.903-24.004,15.283c-3.708,2.556-6.49,1.811-9.101-0.928
			c-4.997-5.239-10.147-10.4-14.562-16.113c-9.802-12.684-19.183-25.692-28.762-38.547c-0.485-0.651-1.22-1.114-1.839-1.665
			c-0.375,0.664-0.958,1.287-1.091,1.995c-1.013,5.391-2.372,10.765-2.796,16.207c-0.792,10.135,3.767,19.161,7.096,28.322
			c2.026,5.575,4.626,11.219,8.19,15.899c7.446,9.781,15.322,19.302,23.737,28.257c7.598,8.085,16.139,15.285,24.308,22.828
			c0.418,0.387,1.241,0.336,1.875,0.488c-0.292-0.512-0.545-1.049-0.88-1.531c-3.65-5.269-8.083-10.159-10.816-15.865
			c-6.244-13.033-2.033-28.442,9.041-35.712c0.93-0.61,2.317-0.524,3.492-0.762c-0.739,1.237-1.179,2.963-2.267,3.629
			c-6.297,3.857-9.354,10.847-8.636,18.199c0.972,9.945,5.08,17.907,12.377,24.733c11.891,11.122,25.31,16.407,41.599,12.705
			c0.532-0.121,1.027-0.407,1.539-0.616c-0.571-0.235-1.156-0.704-1.711-0.67c-8.681,0.526-16.8-0.671-25.111-4.062
			c-14.271-5.821-22.203-16.153-25.78-30.509c-1.654-6.64,4.065-16.731,9.964-17.917c1.181-0.237,2.449-0.041,3.677-0.044
			c-0.885,0.633-1.827,1.2-2.643,1.912c-1.939,1.689-4.177,3.187-5.658,5.223c-5.264,7.242-2.132,17.125,2.829,24.801
			c5.298,8.198,13.182,12.475,21.845,15.116c8.655,2.64,17.759,3.972,26.52-0.347c1.885-0.928,3.636-2.128,5.448-3.203
			c-1.081,2.161-2.154,4.325-3.251,6.478c-0.128,0.253-0.369,0.457-0.582,0.656c-0.373,0.351-0.766,0.68-1.149,1.019
			c0.596,0.077,1.449,0.447,1.748,0.187c2.45-2.149,5.309-4.07,7.089-6.706c9.364-13.86,6.91-29.853-6.772-39.317
			c-8.144-5.634-17.434-9.591-26.088-14.514c-4.494-2.558-8.65-2.365-13.088,0.015c-1.852,0.994-4.032,1.478-6.122,1.887
			c-1.157,0.227-2.438-0.181-3.663-0.302c0.949-0.998,1.714-2.418,2.877-2.923c7.544-3.277,15.808-4.97,23.458-2.464
			c15.374,5.038,29.48,11.86,38.242,27.293c4.819,8.486,3.685,16.212,2.771,24.61c-0.749,6.889-3.852,12.899-9.68,16.083
			c-9.501,5.19-20.189,7.147-30.852,4.868c-7.238-1.547-14.072-4.977-21.102-7.524c-0.942-0.341-1.972-0.442-2.962-0.656
			c0.537,0.711,0.955,1.571,1.631,2.105c2.277,1.796,4.587,3.563,6.99,5.185c16.167,10.913,32.276,21.942,53.367,19.517
			c2.839-0.327,5.841,0.685,8.662,0.302c5.914-0.801,11.787-1.986,17.629-3.244c18.84-4.06,35.081-13.001,49.439-25.819
			c9.029-8.061,12.24-19.336,14.853-29.864c2.281-9.197,0.898-19.936-1.237-29.462c-4.102-18.293-12.589-34.99-23.937-49.919
			c-8.752-11.514-17.899-22.832-27.866-33.288c-10.886-11.418-24.059-20.012-38.137-27.359
			C227.223,321.877,211.378,317.072,193.963,318.278z M97.7,281.016c-0.66,0.336-1.123,0.479-1.471,0.763
			c-5.401,4.41-10.865,8.75-16.119,13.331c-1.208,1.053-1.419,3.19-2.544,4.41c-2.978,3.229,0.242,5.57,1.104,8.044
			c3.673,10.537,7.085,21.232,11.747,31.336c3.672,7.961,8.92,15.213,13.675,22.648c4.309,6.737,8.639,13.487,13.423,19.887
			c7.421,9.924,15.017,19.734,22.948,29.253c7.197,8.637,14.887,16.868,22.536,25.113c0.662,0.713,3.005,0.766,3.958,0.162
			c5.956-3.771,11.586-8.069,17.634-11.674c3.589-2.14,3.861-3.438,0.967-6.601c-21.274-23.243-40.296-48.231-57.685-74.516
			c-10.26-15.509-19.175-31.473-23.258-49.867c-0.89-4.009-3.665-7.606-5.639-11.358C98.744,281.505,98.085,281.285,97.7,281.016z
			 M212.095,286.233c6.544,0.781,13.246,0.918,19.598,2.478c13.11,3.218,26.218,6.311,37.563,14.679
			c7.565,5.581,17.454,8.253,24.395,14.386c10.803,9.547,20.424,20.559,29.732,31.633c9.861,11.732,16.626,25.311,21.213,40.062
			c4.075,13.106,9.381,25.841,11.038,39.61c0.255,2.122,0.456,4.249,0.683,6.374c0.45-2.535,1.009-5.057,1.309-7.609
			c0.178-1.52,0.148-3.125-0.132-4.627c-3.204-17.189-6.66-34.114-14.832-50.056c-7.952-15.514-17.525-29.896-29.316-42.227
			c-9.835-10.284-22.016-18.729-34.25-26.198c-11.704-7.146-24.488-12.903-37.42-17.537c-9.69-3.473-20.341-5.551-30.612-5.744
			c-9.476-0.178-19.142,2.478-28.478,4.855c-5.844,1.488-11.355,4.53-16.786,7.322c-4.333,2.228-8.351,5.081-12.45,7.747
			c-6.152,4.003-12.486,7.784-18.294,12.243c-3.905,2.999-7.051,6.989-10.498,10.573c-0.794,0.826-2.021,1.83-1.983,2.706
			c0.042,1.007,1.27,1.964,1.982,2.941c1.061-0.796,2.567-1.363,3.113-2.425c7.395-14.368,21.851-19.777,34.747-26.818
			c7.438-4.061,16.245-5.534,23.994-9.125C194.68,287.643,203.107,286.271,212.095,286.233z M391.561,255.193
			c-0.384-1.629-0.488-2.57-0.822-3.42c-3.48-8.85-7.25-17.597-10.401-26.562c-1.604-4.565-2.923-2.812-5.17-0.748
			c-3.384,3.107-6.864,6.154-10.601,8.81c-2.19,1.557-4.954,2.306-7.461,3.418c1.661,2.721,3.633,5.305,4.896,8.2
			c1.276,2.923,2.788,4.125,6.189,4.027c6.666-0.194,12.976,1.562,18.666,5.245c1.02,0.659,2.221,1.072,3.387,1.448
			C390.605,255.728,391.127,255.342,391.561,255.193z M296.032,531.008c6.11-0.058,14.287-6.094,16.161-11.539
			c0.385-1.119,0.199-3.215-0.543-3.773c-1.366-1.029-3.821-2.223-4.979-1.648c-5.882,2.915-11.509,6.348-17.175,9.686
			c-0.621,0.365-1.324,1.849-1.305,1.862C290.979,527.602,293.831,529.521,296.032,531.008z M326.082,532.087
			c-0.05-0.277,0.026-0.87-0.233-1.164c-1.835-2.063-3.798-4.015-5.604-6.103c-2.057-2.379-3.715-3.758-5.669,0.265
			c-0.888,1.826-2.629,3.477-4.372,4.606c-5.815,3.771-5.881,4.054,0.088,7.809c1.044,0.656,2.066,1.352,3.144,1.949
			C317.519,541.719,326.084,536.844,326.082,532.087z M165.752,29.82c-2.402-0.35-3.491-0.795-4.445-0.598
			c-4.521,0.938-9.117,0.854-13.222,4.181c-3.881,3.146-8.994,4.756-13.493,7.174c-0.767,0.412-1.173,1.494-1.745,2.267
			c0.801-0.277,1.613-0.526,2.402-0.837c9.182-3.619,18.36-7.246,27.538-10.875C163.31,30.926,163.817,30.679,165.752,29.82z
			 M389.298,601.191c0.005-0.125,0.01-0.25,0.016-0.374c2.619,0,5.246,0.118,7.852-0.058c1.067-0.071,2.092-0.781,3.136-1.201
			c-1.097-0.234-2.187-0.641-3.29-0.675c-9.356-0.289-18.714-0.52-28.073-0.727c-0.521-0.012-1.051,0.346-1.576,0.531
			c0.564,0.378,1.105,1.043,1.696,1.089C375.8,600.303,382.55,600.734,389.298,601.191z M344.536,302.348
			c-3.053,1.137-6.868,2.525-10.646,4.008c-0.485,0.191-0.777,0.876-1.16,1.332c0.571,0.055,1.175,0.257,1.709,0.14
			c3.712-0.815,7.417-1.673,11.11-2.568c1.757-0.426,3.487-0.964,5.229-1.451C349.069,303.409,347.362,303.009,344.536,302.348z
			 M368.812,345.318c-1.623,2.352-3.136,4.521-4.534,6.76c-0.023,0.039,1.836,1.492,1.981,1.361
			c1.894-1.708,3.637-3.582,5.417-5.415C371.246,347.619,370.817,347.214,368.812,345.318z M94.829,278.057
			c-0.762-0.349-1.214-0.696-1.352-0.599c-2.448,1.726-4.864,3.499-7.248,5.312c-0.068,0.052,0.298,0.675,0.461,1.031
			C89.273,281.978,91.857,280.154,94.829,278.057z M369.542,338.775c-1.007,0.887-1.863,1.639-2.72,2.393
			c0.79,0.719,1.989,2.191,2.298,2.023c1.213-0.657,2.146-1.832,3.182-2.814C371.562,339.947,370.822,339.519,369.542,338.775z
			 M363.025,310.524c-1.102,1.198-1.778,1.933-2.456,2.669c1.125,0.75,2.215,1.565,3.4,2.201c0.256,0.138,0.857-0.367,1.299-0.576
			C364.596,313.529,363.922,312.24,363.025,310.524z M387.486,557.563c1.572-0.282,2.744-0.493,3.916-0.703
			c-1.185-0.283-2.37-0.567-3.556-0.846c-0.148-0.034-0.303-0.045-0.455-0.051c-2.526-0.107-5.055-0.211-7.582-0.315
			C382.464,556.311,385.117,556.973,387.486,557.563z M359.73,324.896c-1.027,0.947-1.727,1.591-2.425,2.234
			c0.73,0.731,1.418,1.977,2.204,2.043c0.727,0.061,1.559-1.142,2.345-1.788C361.25,326.677,360.645,325.969,359.73,324.896z
			 M358.235,313.075c1.09-1.212,2.168-2.364,3.138-3.6c0.063-0.081-0.952-1.236-1.05-1.179c-1.659,0.97-3.253,2.053-4.861,3.111
			C356.228,311.868,356.993,312.329,358.235,313.075z M113.794,436.609c-0.252,0.096-0.445,0.148-0.441,0.172
			c0.124,0.859,0.02,1.874,0.452,2.543c1.313,2.035,2.833,3.936,4.273,5.89c0.093-0.121,0.291-0.275,0.265-0.357
			c-0.272-0.849-0.458-1.758-0.903-2.512C116.281,440.386,115.005,438.497,113.794,436.609z M355.556,356.928
			c-1.497-0.751-2.501-1.479-3.604-1.689c-0.399-0.076-1.034,1.083-1.562,1.679c1.021,0.5,2.005,1.168,3.085,1.418
			C353.914,358.438,354.565,357.63,355.556,356.928z M350.662,333.225c0.755-1.391,1.554-2.274,1.626-3.214
			c0.046-0.576-1.305-1.859-1.542-1.752c-0.894,0.406-1.741,1.154-2.259,1.99C348.335,330.493,349.335,331.45,350.662,333.225z
			 M344.9,345.608c-1.023-0.79-1.794-1.813-2.34-1.707c-0.831,0.165-1.506,1.114-2.247,1.729c0.564,0.614,1.211,1.791,1.677,1.723
			C342.89,347.224,343.687,346.391,344.9,345.608z M372.076,366.833c-1.376,1.575-2.326,2.536-3.04,3.646
			c-0.086,0.132,1.11,1.088,1.713,1.661c0.597-0.926,1.326-1.797,1.734-2.8C372.688,368.839,372.308,368.099,372.076,366.833z
			 M363.54,332.469c0.888-1.306,1.521-2.238,2.155-3.171c-0.58-0.288-1.413-0.97-1.692-0.79c-0.827,0.531-1.51,1.355-2.056,2.191
			C361.859,330.834,362.755,331.613,363.54,332.469z M342.311,313.476c-1.014,1.247-1.836,2.04-2.332,3.001
			c-0.146,0.284,0.631,1.043,0.985,1.585c0.858-0.772,1.81-1.472,2.504-2.369C343.63,315.484,342.918,314.6,342.311,313.476z
			 M341.216,349.679c-1.122-0.806-1.86-1.713-2.689-1.805c-0.612-0.067-1.344,0.929-2.021,1.45c0.722,0.688,1.347,1.677,2.201,1.952
			C339.203,351.436,340.067,350.45,341.216,349.679z M341.297,327.375c1.006,0.498,1.675,1.008,1.836,0.879
			c1.033-0.82,1.955-1.78,2.914-2.695c-0.381-0.332-0.993-1.017-1.107-0.942C343.847,325.33,342.838,326.172,341.297,327.375z
			 M370.348,330.597c-1.285,2.067-2.506,3.281-2.261,3.8c0.438,0.925,1.763,1.429,2.717,2.107c0.244-0.515,0.717-1.047,0.682-1.541
			C371.422,334.068,371.056,333.195,370.348,330.597z M354.443,334.592c0.834-0.899,1.703-1.512,2.009-2.335
			c0.112-0.301-1.26-1.664-1.695-1.55c-0.873,0.228-1.565,1.14-2.332,1.771C352.985,333.064,353.546,333.651,354.443,334.592z
			 M348.604,322.937c0.916-1.009,1.625-1.691,2.165-2.488c0.083-0.122-0.802-1.167-0.914-1.113
			c-0.863,0.418-1.705,0.939-2.392,1.598C347.353,321.039,348.053,321.99,348.604,322.937z M357.653,324.213
			c-0.861-0.494-1.706-1.274-2.017-1.101c-0.825,0.463-1.42,1.336-2.107,2.047c0.576,0.437,1.397,1.361,1.684,1.218
			C356.066,325.949,356.71,325.102,357.653,324.213z M372.979,354.047c0.271-0.472,0.544-0.943,0.816-1.416
			c-0.586-0.046-1.292-0.323-1.733-0.093c-1.105,0.579-2.092,1.389-3.126,2.105c0.508,0.409,1.201,1.268,1.487,1.147
			C371.354,355.401,372.138,354.656,372.979,354.047z M367.23,369.128c1.537-1.415,2.614-2.391,3.637-3.421
			c0.031-0.033-0.703-0.936-0.74-0.911c-1.089,0.71-2.183,1.434-3.15,2.295C366.777,367.269,367.071,368,367.23,369.128z
			 M355.905,351.509c-0.475,0.538-0.885,1.005-1.296,1.471c0.795,0.547,1.534,1.251,2.413,1.561c0.339,0.12,0.994-0.652,1.505-1.019
			C357.746,352.921,356.964,352.32,355.905,351.509z M350.555,354.381c-0.814-0.422-1.381-0.933-1.636-0.808
			c-0.853,0.419-1.593,1.065-2.376,1.623c0.56,0.386,1.237,1.184,1.652,1.064C348.924,356.052,349.491,355.28,350.555,354.381z
			 M358.093,356.979c-1.454,1.57-1.94,2.096-2.426,2.621c0.871,0.486,1.706,1.093,2.639,1.387c0.295,0.094,1.282-0.777,1.219-0.988
			C359.241,359.049,358.694,358.178,358.093,356.979z M332.038,342.876c0.962-1.327,1.68-2.27,2.294-3.275
			c0.039-0.063-1.053-0.937-1.085-0.904c-0.804,0.812-1.593,1.656-2.224,2.602C330.914,341.462,331.529,342.109,332.038,342.876z
			 M372.174,359.131c-0.341-0.237-0.76-0.611-0.821-0.56c-1.129,0.95-2.224,1.941-3.26,2.991c-0.031,0.029,0.671,0.783,1.032,1.2
			C370.074,361.631,371.024,360.498,372.174,359.131z M342.876,324.142c-0.362-0.558-0.564-0.87-0.768-1.182
			c-1.021,0.816-2.071,1.601-3.022,2.492c-0.102,0.096,0.377,0.811,0.586,1.237C340.698,325.872,341.726,325.057,342.876,324.142z
			 M334.997,348.977c0.584-0.947,1.414-1.894,1.256-2.11c-0.571-0.776-1.435-1.381-2.291-1.868
			c-0.188-0.107-0.803,0.534-1.222,0.831C333.427,346.785,334.112,347.743,334.997,348.977z M363.91,356.453
			c-1.171-0.762-1.799-1.325-2.532-1.573c-0.315-0.107-0.852,0.437-1.288,0.685c0.456,0.666,0.789,1.541,1.42,1.913
			C361.845,357.676,362.694,357.003,363.91,356.453z M337.514,346.003c1.127-1.272,1.833-1.988,2.41-2.798
			c0.101-0.141-0.349-0.671-0.544-1.022c-0.805,0.625-1.66,1.2-2.373,1.916C336.853,344.255,337.209,344.92,337.514,346.003z
			 M370.307,324.776c-1.046-0.552-1.69-1.054-2.4-1.18c-0.264-0.046-1.061,1.043-0.968,1.181c0.468,0.696,1.147,1.249,1.754,1.854
			C369.12,326.14,369.548,325.648,370.307,324.776z M347.359,365.352c-1.021-0.791-1.773-1.456-2.623-1.959
			c-0.148-0.088-0.701,0.507-1.066,0.787c0.629,0.77,1.205,1.599,1.938,2.25C345.73,366.537,346.542,365.867,347.359,365.352z
			 M353.774,341.327c0.693-0.973,1.253-1.756,1.811-2.54c-0.452-0.305-1.189-0.955-1.312-0.855c-0.764,0.626-1.39,1.42-2.062,2.157
			C352.631,340.421,353.05,340.753,353.774,341.327z M350.658,339.387c0.497-0.932,1.305-1.84,1.107-2.207
			c-0.348-0.645-1.273-1.19-2.029-1.307c-0.361-0.056-1.257,0.983-1.235,1.499C348.521,337.854,349.433,338.299,350.658,339.387z
			 M333.782,331.041c-0.552,1.07-1.122,1.78-1.236,2.558c-0.064,0.43,0.638,0.973,0.995,1.464c0.554-0.649,1.351-1.229,1.567-1.976
			C335.233,332.66,334.412,331.96,333.782,331.041z M367.283,338.739c-1.04-0.666-1.746-1.424-2.107-1.285
			c-0.72,0.277-1.249,1.048-1.857,1.613c0.413,0.31,0.88,0.927,1.227,0.866C365.315,339.796,366.024,339.319,367.283,338.739z
			 M337.229,332.126c-0.988,1.976-1.486,2.731-1.72,3.56c-0.086,0.307,0.45,0.787,0.703,1.188c0.655-0.538,1.38-1.019,1.923-1.653
			C338.291,335.04,337.923,334.41,337.229,332.126z M360.56,334.426c-0.73-0.492-1.524-1.17-1.631-1.074
			c-0.725,0.644-1.304,1.45-1.93,2.203c0.489,0.237,1.139,0.796,1.435,0.646C359.169,335.833,359.744,335.143,360.56,334.426z
			 M367.49,358.781c-0.715-0.605-1.271-1.316-1.499-1.224c-0.613,0.25-1.087,0.844-1.616,1.303c0.332,0.348,0.724,1.024,0.983,0.979
			C365.991,359.725,366.562,359.272,367.49,358.781z M346.019,333.13c-0.444,0.521-1.146,0.985-1.179,1.492
			c-0.028,0.447,0.837,1.404,1.049,1.335c0.778-0.25,1.447-0.836,2.158-1.295C347.479,334.233,346.912,333.805,346.019,333.13z
			 M356.637,379.137c0.346-0.469,0.69-0.938,1.035-1.406c-0.755-0.208-1.521-0.602-2.262-0.563
			c-0.609,0.032-1.191,0.579-1.785,0.897c0.506,0.479,0.944,1.102,1.544,1.384C355.529,379.619,356.139,379.259,356.637,379.137z
			 M365.587,363.041c-0.927,0.828-1.664,1.486-2.401,2.145c0.391,0.408,1.027,1.223,1.131,1.159c0.843-0.511,1.609-1.161,2.31-1.859
			C366.683,364.429,366.065,363.699,365.587,363.041z M363.852,320.699c-0.529,0.611-0.89,1.027-1.25,1.442
			c0.771,0.523,1.515,1.107,2.347,1.503c0.122,0.057,0.669-0.782,1.021-1.206C365.317,321.903,364.665,321.368,363.852,320.699z
			 M355.74,315.789c-0.921-0.516-1.562-1.162-2.133-1.104c-0.472,0.047-0.862,0.923-1.289,1.433c0.573,0.402,1.14,1.1,1.721,1.113
			C354.519,317.241,355.016,316.441,355.74,315.789z M345.565,320.675c0.808-1.107,1.314-1.803,1.821-2.499
			c-0.438-0.276-1.088-0.886-1.274-0.768c-0.608,0.388-1.166,0.981-1.49,1.623C344.501,319.271,345.079,319.864,345.565,320.675z
			 M354.252,350.778c-1.272-0.53-1.84-0.994-2.197-0.866c-0.611,0.218-1.091,0.806-1.624,1.237c0.443,0.211,0.903,0.618,1.328,0.586
			C352.355,351.688,352.926,351.313,354.252,350.778z M349.896,361.942c-1.006-0.471-1.616-0.85-2.28-1.007
			c-0.18-0.044-0.519,0.58-0.783,0.898c0.64,0.344,1.258,0.749,1.935,0.991C348.938,362.886,349.293,362.429,349.896,361.942z
			 M354.521,365.032c-1.097-0.633-1.805-1.11-2.577-1.435c-0.178-0.074-0.576,0.378-0.874,0.588
			c0.664,0.508,1.295,1.074,2.016,1.482C353.276,365.775,353.742,365.393,354.521,365.032z M362.228,319.946
			c-0.878-0.597-1.394-1.148-2.006-1.292c-0.403-0.095-0.944,0.396-1.425,0.624c0.523,0.584,0.971,1.296,1.612,1.685
			C360.64,321.101,361.341,320.463,362.228,319.946z M347.709,347.191c-0.808-0.463-1.419-1.02-1.631-0.896
			c-0.592,0.348-1.108,0.925-1.454,1.528c-0.098,0.169,0.496,0.735,0.772,1.119C346.039,348.457,346.68,347.971,347.709,347.191z
			 M348.902,341.441c-1.157-0.951-1.643-1.662-2.192-1.715c-0.554-0.055-1.17,0.545-1.758,0.859
			c0.361,0.376,0.671,0.974,1.098,1.075C346.66,341.807,347.358,341.589,348.902,341.441z M373.183,555.559
			c0.744-0.274,1.389-0.513,2.034-0.751c-0.563-0.167-1.123-0.454-1.689-0.468c-0.562-0.014-1.132,0.247-1.698,0.387
			C372.26,554.991,372.691,555.257,373.183,555.559z M97.083,386.286c0.243,0.621,0.493,1.262,0.743,1.902
			c0.153-0.421,0.448-0.849,0.428-1.261c-0.036-0.742-0.262-1.476-0.408-2.213C97.615,385.189,97.385,385.664,97.083,386.286z
			 M341.126,338.774c0.833,0.464,1.329,0.965,1.664,0.873c0.492-0.135,1.08-0.629,1.218-1.093c0.091-0.303-0.699-1.224-0.821-1.176
			C342.59,337.615,342.086,338.083,341.126,338.774z M349.735,374.424c1.015-0.779,1.554-1.195,2.093-1.61
			c-0.346-0.435-0.691-0.869-1.037-1.305c-0.394,0.338-0.919,0.607-1.138,1.034C349.478,372.889,349.671,373.424,349.735,374.424z
			 M367.895,398.186c-0.507-0.312-0.96-0.725-1.082-0.643c-0.454,0.306-0.8,0.772-1.188,1.18c0.346,0.299,0.691,0.598,1.037,0.896
			C367.021,399.201,367.38,398.783,367.895,398.186z M104.444,415.498c-0.291,0.771-0.547,1.103-0.474,1.325
			c0.23,0.709,0.583,1.379,0.889,2.064c0.266-0.147,0.778-0.378,0.761-0.429C105.339,417.633,104.992,416.831,104.444,415.498z
			 M337.604,341.633c-0.548-0.343-1.007-0.734-1.093-0.666c-0.688,0.558-1.308,1.202-1.948,1.82
			c0.263,0.237,0.697,0.722,0.764,0.676C336.035,342.971,336.686,342.395,337.604,341.633z M351.718,367.799
			c-1.415-0.569-2.057-1.022-2.682-1.003c-0.345,0.011-0.665,0.814-0.997,1.261c0.54,0.219,1.072,0.576,1.624,0.609
			C350.095,368.693,350.55,368.316,351.718,367.799z M357.27,391.578c0.604-0.833,1.022-1.412,1.442-1.991
			c-0.344-0.099-0.817-0.387-1.004-0.259c-0.461,0.318-0.838,0.799-1.137,1.282C356.509,390.713,356.921,391.109,357.27,391.578z
			 M349.539,311.208c-0.202,1.068-0.462,1.681-0.382,2.246c0.068,0.477,0.606,1.304,0.803,1.268c0.597-0.114,1.128-0.57,1.685-0.893
			C351.289,313.386,350.934,312.943,349.539,311.208z M358.659,346.843c-1-0.482-1.535-0.915-2.098-0.954
			c-0.428-0.029-0.892,0.441-1.339,0.689c0.517,0.436,0.978,1.037,1.572,1.239C357.128,347.931,357.687,347.379,358.659,346.843z
			 M346.885,352.666c-0.678-0.3-1.155-0.625-1.254-0.535c-0.656,0.601-1.263,1.267-1.797,1.977c-0.071,0.094,0.354,0.562,0.55,0.855
			C345.127,354.28,345.87,353.599,346.885,352.666z M343.821,351.132c-0.604-0.259-1.102-0.605-1.224-0.503
			c-0.659,0.551-1.225,1.214-1.822,1.838c0.363,0.28,0.987,0.854,1.051,0.797C342.476,352.687,343.035,352.007,343.821,351.132z
			 M373.48,551.313c-0.77,0.253-1.449,0.478-2.129,0.701c0.524,0.205,1.052,0.579,1.573,0.572c0.704-0.01,1.403-0.312,2.104-0.489
			C374.524,551.842,374.019,551.586,373.48,551.313z M370.809,377.374c-0.521-0.4-0.932-0.86-1.063-0.791
			c-0.503,0.266-0.973,0.657-1.331,1.102c-0.107,0.132,0.188,0.59,0.298,0.897C369.324,378.229,369.938,377.876,370.809,377.374z
			 M99.407,379.724c-0.337-0.566-0.554-0.929-0.771-1.293c-0.158,0.416-0.427,0.828-0.442,1.248
			c-0.014,0.407,0.234,0.824,0.366,1.236C98.843,380.518,99.125,380.12,99.407,379.724z M368.43,386.733
			c-0.797,0.927-1.306,1.476-1.736,2.079c-0.049,0.065,0.338,0.443,0.523,0.677c0.471-0.374,1.021-0.688,1.377-1.151
			C368.757,388.125,368.537,387.617,368.43,386.733z M364.378,412.422c-1.398-0.918-1.852-1.291-1.906-1.239
			c-0.413,0.387-0.83,0.821-1.062,1.324c-0.08,0.172,0.43,0.871,0.55,0.842C362.639,413.182,363.28,412.867,364.378,412.422z
			 M369.124,550.949c-1.137-0.191-1.706-0.369-2.271-0.355c-0.413,0.01-0.82,0.27-1.23,0.418c0.617,0.216,1.221,0.52,1.855,0.61
			C367.812,551.67,368.201,551.346,369.124,550.949z M380.648,552.769c1.054,0.408,1.422,0.688,1.75,0.648
			c0.623-0.075,1.224-0.333,1.835-0.516c-0.4-0.129-0.798-0.345-1.203-0.365C382.483,552.509,381.93,552.633,380.648,552.769z
			 M309.736,609.7c-0.673-0.207-1.098-0.493-1.358-0.384c-0.53,0.219-0.971,0.653-1.448,1c0.21,0.23,0.529,0.694,0.61,0.655
			C308.2,610.66,308.814,610.254,309.736,609.7z M338.583,331.105c0.519,0.555,0.827,1.087,1.017,1.048
			c0.525-0.11,1-0.458,1.495-0.711c-0.236-0.355-0.473-1.009-0.708-1.008C339.889,330.436,339.392,330.777,338.583,331.105z
			 M367.982,330.917c-0.739,0.796-1.25,1.293-1.671,1.857c-0.062,0.082,0.311,0.487,0.482,0.742
			c0.537-0.482,1.107-0.936,1.583-1.472C368.471,331.939,368.202,331.513,367.982,330.917z M336.618,327.502
			c-0.534,1.01-0.986,1.518-1.013,2.047c-0.017,0.313,0.688,0.966,0.984,0.921c0.473-0.07,1.048-0.522,1.241-0.962
			C337.941,329.258,337.379,328.713,336.618,327.502z M363.283,362.505c-0.482-0.555-0.771-1.126-1.001-1.103
			c-0.529,0.053-1.029,0.394-1.541,0.617c0.265,0.375,0.495,1.022,0.803,1.062C362.012,363.14,362.534,362.778,363.283,362.505z
			 M351.726,343.487c-0.471-0.618-0.712-1.153-1.124-1.384c-0.218-0.123-0.732,0.284-1.113,0.451c0.253,0.496,0.451,1.04,0.8,1.456
			C350.369,344.107,350.964,343.775,351.726,343.487z M352.917,369.2c-0.154,0.438-0.447,0.937-0.345,1.038
			c0.298,0.297,0.754,0.574,1.148,0.577c0.199,0.001,0.402-0.609,0.604-0.944C353.93,369.683,353.535,369.495,352.917,369.2z
			 M231.509,102.972c-0.127,0.191-0.395,0.431-0.349,0.561c0.086,0.243,0.354,0.421,0.545,0.627c0.127-0.19,0.395-0.426,0.351-0.559
			C231.974,103.356,231.71,103.173,231.509,102.972z M349.761,347.865c-0.636,0.769-1.126,1.287-1.498,1.881
			c-0.062,0.101,0.387,0.52,0.599,0.792c0.424-0.399,0.953-0.739,1.231-1.222C350.237,349.066,349.938,348.561,349.761,347.865z
			 M354.012,322.588c-0.66-0.325-1.065-0.676-1.247-0.584c-0.497,0.251-0.939,0.656-1.307,1.083
			c-0.071,0.081,0.296,0.541,0.46,0.826C352.507,323.541,353.097,323.168,354.012,322.588z M362.74,599.132
			c0.356-0.247,0.581-0.402,0.805-0.558c-0.351-0.177-0.687-0.434-1.056-0.496c-0.188-0.031-0.437,0.284-0.657,0.443
			C362.147,598.733,362.463,598.946,362.74,599.132z M127.49,47.933c-0.142-0.426-0.218-0.656-0.294-0.887
			c-0.508,0.313-1.031,0.604-1.504,0.963c-0.061,0.046,0.138,0.437,0.217,0.667C126.429,48.432,126.951,48.186,127.49,47.933z
			 M358.258,387.49c0.79-0.74,1.304-1.223,1.818-1.704c-0.278-0.206-0.67-0.645-0.814-0.575c-0.51,0.248-0.976,0.632-1.361,1.053
			C357.798,386.375,358.046,386.806,358.258,387.49z M357.192,383.216c-0.688-0.268-1.2-0.614-1.349-0.497
			c-0.434,0.342-0.724,0.868-1.069,1.323c0.36,0.224,0.875,0.716,1.051,0.616C356.29,384.393,356.607,383.869,357.192,383.216z
			 M435.25,390.934c-0.198,0.374-0.452,0.633-0.44,0.88c0.018,0.398,0.21,0.788,0.328,1.183c0.148-0.236,0.422-0.474,0.419-0.707
			C435.55,391.871,435.379,391.455,435.25,390.934z M421.144,279.325c-0.306-0.244-0.633-0.504-0.959-0.765
			c-0.093,0.244-0.333,0.602-0.25,0.71c0.246,0.319,0.621,0.539,0.945,0.798C420.958,279.849,421.035,279.63,421.144,279.325z
			 M434.863,398.535c-0.19-0.472-0.351-0.87-0.511-1.268c-0.229,0.457-0.581,0.898-0.645,1.378c-0.04,0.3,0.354,0.656,0.552,0.987
			C434.459,399.271,434.658,398.909,434.863,398.535z M357.309,316.252c-0.36,0.987-0.627,1.392-0.617,1.79
			c0.009,0.318,0.354,0.627,0.549,0.94c0.328-0.263,0.767-0.47,0.942-0.811C358.278,317.984,357.931,317.569,357.309,316.252z
			 M354.886,344.885c-0.554-0.23-0.862-0.453-1.173-0.456c-0.206-0.001-0.614,0.364-0.585,0.472
			c0.087,0.324,0.344,0.603,0.536,0.899C353.986,345.559,354.308,345.316,354.886,344.885z M416.538,558.974
			c0.249-0.13,0.488-0.254,0.728-0.378c-0.223-0.145-0.44-0.395-0.671-0.405c-0.234-0.011-0.481,0.212-0.723,0.332
			C416.092,558.672,416.312,558.82,416.538,558.974z M364.997,375.629c-0.246,0.14-0.55,0.222-0.682,0.42
			c-0.073,0.11,0.14,0.411,0.224,0.627c0.315-0.175,0.632-0.35,0.946-0.524C365.325,375.979,365.163,375.808,364.997,375.629z
			 M372.178,344.581c0.249,0.143,0.501,0.287,0.752,0.433c0.081-0.276,0.283-0.595,0.206-0.816
			c-0.066-0.196-0.444-0.286-0.686-0.424C372.361,344.036,372.271,344.299,372.178,344.581z M370.371,382.59
			c-0.15-0.357-0.25-0.595-0.352-0.833c-0.313,0.24-0.664,0.447-0.917,0.739c-0.065,0.074,0.173,0.415,0.271,0.633
			C369.705,382.95,370.036,382.771,370.371,382.59z M360.456,381.136c-0.44-0.477-0.681-0.828-1.011-1.049
			c-0.134-0.09-0.459,0.106-0.697,0.173c0.113,0.362,0.124,0.898,0.365,1.038C359.374,381.449,359.85,381.229,360.456,381.136z
			 M360.477,374.741c0.267-0.163,0.476-0.292,0.684-0.42c-0.231-0.356-0.408-0.784-0.725-1.032c-0.105-0.082-0.57,0.295-0.872,0.462
			C359.864,374.076,360.164,374.402,360.477,374.741z M347.987,326.618c-0.221,0.292-0.569,0.567-0.616,0.887
			c-0.027,0.179,0.443,0.432,0.69,0.651c0.256-0.34,0.513-0.681,0.769-1.021C348.602,326.994,348.373,326.854,347.987,326.618z
			 M357.604,371.985c-0.122-0.22-0.208-0.581-0.375-0.623c-0.237-0.061-0.533,0.115-0.805,0.189
			c0.196,0.309,0.392,0.616,0.587,0.925C357.212,372.317,357.412,372.158,357.604,371.985z M98.555,405.409
			c-0.053,0.336-0.095,0.601-0.137,0.866c0.17,0.024,0.342,0.048,0.513,0.071c0.014-0.144,0.082-0.311,0.03-0.424
			C98.88,405.746,98.719,405.607,98.555,405.409z M372.771,363.735c0.182-0.355,0.468-0.697,0.487-1.052
			c0.008-0.153-0.537-0.336-0.83-0.505c-0.189,0.377-0.379,0.753-0.569,1.129C372.114,363.428,372.368,363.547,372.771,363.735z
			 M101.544,368.857c0.128-0.295,0.375-0.591,0.323-0.815c-0.063-0.27-0.383-0.479-0.592-0.713c-0.065,0.28-0.211,0.573-0.172,0.84
			C101.138,368.404,101.377,368.61,101.544,368.857z M355.537,445.851c-0.095-0.23-0.19-0.466-0.288-0.7
			c-0.103,0.089-0.292,0.177-0.292,0.265c0.001,0.265,0.074,0.53,0.12,0.794C355.226,446.094,355.374,445.978,355.537,445.851z
			 M343.311,361.542c-0.186-0.229-0.319-0.538-0.539-0.623c-0.196-0.076-0.488,0.094-0.737,0.156c0.212,0.291,0.4,0.608,0.66,0.85
			C342.741,361.967,343.086,361.685,343.311,361.542z M76.25,296.895c-0.109,0.774-0.179,1.164-0.191,1.554
			c-0.001,0.035,0.524,0.16,0.55,0.11c0.127-0.245,0.239-0.54,0.218-0.807C76.811,297.553,76.584,297.372,76.25,296.895z
			 M353.095,471.902c-0.205-0.19-0.404-0.375-0.603-0.56c-0.171,0.232-0.535,0.562-0.477,0.678c0.142,0.276,0.479,0.452,0.738,0.668
			C352.865,472.431,352.978,472.172,353.095,471.902z M331.336,482.327c0.063-0.533,0.164-0.965,0.137-1.389
			c-0.009-0.132-0.366-0.24-0.562-0.359c-0.09,0.422-0.229,0.844-0.241,1.269C330.665,481.973,331.018,482.107,331.336,482.327z
			 M356.593,366.288c-0.267,0.324-0.482,0.586-0.697,0.849c0.225,0.144,0.472,0.43,0.668,0.4c0.387-0.06,0.747-0.295,1.118-0.459
			C357.361,366.847,357.042,366.614,356.593,366.288z M345.68,359.533c-0.621-0.463-0.928-0.814-1.304-0.921
			c-0.197-0.057-0.516,0.316-0.78,0.496c0.256,0.296,0.459,0.705,0.782,0.849C344.596,360.055,344.979,359.778,345.68,359.533z
			 M346.284,312.283c0.259-0.351,0.5-0.679,0.741-1.007c-0.226-0.15-0.56-0.479-0.66-0.418c-0.323,0.192-0.559,0.529-0.828,0.81
			C345.743,311.837,345.948,312.006,346.284,312.283z M364.615,388.309c0.272-0.141,0.527-0.272,0.782-0.405
			c-0.173-0.245-0.347-0.491-0.521-0.736c-0.207,0.153-0.537,0.276-0.586,0.471C364.244,387.82,364.493,388.078,364.615,388.309z"/>
		<path fill-rule="evenodd" clip-rule="evenodd" fill="none" d="M289.444,281.387c-2.878,4.864-5.956,9.625-8.534,14.644
			c-1.015,1.974-1.311,1.76-3.168,0.968c-14.903-6.346-29.773-12.488-45.801-16.038c-18.495-4.097-36.021-1.114-53.512,3.833
			c-5.942,1.68-11.474,5.016-16.979,7.993c-8.1,4.38-16.433,8.527-23.857,13.892c-5.621,4.062-10.158,9.715-14.804,14.99
			c-1.663,1.887-2.217,2.392-3.105-0.164c-2.94-8.469-5.833-16.955-8.769-25.425c-1.208-3.484-2.58-6.916-3.648-10.44
			c-0.28-0.924-0.092-2.514,0.535-3.111c7.866-7.483,8.799-16.413,5.771-26.244c-3.595-11.672-7.908-23.098-9.221-35.44
			c-0.673-6.328-3.003-12.509-4.85-18.677c-4.925-16.451-7.251-33.298-6.853-50.396c0.273-11.729,2.017-23.418,2.541-35.15
			c0.314-7.014,5.727-10.322,9.708-14.193c11.394-11.081,24.894-18.459,40.64-22.333c14.847-3.653,28.343-0.128,41.611,5.184
			c36.937,14.789,64.965,41.226,90.215,70.894c19.997,23.495,38.129,48.436,54.929,74.33c4.157,6.408,10.731,8.88,17.797,10.271
			c2.309,0.455,6.684,4.743,6.209,6.825c-0.111,0.489-1.313,1.057-1.999,1.038c-11.07-0.312-21.73,1.938-31.978,5.786
			c-4.508,1.693-8.824,4.36-12.638,7.34c-7.458,5.828-15.737,10.923-20.341,19.731L289.444,281.387z"/>
		<path fill-rule="evenodd" clip-rule="evenodd" fill="none" d="M193.963,318.278c17.415-1.206,33.259,3.599,48.599,11.605
			c14.078,7.348,27.251,15.941,38.137,27.359c9.967,10.456,19.114,21.774,27.866,33.288c11.348,14.929,19.835,31.626,23.937,49.919
			c2.136,9.526,3.519,20.265,1.237,29.462c-2.612,10.528-5.823,21.804-14.853,29.864c-14.358,12.818-30.6,21.76-49.439,25.819
			c-5.842,1.258-11.715,2.443-17.629,3.244c-2.821,0.383-5.823-0.629-8.662-0.302c-21.09,2.426-37.2-8.604-53.367-19.517
			c-2.403-1.621-4.713-3.389-6.99-5.185c-0.676-0.534-1.094-1.395-1.631-2.105c0.99,0.214,2.02,0.315,2.962,0.656
			c7.03,2.548,13.863,5.978,21.102,7.524c10.663,2.279,21.351,0.322,30.852-4.868c5.828-3.184,8.931-9.194,9.68-16.083
			c0.913-8.398,2.048-16.124-2.771-24.61c-8.762-15.433-22.868-22.255-38.242-27.293c-7.65-2.506-15.914-0.813-23.458,2.464
			c-1.163,0.505-1.928,1.925-2.877,2.923c1.225,0.121,2.506,0.528,3.663,0.302c2.09-0.409,4.27-0.893,6.122-1.887
			c4.438-2.38,8.595-2.572,13.088-0.015c8.655,4.923,17.945,8.88,26.088,14.514c13.682,9.465,16.136,25.457,6.772,39.317
			c-1.78,2.636-4.639,4.557-7.089,6.706c-0.298,0.261-1.151-0.109-1.748-0.187c0.384-0.339,0.776-0.668,1.149-1.019
			c0.213-0.199,0.453-0.403,0.582-0.656c1.097-2.152,2.17-4.316,3.251-6.478c-1.812,1.075-3.563,2.275-5.448,3.203
			c-8.761,4.318-17.865,2.986-26.52,0.347c-8.663-2.642-16.547-6.918-21.845-15.116c-4.961-7.676-8.092-17.559-2.829-24.801
			c1.481-2.036,3.718-3.533,5.658-5.223c0.816-0.712,1.758-1.279,2.643-1.912c-1.228,0.003-2.496-0.193-3.677,0.044
			c-5.898,1.186-11.618,11.277-9.964,17.917c3.577,14.355,11.509,24.688,25.78,30.509c8.311,3.391,16.43,4.588,25.111,4.062
			c0.555-0.034,1.14,0.435,1.711,0.67c-0.512,0.209-1.007,0.495-1.539,0.616c-16.29,3.702-29.708-1.583-41.599-12.705
			c-7.297-6.826-11.405-14.788-12.377-24.733c-0.718-7.353,2.339-14.342,8.636-18.199c1.088-0.666,1.528-2.392,2.267-3.629
			c-1.175,0.237-2.562,0.151-3.492,0.762c-11.074,7.27-15.285,22.679-9.041,35.712c2.733,5.706,7.167,10.597,10.816,15.865
			c0.334,0.482,0.588,1.02,0.88,1.531c-0.634-0.152-1.456-0.102-1.875-0.488c-8.168-7.543-16.709-14.743-24.308-22.828
			c-8.415-8.955-16.292-18.476-23.737-28.257c-3.564-4.681-6.164-10.324-8.19-15.899c-3.329-9.161-7.888-18.188-7.096-28.322
			c0.425-5.442,1.784-10.816,2.796-16.207c0.133-0.708,0.716-1.331,1.091-1.995c0.619,0.551,1.354,1.014,1.839,1.665
			c9.579,12.854,18.96,25.863,28.762,38.547c4.415,5.713,9.565,10.874,14.562,16.113c2.611,2.738,5.394,3.483,9.101,0.928
			c7.804-5.38,15.977-10.227,24.004-15.283c3.837-2.417,3.502-5.532,0.366-8.761c-7.627-7.85-15.199-15.822-22.051-24.343
			c-11.767-14.63-23.02-29.677-34.287-44.7c-0.728-0.972-0.364-3.846,0.56-4.8c7.75-7.998,16.658-14.509,26.818-19.132
			c2.608-1.187,5.545-1.775,8.395-2.287c7.219-1.299,14.473-2.4,21.713-3.58L193.963,318.278z M229.865,418.053
			c0.226-0.214,0.453-0.427,0.679-0.64c5.623,4.389,11.849,8.202,16.727,13.303c6.855,7.172,11.675,15.991,13.448,25.848
			c1.741,9.68-0.019,18.872-6.91,26.564c-0.623,0.694-0.426,2.124-0.609,3.213c0.893-0.431,2.061-0.633,2.632-1.327
			c4.178-5.077,8.271-10.223,12.29-15.426c0.614-0.796,0.938-1.98,1.002-3.011c0.545-8.668-0.054-17.253-3.71-25.239
			c-4.747-10.365-12.481-18.677-21.783-24.664c-12.596-8.107-27.061-9.569-41.795-7.145c-1.444,0.236-2.7,1.612-4.043,2.459
			c1.422,0.376,2.824,0.892,4.27,1.103c8.511,1.243,17.033,2.415,25.551,3.611c0.004,0.369,0.009,0.737,0.014,1.107
			C228.373,417.89,229.119,417.972,229.865,418.053z M332.411,458.807c-0.226-0.107-0.449-0.214-0.675-0.321
			c-0.462-2.87-0.744-5.783-1.424-8.601c-1.539-6.381-3.233-12.724-4.941-19.062c-1.271-4.706-1.808-9.874-4.174-13.967
			c-5.137-8.886-11.197-17.241-16.992-25.736c-0.678-0.993-2.065-1.503-3.125-2.237c0.546,1.033,1.057,2.087,1.643,3.098
			c6.383,10.992,13.355,21.694,18.934,33.08c2.96,6.043,3.044,13.425,5.235,19.93c4.522,13.428,0.123,25.709-4.027,38.096
			c-0.489,1.461-1.395,2.781-2.107,4.167c1.383-1.029,2.839-1.977,4.116-3.123c0.654-0.585,1.201-1.47,1.432-2.317
			C328.387,474.156,330.387,466.478,332.411,458.807z"/>
		<path fill-rule="evenodd" clip-rule="evenodd" fill="none" d="M97.7,281.016c0.385,0.27,1.043,0.489,1.276,0.933
			c1.974,3.751,4.749,7.349,5.639,11.358c4.083,18.394,12.999,34.358,23.258,49.867c17.388,26.284,36.41,51.272,57.685,74.516
			c2.894,3.163,2.622,4.461-0.967,6.601c-6.048,3.604-11.679,7.903-17.634,11.674c-0.953,0.604-3.295,0.551-3.958-0.162
			c-7.649-8.245-15.339-16.477-22.536-25.113c-7.931-9.519-15.527-19.329-22.948-29.253c-4.784-6.399-9.114-13.149-13.423-19.887
			c-4.755-7.436-10.003-14.688-13.675-22.648c-4.661-10.104-8.073-20.8-11.747-31.336c-0.862-2.474-4.082-4.815-1.104-8.044
			c1.125-1.22,1.336-3.357,2.544-4.41c5.254-4.581,10.718-8.921,16.119-13.331C96.577,281.494,97.04,281.352,97.7,281.016z"/>
		<path fill-rule="evenodd" clip-rule="evenodd" fill="none" d="M212.095,286.233c-8.987,0.039-17.415,1.41-25.686,5.244
			c-7.749,3.591-16.556,5.064-23.994,9.125c-12.896,7.041-27.352,12.451-34.747,26.818c-0.546,1.062-2.053,1.629-3.113,2.425
			c-0.712-0.978-1.939-1.935-1.982-2.941c-0.037-0.876,1.189-1.88,1.983-2.706c3.447-3.583,6.593-7.574,10.498-10.573
			c5.808-4.459,12.142-8.239,18.294-12.243c4.099-2.667,8.117-5.52,12.45-7.747c5.431-2.792,10.942-5.834,16.786-7.322
			c9.336-2.377,19.002-5.033,28.478-4.855c10.271,0.193,20.922,2.271,30.612,5.744c12.932,4.633,25.716,10.391,37.42,17.537
			c12.234,7.47,24.415,15.914,34.25,26.198c11.791,12.331,21.364,26.713,29.316,42.227c8.172,15.941,11.628,32.866,14.832,50.056
			c0.28,1.502,0.31,3.107,0.132,4.627c-0.3,2.553-0.858,5.074-1.309,7.609c-0.227-2.125-0.428-4.252-0.683-6.374
			c-1.657-13.77-6.963-26.504-11.038-39.61c-4.587-14.752-11.352-28.33-21.213-40.062c-9.309-11.074-18.93-22.086-29.732-31.633
			c-6.94-6.133-16.829-8.806-24.395-14.386c-11.345-8.368-24.453-11.461-37.563-14.679
			C225.34,287.151,218.639,287.014,212.095,286.233z"/>
		<path fill-rule="evenodd" clip-rule="evenodd" fill="none" d="M412.165,462.122c1.947-4.277,4.062-8.489,5.806-12.85
			c3.553-8.872,7.152-17.739,10.237-26.777c1.604-4.699,1.291-10.159,3.342-14.581c6.451-13.911,6.375-28.797,7.658-43.515
			c0.654-7.507,2.06-15.066,1.649-22.521c-0.506-9.215-2.722-18.323-3.875-27.519c-1.283-10.245-6.048-18.885-11.676-27.216
			c-0.362-0.536-0.342-1.33-0.499-2.005c0.569,0.406,1.258,0.712,1.69,1.231c8.7,10.451,12.878,22.766,15.895,35.874
			c4.395,19.094,4.223,38.273,2.552,57.501c-1.965,22.607-8.907,43.966-18.838,64.22c-3.32,6.771-8.921,12.425-13.479,18.589
			C412.474,462.411,412.319,462.267,412.165,462.122z"/>
		<path fill-rule="evenodd" clip-rule="evenodd" fill="none" d="M107.836,70.433c-8.871,12.809-15.288,26.68-17.239,42.248
			c-1.006,8.026-1.511,16.152-1.647,24.242c-0.223,13.244-0.306,26.51,0.232,39.739c0.297,7.298,1.395,14.683,3.147,21.778
			c5.289,21.418,11.093,42.709,16.657,64.06c1.575,6.042-0.024,11.584-3.029,16.822c-0.134,0.234-1.15,0.324-1.288,0.138
			c-0.878-1.197-1.671-2.466-2.375-3.774c-0.141-0.261,0.186-1.133,0.363-1.154c4.869-0.569,3.942-3.954,3.071-6.84
			c-4.042-13.389-8.409-26.681-12.336-40.103c-1.459-4.984-1.993-10.234-3.028-15.348c-1.859-9.182-4.001-18.314-5.575-27.543
			c-0.745-4.367-0.571-8.909-0.607-13.373c-0.084-10.174-0.782-20.417,0.144-30.506c1.063-11.569,4.527-22.942,5.279-34.509
			c0.886-13.634,8.649-23.507,15.525-34.064c0.572-0.877,1.45-1.555,2.186-2.325C107.49,70.09,107.663,70.262,107.836,70.433z"/>
		<path fill-rule="evenodd" clip-rule="evenodd" fill="none" d="M91.075,56.525c-5.474,5.793-10.965,11.572-16.414,17.39
			c-1.891,2.02-4.022,3.926-5.448,6.25c-5.645,9.196-11.836,18.18-16.291,27.942c-3.315,7.267-3.616,15.853-6.413,23.425
			c-5.172,14.007-4.123,28.807-6.466,43.156c-1.446,8.858-1.968,17.952-1.937,26.937c0.021,6.007,1.564,12.044,2.739,18.006
			c2.634,13.37,5.238,26.753,8.289,40.031c2.08,9.052,4.332,18.146,7.578,26.819c2.18,5.826,5.392,11.906,13.593,11.462
			c0.607-0.033,1.325,1.987,1.991,3.052c-0.879,0.469-1.861,1.47-2.622,1.324c-9.162-1.768-13.667-8.602-16.141-16.562
			c-4.59-14.771-9.17-29.613-12.406-44.714c-2.756-12.866-4.784-26.119-4.981-39.233c-0.191-12.667,2.375-25.374,3.722-38.064
			c0.826-7.78,1.208-15.637,2.563-23.322c1.784-10.114,3.544-20.359,6.808-30.044c2.359-6.999,7.133-13.188,10.86-19.722
			c7.172-12.575,16.789-23.117,27.43-32.789c0.876-0.796,2.039-1.278,3.068-1.906C90.757,56.151,90.916,56.338,91.075,56.525z"/>
		<path fill-rule="evenodd" clip-rule="evenodd" fill="none" d="M391.561,255.193c-0.434,0.149-0.955,0.535-1.316,0.418
			c-1.166-0.375-2.367-0.789-3.387-1.448c-5.69-3.683-12-5.439-18.666-5.245c-3.401,0.099-4.913-1.104-6.189-4.027
			c-1.264-2.895-3.235-5.479-4.896-8.2c2.507-1.112,5.271-1.861,7.461-3.418c3.736-2.656,7.217-5.703,10.601-8.81
			c2.247-2.065,3.565-3.818,5.17,0.748c3.151,8.965,6.921,17.712,10.401,26.562C391.072,252.623,391.177,253.563,391.561,255.193z"
			/>
		<path fill-rule="evenodd" clip-rule="evenodd" fill="none" d="M298.504,272.997c0.832-0.356,1.718-0.625,2.488-1.083
			c6.49-3.869,12.889-7.898,19.472-11.6c2.346-1.319,5.073-2.057,7.709-2.743c15.179-3.949,30.697-5.27,46.04-2.39
			c6.983,1.311,13.841,5.198,19.884,9.225c12.134,8.085,22.5,18.215,28.909,31.602c2.069,4.323,2.893,9.243,4.287,13.889
			l-0.031,0.025c-4.342-7.449-7.756-15.676-13.221-22.181c-10.541-12.545-21.349-26.009-38.717-28.75
			c-9.005-1.421-18.36-4.73-27.816-1.554c-1.145,0.384-2.458,0.655-3.632,0.505c-10.426-1.326-18.46,4.404-27.1,8.712
			c-8.985,4.482-15.699,11.355-21.706,19.017c-3.07,3.915-5.354,8.444-8.02,12.679c-0.368,0.583-0.896,1.065-1.35,1.594
			c-0.035-0.76-0.323-1.623-0.066-2.265c2.24-5.575,4.577-11.111,6.887-16.659l-0.102,0.155c0.541-0.896,1.083-1.793,1.624-2.689
			c1.163-1.071,2.327-2.142,3.489-3.212C297.856,274.515,298.181,273.756,298.504,272.997z"/>
		<path fill-rule="evenodd" clip-rule="evenodd" fill="none" d="M429.387,315.282c1.81,8.197,4.311,16.313,5.288,24.609
			c2.167,18.372-1.866,36.381-4.117,54.512c-2.436,19.62-9.809,37.599-17.279,55.536c-5.147,12.355-14.475,21.372-24.941,29.721
			c-7.82,6.236-16.442,10.144-25.578,12.975c-4.896,1.519-10.537,0.703-15.843,0.759c-0.777,0.008-2.291-1.14-2.218-1.507
			c0.256-1.298,1.053-2.49,1.645-3.722c0.656,0.635,1.231,1.688,1.982,1.831c3.443,0.659,7.169,2.089,10.364,1.358
			c8.221-1.878,15.568-5.707,22.75-10.506c9.722-6.495,18.04-14.053,24.957-23.33c0.537-0.72,1.162-1.429,1.484-2.246
			c4.669-11.857,11.6-22.709,13.646-35.755c1.989-12.684,5.999-25.037,8.545-37.652c2.972-14.726,2.624-29.667,1.326-44.562
			c-0.629-7.213-1.666-14.391-2.518-21.585C429.049,315.572,429.218,315.427,429.387,315.282z"/>
		<path fill-rule="evenodd" clip-rule="evenodd" fill="none" d="M296.032,531.008c-2.201-1.487-5.053-3.406-7.841-5.413
			c-0.02-0.014,0.684-1.497,1.305-1.862c5.666-3.338,11.293-6.771,17.175-9.686c1.158-0.574,3.613,0.619,4.979,1.648
			c0.742,0.559,0.928,2.654,0.543,3.773C310.319,524.914,302.143,530.95,296.032,531.008z"/>
		<path fill-rule="evenodd" clip-rule="evenodd" fill="none" d="M326.082,532.087c0.002,4.757-8.563,9.632-12.646,7.362
			c-1.077-0.598-2.1-1.293-3.144-1.949c-5.969-3.755-5.903-4.038-0.088-7.809c1.743-1.13,3.484-2.78,4.372-4.606
			c1.954-4.022,3.612-2.644,5.669-0.265c1.806,2.088,3.769,4.039,5.604,6.103C326.108,531.217,326.032,531.81,326.082,532.087z"/>
		<path fill-rule="evenodd" clip-rule="evenodd" fill="none" d="M100.58,373.647c0.434-0.924,0.804-1.885,1.318-2.762
			c0.476-0.809,1.105-1.528,1.667-2.286c0.637,1.162,2.1,2.659,1.786,3.436c-4.83,11.914-4.024,24.133-2.373,36.434
			c0.08,0.595-0.063,1.22-0.103,1.831l-0.019,0.015c-4.105-3.687-3.845-8.715-3.717-13.46c0.208-7.745,0.937-15.475,1.445-23.211
			L100.58,373.647z"/>
		<path fill-rule="evenodd" clip-rule="evenodd" fill="none" d="M376.006,398.106c2.028-12.389,4.058-24.777,6.08-37.166
			c0.174-1.062,0.312-2.129,0.436-3.197c0.253-2.152,0.483-4.309,0.724-6.464c0.153,2.277,0.368,4.554,0.451,6.834
			c0.513,13.977-2.231,27.377-7.223,40.372C376.317,398.358,376.162,398.232,376.006,398.106z"/>
		<path fill-rule="evenodd" clip-rule="evenodd" fill="none" d="M165.752,29.82c-1.936,0.859-2.442,1.106-2.965,1.312
			c-9.178,3.629-18.356,7.256-27.538,10.875c-0.789,0.311-1.601,0.56-2.402,0.837c0.572-0.772,0.979-1.854,1.745-2.267
			c4.499-2.418,9.611-4.028,13.493-7.174c4.105-3.328,8.701-3.244,13.222-4.181C162.262,29.024,163.35,29.47,165.752,29.82z"/>
		<path fill-rule="evenodd" clip-rule="evenodd" fill="none" d="M389.298,601.191c-6.748-0.457-13.498-0.889-20.24-1.414
			c-0.591-0.046-1.132-0.711-1.696-1.089c0.525-0.186,1.055-0.543,1.576-0.531c9.359,0.207,18.717,0.438,28.073,0.727
			c1.104,0.034,2.193,0.44,3.29,0.675c-1.044,0.42-2.068,1.13-3.136,1.201c-2.605,0.176-5.232,0.058-7.852,0.058
			C389.308,600.941,389.303,601.066,389.298,601.191z"/>
		<path fill-rule="evenodd" clip-rule="evenodd" fill="none" d="M107.316,69.919c4.678-6.22,9.345-12.449,14.066-18.637
			c0.279-0.365,0.994-0.398,1.506-0.585c-0.227,0.613-0.315,1.337-0.702,1.823c-4.758,5.991-9.56,11.947-14.351,17.913
			C107.663,70.262,107.49,70.09,107.316,69.919z"/>
		<path fill-rule="evenodd" clip-rule="evenodd" fill="none" d="M344.536,302.348c2.826,0.661,4.533,1.061,6.242,1.461
			c-1.742,0.487-3.473,1.025-5.229,1.451c-3.693,0.895-7.398,1.752-11.11,2.568c-0.534,0.117-1.138-0.085-1.709-0.14
			c0.383-0.456,0.675-1.141,1.16-1.332C337.668,304.873,341.483,303.485,344.536,302.348z"/>
		<path fill-rule="evenodd" clip-rule="evenodd" fill="none" d="M368.812,345.318c2.006,1.896,2.435,2.301,2.864,2.706
			c-1.78,1.833-3.523,3.707-5.417,5.415c-0.146,0.131-2.005-1.322-1.981-1.361C365.676,349.839,367.188,347.67,368.812,345.318z"/>
		<path fill-rule="evenodd" clip-rule="evenodd" fill="none" d="M330.836,601.807c5.663-0.661,11.325-1.335,16.993-1.957
			c0.395-0.044,0.831,0.282,1.248,0.437c-0.34,0.215-0.671,0.601-1.021,0.618c-5.773,0.288-11.549,0.531-17.324,0.783
			L330.836,601.807z"/>
		<path fill-rule="evenodd" clip-rule="evenodd" fill="none" d="M128.767,458.772c-2.837-3.311-5.706-6.596-8.477-9.962
			c-0.373-0.453-0.253-1.312-0.361-1.982c0.563,0.41,1.266,0.717,1.667,1.249c2.553,3.392,5.038,6.833,7.545,10.257
			C129.017,458.479,128.892,458.626,128.767,458.772z"/>
		<path fill-rule="evenodd" clip-rule="evenodd" fill="none" d="M336.363,543.027c2.285,0.732,4.606,1.371,6.844,2.229
			c1.687,0.646,3.265,1.573,4.892,2.375c-1.901-0.291-3.894-0.317-5.681-0.937c-2.267-0.786-4.366-2.055-6.537-3.114
			C336.041,543.396,336.203,543.211,336.363,543.027z"/>
		<path fill-rule="evenodd" clip-rule="evenodd" fill="none" d="M94.829,278.057c-2.972,2.097-5.555,3.921-8.138,5.745
			c-0.164-0.356-0.529-0.979-0.461-1.031c2.383-1.814,4.799-3.587,7.248-5.312C93.614,277.361,94.066,277.708,94.829,278.057z"/>
		<path fill-rule="evenodd" clip-rule="evenodd" fill="none" d="M369.542,338.775c1.28,0.743,2.021,1.172,2.76,1.602
			c-1.036,0.982-1.969,2.157-3.182,2.814c-0.309,0.168-1.508-1.305-2.298-2.023C367.679,340.414,368.535,339.662,369.542,338.775z"
			/>
		<path fill-rule="evenodd" clip-rule="evenodd" fill="none" d="M364.086,348.085c-1.004,0.901-1.929,1.938-3.07,2.598
			c-0.252,0.145-1.276-1.048-1.944-1.625c1.052-0.637,2.104-1.272,3.155-1.909C362.847,347.461,363.466,347.773,364.086,348.085z"/>
		<path fill-rule="evenodd" clip-rule="evenodd" fill="none" d="M363.025,310.524c0.896,1.715,1.57,3.005,2.243,4.294
			c-0.441,0.208-1.043,0.713-1.299,0.576c-1.186-0.636-2.275-1.45-3.4-2.201C361.247,312.458,361.924,311.722,363.025,310.524z"/>
		<path fill-rule="evenodd" clip-rule="evenodd" fill="none" d="M387.486,557.563c-2.369-0.591-5.022-1.253-7.677-1.915
			c2.527,0.104,5.056,0.208,7.582,0.315c0.152,0.006,0.307,0.017,0.455,0.051c1.186,0.278,2.371,0.562,3.556,0.846
			C390.23,557.07,389.059,557.281,387.486,557.563z"/>
		<path fill-rule="evenodd" clip-rule="evenodd" fill="none" d="M359.73,324.896c0.914,1.072,1.52,1.78,2.124,2.489
			c-0.786,0.646-1.618,1.849-2.345,1.788c-0.786-0.066-1.474-1.312-2.204-2.043C358.004,326.487,358.703,325.844,359.73,324.896z"/>
		<path fill-rule="evenodd" clip-rule="evenodd" fill="none" d="M364.086,348.085c-0.62-0.312-1.239-0.624-1.859-0.937
			c0.625-0.961,1.065-2.237,1.949-2.751c0.448-0.261,1.696,0.854,2.583,1.349C365.868,346.525,364.977,347.306,364.086,348.085z"/>
		<path fill-rule="evenodd" clip-rule="evenodd" fill="none" d="M358.235,313.075c-1.242-0.747-2.008-1.207-2.773-1.668
			c1.608-1.058,3.202-2.141,4.861-3.111c0.098-0.057,1.113,1.098,1.05,1.179C360.403,310.711,359.325,311.863,358.235,313.075z"/>
		<path fill-rule="evenodd" clip-rule="evenodd" fill="none" d="M129.141,458.334c2.378,2.308,4.757,4.613,7.109,6.947
			c0.039,0.038-0.267,0.423-0.412,0.646c-2.357-2.385-4.714-4.771-7.071-7.154C128.892,458.626,129.017,458.479,129.141,458.334z"/>
		<path fill-rule="evenodd" clip-rule="evenodd" fill="none" d="M113.794,436.609c1.211,1.888,2.487,3.776,3.646,5.735
			c0.445,0.754,0.631,1.663,0.903,2.512c0.026,0.082-0.171,0.236-0.265,0.357c-1.44-1.954-2.96-3.854-4.273-5.89
			c-0.432-0.669-0.328-1.684-0.452-2.543C113.349,436.758,113.542,436.705,113.794,436.609z"/>
		<path fill-rule="evenodd" clip-rule="evenodd" fill="none" d="M355.556,356.928c-0.99,0.702-1.642,1.51-2.081,1.407
			c-1.08-0.25-2.063-0.918-3.085-1.418c0.528-0.596,1.163-1.755,1.562-1.679C353.055,355.449,354.059,356.177,355.556,356.928z"/>
		<path fill-rule="evenodd" clip-rule="evenodd" fill="none" d="M350.662,333.225c-1.327-1.774-2.327-2.731-2.175-2.976
			c0.518-0.836,1.365-1.584,2.259-1.99c0.237-0.107,1.588,1.176,1.542,1.752C352.216,330.95,351.417,331.834,350.662,333.225z"/>
		<path fill-rule="evenodd" clip-rule="evenodd" fill="none" d="M344.9,345.608c-1.214,0.782-2.011,1.615-2.91,1.745
			c-0.466,0.068-1.112-1.108-1.677-1.723c0.741-0.615,1.416-1.564,2.247-1.729C343.106,343.795,343.877,344.818,344.9,345.608z"/>
		<path fill-rule="evenodd" clip-rule="evenodd" fill="none" d="M372.076,366.833c0.231,1.266,0.611,2.006,0.407,2.508
			c-0.408,1.003-1.138,1.874-1.734,2.8c-0.603-0.573-1.799-1.529-1.713-1.661C369.75,369.369,370.7,368.408,372.076,366.833z"/>
		<path fill-rule="evenodd" clip-rule="evenodd" fill="none" d="M363.54,332.469c-0.785-0.855-1.681-1.635-1.593-1.77
			c0.546-0.836,1.229-1.66,2.056-2.191c0.279-0.18,1.112,0.502,1.692,0.79C365.061,330.23,364.428,331.163,363.54,332.469z"/>
		<path fill-rule="evenodd" clip-rule="evenodd" fill="none" d="M342.311,313.476c0.607,1.124,1.319,2.008,1.157,2.217
			c-0.694,0.897-1.646,1.597-2.504,2.369c-0.354-0.542-1.131-1.302-0.985-1.585C340.475,315.516,341.297,314.723,342.311,313.476z"
			/>
		<path fill-rule="evenodd" clip-rule="evenodd" fill="none" d="M341.216,349.679c-1.148,0.771-2.013,1.757-2.51,1.598
			c-0.854-0.275-1.479-1.264-2.201-1.952c0.678-0.521,1.409-1.518,2.021-1.45C339.355,347.966,340.094,348.873,341.216,349.679z"/>
		<path fill-rule="evenodd" clip-rule="evenodd" fill="none" d="M341.297,327.375c1.541-1.203,2.55-2.045,3.643-2.759
			c0.114-0.074,0.727,0.61,1.107,0.942c-0.959,0.915-1.881,1.875-2.914,2.695C342.972,328.383,342.303,327.873,341.297,327.375z"/>
		<path fill-rule="evenodd" clip-rule="evenodd" fill="none" d="M370.348,330.597c0.708,2.599,1.074,3.472,1.138,4.366
			c0.035,0.494-0.438,1.026-0.682,1.541c-0.954-0.679-2.279-1.183-2.717-2.107C367.842,333.878,369.062,332.664,370.348,330.597z"/>
		<path fill-rule="evenodd" clip-rule="evenodd" fill="none" d="M354.443,334.592c-0.897-0.94-1.458-1.527-2.019-2.114
			c0.767-0.631,1.459-1.543,2.332-1.771c0.436-0.114,1.808,1.249,1.695,1.55C356.146,333.08,355.277,333.692,354.443,334.592z"/>
		<path fill-rule="evenodd" clip-rule="evenodd" fill="none" d="M411.555,470.531c-0.979,1.029-1.958,2.057-2.937,3.085
			c0.74-1.753,1.481-3.506,2.222-5.26C411.078,469.082,411.316,469.807,411.555,470.531z"/>
		<path fill-rule="evenodd" clip-rule="evenodd" fill="none" d="M348.604,322.937c-0.551-0.947-1.251-1.898-1.141-2.003
			c0.687-0.659,1.528-1.18,2.392-1.598c0.112-0.054,0.997,0.991,0.914,1.113C350.229,321.246,349.52,321.928,348.604,322.937z"/>
		<path fill-rule="evenodd" clip-rule="evenodd" fill="none" d="M357.653,324.213c-0.943,0.889-1.587,1.736-2.44,2.164
			c-0.286,0.144-1.107-0.781-1.684-1.218c0.688-0.711,1.282-1.584,2.107-2.047C355.947,322.938,356.792,323.719,357.653,324.213z"/>
		<path fill-rule="evenodd" clip-rule="evenodd" fill="none" d="M372.979,354.047c-0.841,0.609-1.624,1.354-2.556,1.744
			c-0.286,0.12-0.979-0.738-1.487-1.147c1.034-0.717,2.021-1.526,3.126-2.105c0.441-0.23,1.147,0.047,1.733,0.093
			C373.522,353.104,373.25,353.575,372.979,354.047z"/>
		<path fill-rule="evenodd" clip-rule="evenodd" fill="none" d="M367.23,369.128c-0.159-1.128-0.453-1.859-0.254-2.037
			c0.968-0.861,2.062-1.585,3.15-2.295c0.037-0.024,0.771,0.878,0.74,0.911C369.845,366.737,368.768,367.713,367.23,369.128z"/>
		<path fill-rule="evenodd" clip-rule="evenodd" fill="none" d="M414.487,598.34c-2.317,0.505-4.635,1.01-6.959,1.487
			c-0.018,0.004-0.116-0.384-0.179-0.589c2.234-0.469,4.468-0.938,6.701-1.408C414.196,598,414.342,598.17,414.487,598.34z"/>
		<path fill-rule="evenodd" clip-rule="evenodd" fill="none" d="M355.905,351.509c1.059,0.812,1.841,1.412,2.622,2.013
			c-0.511,0.366-1.166,1.139-1.505,1.019c-0.879-0.31-1.618-1.014-2.413-1.561C355.021,352.514,355.431,352.047,355.905,351.509z"/>
		<path fill-rule="evenodd" clip-rule="evenodd" fill="none" d="M357.167,343.816c0.277-0.119,0.555-0.233,0.829-0.357
			c1.106-0.5,2.211-1.005,3.317-1.507c0.045,0.608,0.089,1.218,0.134,1.827c-1.403-0.013-2.807-0.024-4.209-0.037L357.167,343.816z"
			/>
		<path fill-rule="evenodd" clip-rule="evenodd" fill="none" d="M350.555,354.381c-1.063,0.899-1.631,1.671-2.359,1.88
			c-0.415,0.119-1.093-0.679-1.652-1.064c0.783-0.558,1.523-1.204,2.376-1.623C349.174,353.448,349.74,353.959,350.555,354.381z"/>
		<path fill-rule="evenodd" clip-rule="evenodd" fill="none" d="M358.093,356.979c0.602,1.199,1.148,2.07,1.432,3.02
			c0.063,0.211-0.924,1.082-1.219,0.988c-0.933-0.294-1.768-0.9-2.639-1.387C356.152,359.074,356.639,358.549,358.093,356.979z"/>
		<path fill-rule="evenodd" clip-rule="evenodd" fill="none" d="M332.038,342.876c-0.509-0.767-1.124-1.414-1.015-1.578
			c0.631-0.945,1.42-1.79,2.224-2.602c0.032-0.032,1.124,0.841,1.085,0.904C333.718,340.606,333,341.549,332.038,342.876z"/>
		<path fill-rule="evenodd" clip-rule="evenodd" fill="none" d="M372.174,359.131c-1.149,1.367-2.1,2.5-3.05,3.632
			c-0.36-0.417-1.062-1.171-1.031-1.2c1.036-1.05,2.131-2.041,3.26-2.991C371.414,358.52,371.833,358.894,372.174,359.131z"/>
		<path fill-rule="evenodd" clip-rule="evenodd" fill="none" d="M297.533,275.274c-1.162,1.071-2.326,2.142-3.489,3.212
			c-0.3,0.193-0.6,0.385-0.9,0.578c1.378-1.818,2.757-3.636,4.135-5.454C297.364,274.166,297.448,274.72,297.533,275.274z"/>
		<path fill-rule="evenodd" clip-rule="evenodd" fill="none" d="M342.876,324.142c-1.15,0.915-2.178,1.73-3.204,2.547
			c-0.209-0.427-0.688-1.142-0.586-1.237c0.951-0.891,2.001-1.676,3.022-2.492C342.312,323.271,342.514,323.584,342.876,324.142z"/>
		<path fill-rule="evenodd" clip-rule="evenodd" fill="none" d="M334.997,348.977c-0.885-1.233-1.57-2.191-2.257-3.147
			c0.419-0.297,1.033-0.938,1.222-0.831c0.856,0.487,1.72,1.092,2.291,1.868C336.411,347.083,335.581,348.029,334.997,348.977z"/>
		<path fill-rule="evenodd" clip-rule="evenodd" fill="none" d="M363.91,356.453c-1.216,0.55-2.065,1.223-2.4,1.024
			c-0.631-0.372-0.964-1.247-1.42-1.913c0.437-0.248,0.973-0.792,1.288-0.685C362.111,355.128,362.739,355.691,363.91,356.453z"/>
		<path fill-rule="evenodd" clip-rule="evenodd" fill="none" d="M337.514,346.003c-0.305-1.083-0.661-1.748-0.507-1.904
			c0.713-0.716,1.568-1.291,2.373-1.916c0.195,0.352,0.645,0.882,0.544,1.022C339.347,344.015,338.641,344.73,337.514,346.003z"/>
		<path fill-rule="evenodd" clip-rule="evenodd" d="M383.54,221.588c0.655,1.822,1.311,3.643,1.966,5.465
			c-0.629-0.505-1.257-1.011-1.885-1.516C383.594,224.221,383.567,222.905,383.54,221.588z"/>
		<path fill-rule="evenodd" clip-rule="evenodd" fill="none" d="M370.307,324.776c-0.759,0.872-1.187,1.363-1.614,1.854
			c-0.606-0.604-1.286-1.157-1.754-1.854c-0.093-0.138,0.704-1.227,0.968-1.181C368.616,323.723,369.261,324.225,370.307,324.776z"
			/>
		<path fill-rule="evenodd" clip-rule="evenodd" fill="none" d="M347.359,365.352c-0.817,0.516-1.629,1.186-1.751,1.078
			c-0.733-0.651-1.31-1.48-1.938-2.25c0.365-0.28,0.918-0.875,1.066-0.787C345.586,363.896,346.339,364.561,347.359,365.352z"/>
		<path fill-rule="evenodd" clip-rule="evenodd" fill="none" d="M353.774,341.327c-0.725-0.574-1.144-0.906-1.562-1.238
			c0.672-0.737,1.298-1.531,2.062-2.157c0.122-0.1,0.859,0.551,1.312,0.855C355.027,339.571,354.468,340.354,353.774,341.327z"/>
		<path fill-rule="evenodd" clip-rule="evenodd" fill="none" d="M350.658,339.387c-1.226-1.088-2.137-1.532-2.157-2.015
			c-0.021-0.516,0.874-1.555,1.235-1.499c0.756,0.116,1.682,0.662,2.029,1.307C351.963,337.547,351.155,338.455,350.658,339.387z"/>
		<path fill-rule="evenodd" clip-rule="evenodd" fill="none" d="M333.782,331.041c0.63,0.919,1.451,1.619,1.326,2.046
			c-0.217,0.747-1.014,1.326-1.567,1.976c-0.357-0.491-1.06-1.034-0.995-1.464C332.66,332.821,333.23,332.111,333.782,331.041z"/>
		<path fill-rule="evenodd" clip-rule="evenodd" fill="none" d="M367.283,338.739c-1.259,0.58-1.968,1.057-2.738,1.194
			c-0.347,0.061-0.813-0.557-1.227-0.866c0.608-0.565,1.138-1.336,1.857-1.613C365.537,337.315,366.243,338.073,367.283,338.739z"/>
		<path fill-rule="evenodd" clip-rule="evenodd" fill="none" d="M337.229,332.126c0.693,2.284,1.062,2.914,0.906,3.095
			c-0.543,0.635-1.268,1.115-1.923,1.653c-0.253-0.401-0.789-0.882-0.703-1.188C335.743,334.857,336.241,334.102,337.229,332.126z"
			/>
		<path fill-rule="evenodd" clip-rule="evenodd" fill="none" d="M360.56,334.426c-0.815,0.717-1.391,1.407-2.126,1.775
			c-0.296,0.149-0.945-0.409-1.435-0.646c0.626-0.753,1.205-1.56,1.93-2.203C359.035,333.256,359.829,333.934,360.56,334.426z"/>
		<path fill-rule="evenodd" clip-rule="evenodd" fill="none" d="M367.49,358.781c-0.928,0.491-1.499,0.943-2.132,1.058
			c-0.26,0.046-0.651-0.631-0.983-0.979c0.529-0.459,1.003-1.053,1.616-1.303C366.219,357.465,366.775,358.176,367.49,358.781z"/>
		<path fill-rule="evenodd" clip-rule="evenodd" fill="none" d="M346.019,333.13c0.894,0.675,1.461,1.104,2.028,1.532
			c-0.711,0.459-1.38,1.045-2.158,1.295c-0.212,0.069-1.077-0.888-1.049-1.335C344.872,334.115,345.574,333.651,346.019,333.13z"/>
		<path fill-rule="evenodd" clip-rule="evenodd" fill="none" d="M427.112,593.237c1.475-0.925,2.95-1.849,4.425-2.773
			c0.065,0.268,0.246,0.735,0.18,0.773c-1.413,0.812-2.854,1.577-4.289,2.351C427.322,593.472,427.217,593.354,427.112,593.237z"/>
		<path fill-rule="evenodd" clip-rule="evenodd" fill="none" d="M356.637,379.137c-0.498,0.122-1.107,0.482-1.468,0.312
			c-0.6-0.282-1.038-0.904-1.544-1.384c0.594-0.318,1.176-0.865,1.785-0.897c0.741-0.038,1.507,0.355,2.262,0.563
			C357.327,378.199,356.982,378.668,356.637,379.137z"/>
		<path fill-rule="evenodd" clip-rule="evenodd" fill="none" d="M365.587,363.041c0.479,0.658,1.096,1.388,1.039,1.444
			c-0.7,0.698-1.467,1.349-2.31,1.859c-0.104,0.063-0.74-0.751-1.131-1.159C363.923,364.527,364.66,363.869,365.587,363.041z"/>
		<path fill-rule="evenodd" clip-rule="evenodd" fill="none" d="M441.118,565.326c1.006,1.018,2.012,2.035,3.018,3.053
			c-0.047,0.599-0.093,1.198-0.139,1.797C443.038,568.56,442.077,566.942,441.118,565.326z"/>
		<path fill-rule="evenodd" clip-rule="evenodd" fill="none" d="M333.024,541.663c-0.458-0.05-1.036,0.06-1.352-0.18
			c-0.917-0.691-1.728-1.523-2.58-2.301c1.026,0.286,2.072,0.516,3.069,0.88c0.554,0.201,1.026,0.627,1.534,0.951
			C333.473,541.23,333.249,541.446,333.024,541.663z"/>
		<path fill-rule="evenodd" clip-rule="evenodd" fill="none" d="M363.852,320.699c0.813,0.669,1.466,1.204,2.117,1.74
			c-0.352,0.424-0.898,1.262-1.021,1.206c-0.832-0.396-1.575-0.98-2.347-1.503C362.962,321.726,363.322,321.31,363.852,320.699z"/>
		<path fill-rule="evenodd" clip-rule="evenodd" fill="none" d="M355.74,315.789c-0.725,0.652-1.222,1.452-1.701,1.441
			c-0.581-0.013-1.147-0.711-1.721-1.113c0.427-0.509,0.817-1.386,1.289-1.433C354.179,314.627,354.819,315.273,355.74,315.789z"/>
		<path fill-rule="evenodd" clip-rule="evenodd" fill="none" d="M345.565,320.675c-0.486-0.811-1.064-1.404-0.943-1.644
			c0.324-0.642,0.882-1.235,1.49-1.623c0.187-0.118,0.837,0.492,1.274,0.768C346.88,318.872,346.373,319.568,345.565,320.675z"/>
		<path fill-rule="evenodd" clip-rule="evenodd" fill="none" d="M354.252,350.778c-1.326,0.535-1.896,0.91-2.493,0.957
			c-0.425,0.032-0.885-0.375-1.328-0.586c0.533-0.432,1.013-1.02,1.624-1.237C352.412,349.784,352.979,350.248,354.252,350.778z"/>
		<path fill-rule="evenodd" clip-rule="evenodd" fill="none" d="M349.896,361.942c-0.603,0.486-0.958,0.943-1.129,0.883
			c-0.677-0.242-1.295-0.647-1.935-0.991c0.265-0.318,0.604-0.942,0.783-0.898C348.279,361.093,348.89,361.472,349.896,361.942z"/>
		<path fill-rule="evenodd" clip-rule="evenodd" fill="none" d="M354.521,365.032c-0.778,0.36-1.244,0.743-1.436,0.636
			c-0.721-0.408-1.352-0.975-2.016-1.482c0.298-0.21,0.696-0.662,0.874-0.588C352.716,363.922,353.424,364.399,354.521,365.032z"/>
		<path fill-rule="evenodd" clip-rule="evenodd" fill="none" d="M362.228,319.946c-0.887,0.517-1.588,1.155-1.818,1.016
			c-0.642-0.389-1.089-1.101-1.612-1.685c0.48-0.228,1.021-0.718,1.425-0.624C360.834,318.798,361.35,319.349,362.228,319.946z"/>
		<path fill-rule="evenodd" clip-rule="evenodd" fill="none" d="M347.709,347.191c-1.029,0.779-1.67,1.266-2.312,1.752
			c-0.276-0.384-0.87-0.95-0.772-1.119c0.346-0.604,0.862-1.181,1.454-1.528C346.29,346.172,346.901,346.729,347.709,347.191z"/>
		<path fill-rule="evenodd" clip-rule="evenodd" fill="none" d="M348.902,341.441c-1.544,0.147-2.242,0.365-2.853,0.22
			c-0.427-0.102-0.736-0.699-1.098-1.076c0.588-0.313,1.204-0.913,1.758-0.858C347.26,339.779,347.745,340.49,348.902,341.441z"/>
		<path fill-rule="evenodd" clip-rule="evenodd" fill="none" d="M373.183,555.559c-0.491-0.302-0.923-0.567-1.354-0.832
			c0.566-0.14,1.136-0.4,1.698-0.387c0.566,0.014,1.126,0.301,1.689,0.468C374.571,555.046,373.927,555.284,373.183,555.559z"/>
		<path fill-rule="evenodd" clip-rule="evenodd" fill="none" d="M97.083,386.286c0.302-0.622,0.532-1.097,0.763-1.571
			c0.146,0.737,0.372,1.471,0.408,2.213c0.021,0.412-0.275,0.84-0.428,1.261C97.576,387.548,97.326,386.907,97.083,386.286z"/>
		<path fill-rule="evenodd" clip-rule="evenodd" fill="none" d="M357.238,343.742c-0.104-0.914-0.252-1.827-0.259-2.741
			c-0.001-0.113,0.758-0.23,1.165-0.346c-0.321,1.05-0.643,2.098-0.971,3.153C357.167,343.816,357.238,343.742,357.238,343.742z"/>
		<path fill-rule="evenodd" clip-rule="evenodd" fill="none" d="M341.126,338.774c0.96-0.691,1.464-1.159,2.061-1.396
			c0.122-0.048,0.912,0.873,0.821,1.176c-0.138,0.464-0.726,0.958-1.218,1.093C342.455,339.739,341.959,339.238,341.126,338.774z"/>
		<path fill-rule="evenodd" clip-rule="evenodd" fill="none" d="M349.735,374.424c-0.064-1-0.258-1.535-0.082-1.881
			c0.219-0.427,0.744-0.696,1.138-1.034c0.346,0.436,0.691,0.87,1.037,1.305C351.289,373.229,350.75,373.645,349.735,374.424z"/>
		<path fill-rule="evenodd" clip-rule="evenodd" fill="none" d="M367.895,398.186c-0.515,0.598-0.873,1.016-1.232,1.434
			c-0.346-0.299-0.691-0.598-1.037-0.896c0.388-0.407,0.733-0.874,1.188-1.18C366.935,397.461,367.388,397.873,367.895,398.186z"/>
		<path fill-rule="evenodd" clip-rule="evenodd" fill="none" d="M104.444,415.498c0.548,1.333,0.896,2.135,1.176,2.961
			c0.018,0.051-0.495,0.281-0.761,0.429c-0.306-0.686-0.659-1.355-0.889-2.064C103.897,416.601,104.153,416.27,104.444,415.498z"/>
		<path fill-rule="evenodd" clip-rule="evenodd" fill="none" d="M337.604,341.633c-0.919,0.762-1.569,1.338-2.277,1.83
			c-0.066,0.046-0.501-0.438-0.764-0.676c0.641-0.618,1.26-1.263,1.948-1.82C336.598,340.898,337.057,341.29,337.604,341.633z"/>
		<path fill-rule="evenodd" clip-rule="evenodd" fill="none" d="M412.628,462.555c-0.772,0.774-1.545,1.549-2.317,2.322
			c0.618-0.918,1.236-1.836,1.854-2.755C412.319,462.267,412.474,462.411,412.628,462.555z"/>
		<path fill-rule="evenodd" clip-rule="evenodd" fill="none" d="M351.718,367.799c-1.168,0.518-1.623,0.895-2.055,0.867
			c-0.552-0.033-1.084-0.391-1.624-0.609c0.332-0.446,0.652-1.25,0.997-1.261C349.661,366.776,350.303,367.229,351.718,367.799z"/>
		<path fill-rule="evenodd" clip-rule="evenodd" fill="none" d="M357.27,391.578c-0.349-0.469-0.761-0.865-0.698-0.968
			c0.299-0.483,0.676-0.964,1.137-1.282c0.187-0.128,0.66,0.16,1.004,0.259C358.292,390.166,357.873,390.745,357.27,391.578z"/>
		<path fill-rule="evenodd" clip-rule="evenodd" fill="none" d="M349.539,311.208c1.395,1.735,1.75,2.178,2.105,2.621
			c-0.557,0.323-1.088,0.779-1.685,0.893c-0.196,0.037-0.734-0.791-0.803-1.268C349.077,312.889,349.337,312.276,349.539,311.208z"
			/>
		<path fill-rule="evenodd" clip-rule="evenodd" fill="none" d="M74.788,292.997c0.669-0.896,1.323-1.805,2.045-2.655
			c0.046-0.054,0.628,0.346,0.96,0.535c-0.819,0.869-1.638,1.739-2.458,2.608C75.153,293.322,74.971,293.16,74.788,292.997z"/>
		<path fill-rule="evenodd" clip-rule="evenodd" fill="none" d="M358.659,346.843c-0.973,0.536-1.531,1.088-1.864,0.975
			c-0.595-0.202-1.056-0.804-1.572-1.239c0.447-0.248,0.911-0.719,1.339-0.689C357.124,345.928,357.659,346.36,358.659,346.843z"/>
		<path fill-rule="evenodd" clip-rule="evenodd" fill="none" d="M346.885,352.666c-1.015,0.933-1.758,1.614-2.501,2.297
			c-0.195-0.294-0.621-0.762-0.55-0.855c0.534-0.71,1.141-1.376,1.797-1.977C345.729,352.041,346.207,352.366,346.885,352.666z"/>
		<path fill-rule="evenodd" clip-rule="evenodd" fill="none" d="M289.344,281.491c1.318-0.868,2.638-1.735,3.955-2.604
			c-0.293,0.763-0.586,1.525-0.879,2.288l0.102-0.155c-1.02,0.115-2.039,0.231-3.068,0.356
			C289.444,281.387,289.344,281.491,289.344,281.491z"/>
		<path fill-rule="evenodd" clip-rule="evenodd" fill="none" d="M343.821,351.132c-0.786,0.875-1.346,1.555-1.995,2.132
			c-0.063,0.057-0.688-0.517-1.051-0.797c0.598-0.624,1.163-1.287,1.822-1.838C342.72,350.526,343.218,350.873,343.821,351.132z"/>
		<path fill-rule="evenodd" clip-rule="evenodd" fill="none" d="M373.48,551.313c0.538,0.272,1.044,0.528,1.549,0.784
			c-0.701,0.177-1.4,0.479-2.104,0.489c-0.521,0.007-1.049-0.367-1.573-0.572C372.031,551.791,372.711,551.566,373.48,551.313z"/>
		<path fill-rule="evenodd" clip-rule="evenodd" fill="none" d="M370.809,377.374c-0.871,0.502-1.484,0.854-2.097,1.208
			c-0.11-0.308-0.405-0.766-0.298-0.897c0.358-0.444,0.828-0.836,1.331-1.102C369.877,376.514,370.288,376.974,370.809,377.374z"/>
		<path fill-rule="evenodd" clip-rule="evenodd" fill="none" d="M99.407,379.724c-0.281,0.396-0.564,0.794-0.847,1.191
			c-0.132-0.412-0.38-0.829-0.366-1.236c0.015-0.42,0.285-0.832,0.442-1.248C98.853,378.795,99.07,379.157,99.407,379.724z"/>
		<path fill-rule="evenodd" clip-rule="evenodd" fill="none" d="M368.43,386.733c0.107,0.884,0.327,1.392,0.164,1.604
			c-0.355,0.463-0.906,0.777-1.377,1.151c-0.186-0.233-0.572-0.611-0.523-0.677C367.124,388.209,367.633,387.66,368.43,386.733z"/>
		<path fill-rule="evenodd" clip-rule="evenodd" fill="none" d="M364.378,412.422c-1.098,0.445-1.739,0.76-2.419,0.927
			c-0.12,0.029-0.63-0.67-0.55-0.842c0.232-0.503,0.649-0.938,1.062-1.324C362.526,411.131,362.979,411.504,364.378,412.422z"/>
		<path fill-rule="evenodd" clip-rule="evenodd" fill="none" d="M414.493,467.531c-0.372,0.437-0.745,0.872-1.116,1.308
			c-0.112-0.637-0.226-1.271-0.338-1.908C413.523,467.131,414.008,467.331,414.493,467.531z"/>
		<path fill-rule="evenodd" clip-rule="evenodd" fill="none" d="M93.804,53.674c-0.91,0.95-1.819,1.9-2.729,2.851
			c-0.159-0.187-0.318-0.374-0.478-0.561c0.97-0.889,1.939-1.777,2.909-2.666C93.605,53.424,93.705,53.549,93.804,53.674z"/>
		<path fill-rule="evenodd" clip-rule="evenodd" fill="none" d="M333.696,541.014c0.889,0.671,1.778,1.343,2.667,2.014
			c-0.16,0.184-0.322,0.368-0.482,0.553c-0.953-0.64-1.904-1.277-2.856-1.917C333.249,541.446,333.473,541.23,333.696,541.014z"/>
		<path fill-rule="evenodd" clip-rule="evenodd" fill="none" d="M369.124,550.949c-0.923,0.396-1.312,0.721-1.646,0.673
			c-0.635-0.091-1.238-0.395-1.855-0.61c0.41-0.148,0.817-0.408,1.23-0.418C367.418,550.58,367.987,550.758,369.124,550.949z"/>
		<path fill-rule="evenodd" clip-rule="evenodd" fill="none" d="M380.648,552.769c1.281-0.136,1.835-0.26,2.382-0.232
			c0.405,0.021,0.803,0.236,1.203,0.365c-0.611,0.183-1.212,0.44-1.835,0.516C382.07,553.456,381.702,553.177,380.648,552.769z"/>
		<path fill-rule="evenodd" clip-rule="evenodd" d="M443.997,570.176c0.046-0.599,0.092-1.198,0.139-1.797
			c0.474,0.935,0.947,1.869,1.422,2.804C445.038,570.847,444.518,570.512,443.997,570.176z"/>
		<path fill-rule="evenodd" clip-rule="evenodd" fill="none" d="M427.428,593.588c-1.293,0.563-2.585,1.127-3.878,1.689l-0.01-0.013
			c1.19-0.676,2.381-1.351,3.572-2.027C427.217,593.354,427.322,593.472,427.428,593.588z"/>
		<path fill-rule="evenodd" clip-rule="evenodd" fill="none" d="M101.649,47.421c1.348-0.481,2.695-0.962,4.043-1.444l-0.09-0.094
			c-1.113,0.75-2.226,1.498-3.339,2.247C102.059,47.895,101.854,47.658,101.649,47.421z"/>
		<path fill-rule="evenodd" clip-rule="evenodd" fill="none" d="M330.731,601.688c-0.493,0.326-0.967,0.881-1.484,0.926
			c-0.835,0.073-1.697-0.189-2.548-0.311c0.762-0.186,1.516-0.435,2.289-0.537c0.602-0.081,1.227,0.021,1.845,0.041
			C330.836,601.807,330.731,601.688,330.731,601.688z"/>
		<path fill-rule="evenodd" clip-rule="evenodd" fill="none" d="M309.736,609.7c-0.922,0.554-1.536,0.96-2.196,1.271
			c-0.081,0.039-0.4-0.425-0.61-0.655c0.478-0.347,0.918-0.781,1.448-1C308.639,609.207,309.063,609.493,309.736,609.7z"/>
		<path fill-rule="evenodd" clip-rule="evenodd" fill="none" d="M338.583,331.105c0.809-0.328,1.306-0.67,1.804-0.671
			c0.235-0.001,0.472,0.652,0.708,1.008c-0.495,0.253-0.97,0.601-1.495,0.711C339.41,332.192,339.102,331.66,338.583,331.105z"/>
		<path fill-rule="evenodd" clip-rule="evenodd" fill="none" d="M367.982,330.917c0.22,0.596,0.488,1.022,0.395,1.128
			c-0.476,0.536-1.046,0.989-1.583,1.472c-0.172-0.255-0.544-0.66-0.482-0.742C366.732,332.21,367.243,331.713,367.982,330.917z"/>
		<path fill-rule="evenodd" clip-rule="evenodd" fill="none" d="M336.618,327.502c0.761,1.211,1.323,1.756,1.213,2.006
			c-0.193,0.439-0.769,0.892-1.241,0.962c-0.297,0.045-1.001-0.607-0.984-0.921C335.632,329.02,336.084,328.512,336.618,327.502z"/>
		<path fill-rule="evenodd" clip-rule="evenodd" fill="none" d="M363.283,362.505c-0.749,0.273-1.271,0.635-1.739,0.576
			c-0.308-0.039-0.538-0.687-0.803-1.062c0.512-0.224,1.012-0.564,1.541-0.617C362.512,361.379,362.801,361.95,363.283,362.505z"/>
		<path fill-rule="evenodd" clip-rule="evenodd" fill="none" d="M351.726,343.487c-0.762,0.288-1.356,0.62-1.438,0.523
			c-0.349-0.416-0.547-0.96-0.8-1.456c0.381-0.167,0.896-0.574,1.113-0.451C351.014,342.334,351.255,342.869,351.726,343.487z"/>
		<path fill-rule="evenodd" clip-rule="evenodd" fill="none" d="M352.917,369.2c0.618,0.295,1.013,0.482,1.407,0.671
			c-0.201,0.335-0.404,0.945-0.604,0.944c-0.395-0.003-0.851-0.28-1.148-0.577C352.47,370.137,352.763,369.639,352.917,369.2z"/>
		<path fill-rule="evenodd" clip-rule="evenodd" fill="none" d="M102.875,410.3c0.279,0.785,0.57,1.567,0.809,2.365
			c0.015,0.05-0.374,0.221-0.575,0.335c-0.084-0.895-0.168-1.791-0.252-2.687C102.856,410.314,102.875,410.3,102.875,410.3z"/>
		<path fill-rule="evenodd" clip-rule="evenodd" d="M297.533,275.274c-0.085-0.554-0.169-1.109-0.255-1.663
			c0.409-0.205,0.817-0.41,1.226-0.615C298.181,273.756,297.856,274.515,297.533,275.274z"/>
		<path fill-rule="evenodd" clip-rule="evenodd" fill="none" d="M383.54,221.588c0.027,1.317,0.054,2.633,0.081,3.949
			c-0.366-1.312-0.733-2.623-1.1-3.934c0.37,0.022,0.74,0.046,1.109,0.069L383.54,221.588z"/>
		<path fill-rule="evenodd" clip-rule="evenodd" d="M383.631,221.673c-0.369-0.023-0.739-0.047-1.109-0.069
			c0,0,0.185,0.123,0.185,0.123c0.155-1.301,0.311-2.602,0.466-3.902c0,0-0.099-0.117-0.1-0.116
			C383.258,219.03,383.445,220.351,383.631,221.673z"/>
		<path fill-rule="evenodd" clip-rule="evenodd" fill="none" d="M383.172,217.824c-0.155,1.301-0.311,2.602-0.466,3.902
			C382.861,220.426,383.017,219.125,383.172,217.824z"/>
		<path fill-rule="evenodd" clip-rule="evenodd" fill="none" d="M231.515,102.968c0.195,0.205,0.459,0.389,0.541,0.633
			c0.044,0.133-0.224,0.369-0.351,0.559c-0.192-0.206-0.459-0.384-0.545-0.627C231.114,103.403,231.382,103.163,231.515,102.968z"/>
		<path fill-rule="evenodd" clip-rule="evenodd" fill="none" d="M96.503,51.67c-0.9,0.668-1.8,1.336-2.699,2.004
			c-0.099-0.125-0.198-0.25-0.297-0.375c0.92-0.629,1.84-1.258,2.761-1.888L96.503,51.67z"/>
		<path fill-rule="evenodd" clip-rule="evenodd" fill="none" d="M96.268,51.411c0.853-0.693,1.705-1.386,2.557-2.079
			c0.169,0.176,0.337,0.352,0.506,0.527c-0.942,0.604-1.885,1.208-2.828,1.811L96.268,51.411z"/>
		<path fill-rule="evenodd" clip-rule="evenodd" fill="none" d="M349.761,347.865c0.177,0.695,0.477,1.201,0.332,1.451
			c-0.278,0.482-0.808,0.822-1.231,1.222c-0.212-0.272-0.66-0.691-0.599-0.792C348.635,349.152,349.125,348.634,349.761,347.865z"/>
		<path fill-rule="evenodd" clip-rule="evenodd" fill="none" d="M98.825,49.332c0.941-0.637,1.883-1.273,2.825-1.911
			c0.205,0.236,0.409,0.473,0.614,0.709c-0.978,0.577-1.955,1.153-2.933,1.729C99.162,49.684,98.994,49.508,98.825,49.332z"/>
		<path fill-rule="evenodd" clip-rule="evenodd" fill="none" d="M354.012,322.588c-0.915,0.58-1.505,0.953-2.094,1.325
			c-0.164-0.285-0.531-0.745-0.46-0.826c0.367-0.427,0.81-0.832,1.307-1.083C352.946,321.912,353.352,322.263,354.012,322.588z"/>
		<path fill-rule="evenodd" clip-rule="evenodd" fill="none" d="M362.74,599.132c-0.277-0.186-0.593-0.398-0.908-0.61
			c0.221-0.159,0.469-0.475,0.657-0.443c0.369,0.062,0.705,0.319,1.056,0.496C363.321,598.729,363.097,598.885,362.74,599.132z"/>
		<path fill-rule="evenodd" clip-rule="evenodd" fill="none" d="M127.49,47.933c-0.539,0.253-1.061,0.499-1.582,0.744
			c-0.079-0.231-0.278-0.621-0.217-0.667c0.473-0.359,0.996-0.65,1.504-0.963C127.272,47.277,127.348,47.507,127.49,47.933z"/>
		<path fill-rule="evenodd" clip-rule="evenodd" fill="none" d="M105.692,45.978c0.567-0.537,1.134-1.075,1.701-1.613
			c0.148,0.164,0.296,0.329,0.444,0.493c-0.745,0.342-1.49,0.684-2.235,1.026C105.602,45.883,105.692,45.978,105.692,45.978z"/>
		<path fill-rule="evenodd" clip-rule="evenodd" fill="none" d="M358.258,387.49c-0.212-0.685-0.46-1.115-0.357-1.227
			c0.386-0.421,0.852-0.805,1.361-1.053c0.145-0.069,0.536,0.369,0.814,0.575C359.562,386.268,359.048,386.75,358.258,387.49z"/>
		<path fill-rule="evenodd" clip-rule="evenodd" fill="none" d="M357.192,383.216c-0.585,0.653-0.902,1.177-1.367,1.442
			c-0.176,0.1-0.69-0.393-1.051-0.616c0.346-0.455,0.636-0.981,1.069-1.323C355.992,382.602,356.505,382.948,357.192,383.216z"/>
		<path fill-rule="evenodd" clip-rule="evenodd" d="M292.42,281.176c0.293-0.763,0.586-1.525,0.879-2.288
			c0.001,0-0.156,0.177-0.155,0.177c0.301-0.192,0.601-0.385,0.9-0.578C293.503,279.383,292.961,280.279,292.42,281.176z"/>
		<path fill-rule="evenodd" clip-rule="evenodd" fill="none" d="M435.25,390.934c0.129,0.521,0.3,0.938,0.307,1.355
			c0.003,0.233-0.271,0.471-0.419,0.707c-0.118-0.395-0.311-0.784-0.328-1.183C434.798,391.566,435.052,391.308,435.25,390.934z"/>
		<path fill-rule="evenodd" clip-rule="evenodd" fill="none" d="M362.677,394.912c0.168-0.93,0.323-1.862,0.54-2.782
			c0.013-0.056,0.511,0.003,0.784,0.007c-0.452,0.912-0.904,1.823-1.356,2.734L362.677,394.912z"/>
		<path fill-rule="evenodd" clip-rule="evenodd" fill="none" d="M421.144,279.325c-0.108,0.305-0.186,0.524-0.264,0.743
			c-0.324-0.259-0.699-0.479-0.945-0.798c-0.083-0.108,0.157-0.466,0.25-0.71C420.511,278.821,420.838,279.082,421.144,279.325z"/>
		<path fill-rule="evenodd" clip-rule="evenodd" fill="none" d="M353.337,376.456c0.197-0.773,0.394-1.548,0.59-2.321
			c0.017,0.39,0.122,0.803,0.024,1.162c-0.108,0.403-0.4,0.758-0.612,1.134L353.337,376.456z"/>
		<path fill-rule="evenodd" clip-rule="evenodd" fill="none" d="M376.474,398.485c-0.435,1.133-0.869,2.265-1.305,3.398l0.092,0.08
			c0.249-1.286,0.498-2.572,0.745-3.857C376.162,398.232,376.317,398.358,376.474,398.485z"/>
		<path fill-rule="evenodd" clip-rule="evenodd" fill="none" d="M434.863,398.535c-0.205,0.374-0.404,0.736-0.604,1.098
			c-0.198-0.331-0.592-0.688-0.552-0.987c0.063-0.479,0.415-0.921,0.645-1.378C434.513,397.665,434.673,398.063,434.863,398.535z"/>
		<path fill-rule="evenodd" clip-rule="evenodd" fill="none" d="M100.584,373.644c-0.122-0.695-0.244-1.391-0.366-2.086
			c0.218-0.002,0.437-0.005,0.656-0.007c-0.098,0.699-0.196,1.398-0.294,2.097L100.584,373.644z"/>
		<path fill-rule="evenodd" clip-rule="evenodd" fill="none" d="M357.309,316.252c0.622,1.316,0.97,1.731,0.874,1.919
			c-0.176,0.341-0.614,0.548-0.942,0.811c-0.195-0.313-0.54-0.622-0.549-0.94C356.682,317.645,356.948,317.24,357.309,316.252z"/>
		<path fill-rule="evenodd" clip-rule="evenodd" fill="none" d="M354.886,344.885c-0.578,0.432-0.899,0.674-1.222,0.915
			c-0.192-0.297-0.449-0.575-0.536-0.899c-0.029-0.107,0.379-0.473,0.585-0.472C354.023,344.432,354.332,344.654,354.886,344.885z"
			/>
		<path fill-rule="evenodd" clip-rule="evenodd" fill="none" d="M416.538,558.974c-0.227-0.153-0.446-0.302-0.666-0.451
			c0.241-0.12,0.488-0.343,0.723-0.332c0.23,0.011,0.448,0.261,0.671,0.405C417.026,558.72,416.787,558.844,416.538,558.974z"/>
		<path fill-rule="evenodd" clip-rule="evenodd" fill="none" d="M364.997,375.629c0.166,0.179,0.328,0.351,0.488,0.522
			c-0.314,0.175-0.631,0.35-0.946,0.524c-0.084-0.216-0.297-0.517-0.224-0.627C364.447,375.851,364.751,375.769,364.997,375.629z"/>
		<path fill-rule="evenodd" clip-rule="evenodd" fill="none" d="M372.178,344.581c0.094-0.282,0.184-0.545,0.272-0.808
			c0.241,0.138,0.619,0.228,0.686,0.424c0.077,0.222-0.125,0.54-0.206,0.816C372.679,344.868,372.427,344.724,372.178,344.581z"/>
		<path fill-rule="evenodd" clip-rule="evenodd" fill="none" d="M370.371,382.59c-0.335,0.182-0.666,0.36-0.997,0.539
			c-0.099-0.218-0.337-0.559-0.271-0.633c0.253-0.292,0.604-0.499,0.917-0.739C370.121,381.995,370.221,382.232,370.371,382.59z"/>
		<path fill-rule="evenodd" clip-rule="evenodd" fill="none" d="M360.456,381.136c-0.606,0.093-1.082,0.313-1.343,0.162
			c-0.241-0.14-0.252-0.676-0.365-1.038c0.238-0.066,0.563-0.263,0.697-0.173C359.775,380.308,360.016,380.659,360.456,381.136z"/>
		<path fill-rule="evenodd" clip-rule="evenodd" fill="none" d="M360.477,374.741c-0.312-0.339-0.612-0.665-0.913-0.99
			c0.302-0.167,0.767-0.544,0.872-0.462c0.316,0.248,0.493,0.676,0.725,1.032C360.952,374.449,360.743,374.578,360.477,374.741z"/>
		<path fill-rule="evenodd" clip-rule="evenodd" fill="none" d="M347.987,326.618c0.386,0.236,0.614,0.376,0.843,0.517
			c-0.256,0.341-0.513,0.682-0.769,1.021c-0.247-0.22-0.718-0.473-0.69-0.651C347.418,327.186,347.767,326.91,347.987,326.618z"/>
		<path fill-rule="evenodd" clip-rule="evenodd" fill="none" d="M423.55,595.277c-0.755,0.451-1.51,0.902-2.266,1.354l0.003,0.005
			c0.751-0.456,1.502-0.913,2.253-1.37C423.54,595.265,423.55,595.277,423.55,595.277z"/>
		<path fill-rule="evenodd" clip-rule="evenodd" fill="none" d="M353.339,376.431c-0.545,0.112-1.09,0.227-1.634,0.34
			c0.045-0.229,0.091-0.459,0.135-0.688c0.499,0.125,0.998,0.249,1.497,0.373C353.337,376.456,353.339,376.431,353.339,376.431z"/>
		<path fill-rule="evenodd" clip-rule="evenodd" fill="none" d="M421.284,596.631c-0.801,0.077-1.601,0.155-2.403,0.213
			c-0.009,0.001-0.038-0.27-0.06-0.413c0.822,0.068,1.644,0.138,2.466,0.205L421.284,596.631z"/>
		<path fill-rule="evenodd" clip-rule="evenodd" fill="none" d="M414.051,597.83c0.904-0.176,1.808-0.353,2.71-0.528
			c-0.758,0.346-1.516,0.692-2.273,1.038C414.342,598.17,414.196,598,414.051,597.83z"/>
		<path fill-rule="evenodd" clip-rule="evenodd" fill="none" d="M357.608,371.992c-0.196,0.166-0.396,0.325-0.597,0.484
			c-0.195-0.309-0.391-0.616-0.587-0.925c0.271-0.074,0.567-0.25,0.805-0.189C357.396,371.404,357.482,371.766,357.608,371.992z"/>
		<path fill-rule="evenodd" clip-rule="evenodd" fill="none" d="M375.169,401.884c-0.104,0.672-0.208,1.345-0.312,2.018
			c-0.178-0.152-0.531-0.396-0.508-0.442c0.271-0.516,0.6-1.001,0.912-1.495L375.169,401.884z"/>
		<path fill-rule="evenodd" clip-rule="evenodd" fill="none" d="M98.555,405.409c0.164,0.198,0.325,0.337,0.406,0.514
			c0.052,0.113-0.016,0.28-0.03,0.424c-0.171-0.023-0.342-0.047-0.513-0.071C98.46,406.01,98.502,405.745,98.555,405.409z"/>
		<path fill-rule="evenodd" clip-rule="evenodd" fill="none" d="M75.336,293.484c-0.607,0.445-1.213,0.89-1.82,1.335
			c0.424-0.608,0.848-1.215,1.272-1.823C74.971,293.16,75.153,293.322,75.336,293.484z"/>
		<path fill-rule="evenodd" clip-rule="evenodd" fill="none" d="M372.771,363.735c-0.403-0.188-0.657-0.308-0.912-0.428
			c0.19-0.376,0.38-0.752,0.569-1.129c0.293,0.169,0.838,0.352,0.83,0.505C373.239,363.038,372.953,363.38,372.771,363.735z"/>
		<path fill-rule="evenodd" clip-rule="evenodd" fill="none" d="M101.544,368.857c-0.167-0.247-0.406-0.453-0.441-0.688
			c-0.039-0.267,0.107-0.56,0.172-0.84c0.209,0.234,0.529,0.443,0.592,0.713C101.92,368.267,101.673,368.562,101.544,368.857z"/>
		<path fill-rule="evenodd" clip-rule="evenodd" fill="none" d="M362.645,394.871c-0.706,0.27-1.413,0.54-2.119,0.811
			c-0.021-0.14-0.063-0.402-0.058-0.403c0.731-0.137,1.467-0.254,2.205-0.369C362.677,394.912,362.645,394.871,362.645,394.871z"/>
		<path fill-rule="evenodd" clip-rule="evenodd" fill="none" d="M355.537,445.851c-0.163,0.127-0.312,0.243-0.46,0.358
			c-0.046-0.264-0.119-0.529-0.12-0.794c0-0.088,0.189-0.176,0.292-0.265C355.347,445.385,355.442,445.62,355.537,445.851z"/>
		<path fill-rule="evenodd" clip-rule="evenodd" fill="none" d="M343.311,361.542c-0.225,0.143-0.569,0.425-0.616,0.383
			c-0.26-0.241-0.448-0.559-0.66-0.85c0.249-0.062,0.541-0.232,0.737-0.156C342.991,361.004,343.125,361.312,343.311,361.542z"/>
		<path fill-rule="evenodd" clip-rule="evenodd" fill="none" d="M76.25,296.895c0.334,0.477,0.561,0.658,0.577,0.857
			c0.021,0.267-0.09,0.562-0.218,0.807c-0.025,0.05-0.551-0.075-0.55-0.11C76.071,298.059,76.142,297.669,76.25,296.895z"/>
		<path fill-rule="evenodd" clip-rule="evenodd" fill="none" d="M427.293,309.896c0.413,0.819,0.828,1.637,1.227,2.474
			c-0.017,0.017,0.092-0.088,0.092-0.088c-0.45-0.787-0.9-1.574-1.35-2.36L427.293,309.896z"/>
		<path fill-rule="evenodd" clip-rule="evenodd" fill="none" d="M353.095,471.902c-0.117,0.27-0.229,0.528-0.341,0.786
			c-0.259-0.216-0.597-0.392-0.738-0.668c-0.059-0.115,0.306-0.445,0.477-0.678C352.69,471.527,352.89,471.712,353.095,471.902z"/>
		<path fill-rule="evenodd" clip-rule="evenodd" fill="none" d="M331.336,482.327c-0.318-0.22-0.671-0.354-0.667-0.479
			c0.013-0.425,0.151-0.847,0.241-1.269c0.196,0.119,0.554,0.228,0.562,0.359C331.5,481.362,331.399,481.794,331.336,482.327z"/>
		<path fill-rule="evenodd" clip-rule="evenodd" fill="none" d="M356.593,366.288c0.449,0.326,0.769,0.559,1.089,0.79
			c-0.371,0.164-0.731,0.399-1.118,0.459c-0.196,0.029-0.443-0.257-0.668-0.4C356.11,366.874,356.326,366.612,356.593,366.288z"/>
		<path fill-rule="evenodd" clip-rule="evenodd" fill="none" d="M345.68,359.533c-0.7,0.245-1.084,0.521-1.302,0.424
			c-0.323-0.144-0.526-0.553-0.782-0.849c0.265-0.18,0.583-0.553,0.78-0.496C344.752,358.719,345.059,359.07,345.68,359.533z"/>
		<path fill-rule="evenodd" clip-rule="evenodd" fill="none" d="M346.284,312.283c-0.336-0.277-0.541-0.446-0.747-0.616
			c0.27-0.281,0.505-0.618,0.828-0.81c0.101-0.061,0.435,0.268,0.66,0.418C346.784,311.604,346.543,311.932,346.284,312.283z"/>
		<path fill-rule="evenodd" clip-rule="evenodd" fill="none" d="M428.88,315.717c-0.099-1.137-0.196-2.273-0.282-3.422
			c0.014-0.013-0.095,0.092-0.078,0.075c0.301,0.959,0.584,1.935,0.867,2.912C429.218,315.427,429.049,315.572,428.88,315.717z"/>
		<path fill-rule="evenodd" clip-rule="evenodd" fill="none" d="M364.615,388.309c-0.122-0.23-0.371-0.488-0.324-0.671
			c0.049-0.194,0.379-0.317,0.586-0.471c0.174,0.245,0.348,0.491,0.521,0.736C365.143,388.036,364.888,388.168,364.615,388.309z"/>
		<path fill-rule="evenodd" clip-rule="evenodd" fill="none" d="M347.65,542.348c0.198,0.615,0.396,1.232,0.594,1.849
			c-0.64-0.215-1.28-0.429-1.92-0.643C346.766,543.151,347.208,542.749,347.65,542.348z"/>
		<path fill-rule="evenodd" clip-rule="evenodd" fill="none" d="M193.93,318.332c-0.415-0.017-0.831-0.034-1.247-0.05
			c0.046-0.251,0.092-0.503,0.138-0.754c0.38,0.25,0.761,0.5,1.142,0.75L193.93,318.332z"/>
		<path fill-rule="evenodd" clip-rule="evenodd" d="M424.925,602.343c0.61-0.271,1.221-0.544,1.829-0.815
			c-0.146-0.188-0.294-0.376-0.44-0.564c-0.43,0.483-0.86,0.965-1.292,1.46C425.019,602.436,424.925,602.343,424.925,602.343z"/>
		<path fill-rule="evenodd" clip-rule="evenodd" d="M227.613,416.702c-8.518-1.196-17.04-2.368-25.551-3.611
			c-1.446-0.211-2.848-0.727-4.27-1.103c1.343-0.847,2.6-2.223,4.043-2.459c14.734-2.425,29.199-0.963,41.795,7.145
			c9.302,5.987,17.036,14.299,21.783,24.664c3.656,7.986,4.255,16.571,3.71,25.239c-0.064,1.03-0.388,2.215-1.002,3.011
			c-4.019,5.203-8.112,10.349-12.29,15.426c-0.571,0.694-1.739,0.896-2.632,1.327c0.184-1.089-0.014-2.519,0.609-3.213
			c6.892-7.692,8.651-16.885,6.91-26.564c-1.773-9.856-6.593-18.676-13.448-25.848c-4.878-5.101-11.104-8.914-16.727-13.303
			C229.567,417.176,228.59,416.938,227.613,416.702z"/>
		<path fill-rule="evenodd" clip-rule="evenodd" d="M332.411,458.807c-2.024,7.671-4.024,15.35-6.106,23.006
			c-0.23,0.848-0.777,1.732-1.432,2.317c-1.277,1.146-2.733,2.094-4.116,3.123c0.713-1.386,1.618-2.706,2.107-4.167
			c4.15-12.387,8.55-24.668,4.027-38.096c-2.191-6.505-2.275-13.887-5.235-19.93c-5.578-11.386-12.551-22.088-18.934-33.08
			c-0.586-1.011-1.097-2.064-1.643-3.098c1.06,0.734,2.447,1.244,3.125,2.237c5.795,8.495,11.855,16.851,16.992,25.736
			c2.366,4.093,2.903,9.261,4.174,13.967c1.708,6.338,3.402,12.681,4.941,19.062c0.68,2.817,0.962,5.73,1.424,8.601
			C331.962,458.593,332.186,458.699,332.411,458.807z"/>
		<path fill-rule="evenodd" clip-rule="evenodd" fill="none" d="M227.613,416.702c0.977,0.236,1.954,0.474,2.931,0.711
			c-0.226,0.213-0.453,0.426-0.679,0.64c-0.747-0.081-1.493-0.163-2.239-0.243C227.622,417.439,227.617,417.071,227.613,416.702z"/>
		<path fill-rule="evenodd" clip-rule="evenodd" d="M227.626,417.81c0.746,0.08,1.492,0.162,2.239,0.243
			C229.119,417.972,228.373,417.89,227.626,417.81z"/>
	</g>
</g>
</svg>
