<?xml version="1.0" encoding="utf-8"?>
<!-- Generator: Adobe Illustrator 16.0.0, SVG Export Plug-In . SVG Version: 6.00 Build 0)  -->
<!DOCTYPE svg PUBLIC "-//W3C//DTD SVG 1.1//EN" "http://www.w3.org/Graphics/SVG/1.1/DTD/svg11.dtd">
<svg version="1.1" id="Layer_1" xmlns="http://www.w3.org/2000/svg" xmlns:xlink="http://www.w3.org/1999/xlink" x="0px" y="0px"
	 width="62px" height="62px" viewBox="-1 -1 62 62" enable-background="new -1 -1 62 62" xml:space="preserve">
<path fill="#FF3530" d="M60,29.998C60,13.431,46.57,0,30,0C13.427,0,0,13.43,0,29.998C0,46.568,13.427,60,30,60
	C46.57,60,60,46.568,60,29.998"/>
<polygon fill="#FFFFFF" points="27.667,41.23 36.977,18.748 32.352,18.748 23.042,41.23 "/>
<polygon fill="#FFFFFF" points="23.093,18.759 18.109,30.827 13.128,18.758 8.5,18.758 18.109,41.963 27.718,18.759 "/>
<polygon fill="#FFFFFF" points="36.906,41.242 41.891,29.173 46.872,41.242 51.5,41.242 41.891,18.037 32.281,41.242 "/>
</svg>
